G04 #@! TF.FileFunction,Copper,L2,Bot,Signal*
%FSLAX46Y46*%
G04 Gerber Fmt 4.6, Leading zero omitted, Abs format (unit mm)*
G04 Created by KiCad (PCBNEW 4.0.6) date Monday, 07 August 2017 'PMt' 13:26:33*
%MOMM*%
%LPD*%
G01*
G04 APERTURE LIST*
%ADD10C,0.101600*%
%ADD11R,1.100000X0.250000*%
%ADD12R,1.700000X1.700000*%
%ADD13O,1.700000X1.700000*%
%ADD14R,1.500000X1.250000*%
%ADD15R,1.250000X1.500000*%
%ADD16R,1.300000X1.500000*%
%ADD17R,1.500000X1.300000*%
%ADD18R,1.000000X2.200000*%
%ADD19R,0.650000X1.560000*%
%ADD20R,1.000000X1.000000*%
%ADD21C,0.762000*%
%ADD22C,0.254000*%
%ADD23C,0.500000*%
%ADD24C,1.000000*%
%ADD25C,0.700000*%
G04 APERTURE END LIST*
D10*
D11*
X145170000Y-69326000D03*
X145170000Y-68826000D03*
X145170000Y-68326000D03*
X145170000Y-67826000D03*
X145170000Y-67326000D03*
X149470000Y-67326000D03*
X149470000Y-67826000D03*
X149470000Y-68326000D03*
X149470000Y-68826000D03*
X149470000Y-69326000D03*
D12*
X142240000Y-93980000D03*
D13*
X144780000Y-93980000D03*
X147320000Y-93980000D03*
X149860000Y-93980000D03*
X152400000Y-93980000D03*
X154940000Y-93980000D03*
D14*
X141498000Y-85344000D03*
X143998000Y-85344000D03*
D15*
X139700000Y-90450000D03*
X139700000Y-92950000D03*
D14*
X148570000Y-71120000D03*
X146070000Y-71120000D03*
D16*
X144375000Y-75850000D03*
X144375000Y-73150000D03*
D17*
X154766000Y-70104000D03*
X152066000Y-70104000D03*
X154766000Y-72263000D03*
X152066000Y-72263000D03*
D12*
X137160000Y-83820000D03*
D13*
X137160000Y-81280000D03*
D17*
X145970000Y-65278000D03*
X148670000Y-65278000D03*
X148670000Y-63246000D03*
X145970000Y-63246000D03*
X154250000Y-63200000D03*
X151550000Y-63200000D03*
X151550000Y-65200000D03*
X154250000Y-65200000D03*
D12*
X154940000Y-53340000D03*
X161290000Y-55880000D03*
X161290000Y-73660000D03*
X161290000Y-76200000D03*
X161290000Y-78740000D03*
X147320000Y-53340000D03*
X137160000Y-91440000D03*
D13*
X137160000Y-73660000D03*
D12*
X137160000Y-88900000D03*
D13*
X137160000Y-76200000D03*
D12*
X152400000Y-53340000D03*
D16*
X146350000Y-75875000D03*
X146350000Y-78575000D03*
D12*
X161290000Y-81280000D03*
D16*
X154800000Y-75850000D03*
X154800000Y-78550000D03*
D12*
X161290000Y-53340000D03*
D18*
X139065000Y-76504800D03*
X139065000Y-80486000D03*
X140360400Y-80486000D03*
X140360400Y-76504800D03*
D12*
X161290000Y-93980000D03*
D13*
X161290000Y-91440000D03*
X161290000Y-88900000D03*
X161290000Y-86360000D03*
D19*
X141250000Y-87550000D03*
X142200000Y-87550000D03*
X143150000Y-87550000D03*
X143150000Y-90250000D03*
X141250000Y-90250000D03*
D20*
X139300000Y-87600000D03*
X139300000Y-85100000D03*
D12*
X161290000Y-83820000D03*
D21*
X159150000Y-81475000D03*
X140300000Y-67600000D03*
X140825000Y-83575000D03*
X157099994Y-72500000D03*
X145499996Y-91000000D03*
X155800000Y-67800000D03*
X146050000Y-73152000D03*
X141224000Y-92202000D03*
X148524998Y-76925000D03*
X149600000Y-76050000D03*
X149775000Y-81225000D03*
X158400000Y-85075000D03*
X139900000Y-65500000D03*
X147400000Y-67300000D03*
X147350000Y-60000000D03*
X146050000Y-74300000D03*
X151450000Y-77650000D03*
X150150000Y-77650000D03*
X147350000Y-80175000D03*
X142000004Y-78525000D03*
X155400006Y-58000000D03*
X152450004Y-84550000D03*
X143900000Y-79200000D03*
X153900000Y-58000000D03*
X152800000Y-78600000D03*
X138100000Y-69200000D03*
D22*
X159150000Y-80936185D02*
X159150000Y-81475000D01*
X157099994Y-72500000D02*
X159150000Y-74550006D01*
X159150000Y-74550006D02*
X159150000Y-80936185D01*
X155800000Y-59650000D02*
X155950000Y-59500000D01*
X155950000Y-59500000D02*
X159570000Y-55880000D01*
X155750000Y-59700000D02*
X155950000Y-59500000D01*
X145970000Y-63246000D02*
X146070000Y-63246000D01*
X140300000Y-68138815D02*
X140300000Y-67600000D01*
X140300000Y-70774000D02*
X140300000Y-68138815D01*
X137160000Y-73914000D02*
X140300000Y-70774000D01*
X155800000Y-63575000D02*
X155800000Y-59650000D01*
X155800000Y-63575000D02*
X155800000Y-65200000D01*
X155800000Y-65200000D02*
X155800000Y-67261185D01*
X154250000Y-65200000D02*
X155254000Y-65200000D01*
X155254000Y-65200000D02*
X155800000Y-65200000D01*
X155800000Y-67261185D02*
X155800000Y-67800000D01*
X143584000Y-65532000D02*
X143584000Y-64066000D01*
X143584000Y-64066000D02*
X144404000Y-63246000D01*
X144404000Y-63246000D02*
X145970000Y-63246000D01*
X159570000Y-55880000D02*
X161290000Y-55880000D01*
X144375000Y-73150000D02*
X146048000Y-73150000D01*
X146048000Y-73150000D02*
X146050000Y-73152000D01*
X142104000Y-83575000D02*
X141363815Y-83575000D01*
X141363815Y-83575000D02*
X140825000Y-83575000D01*
X143998000Y-85344000D02*
X143873000Y-85344000D01*
X143873000Y-85344000D02*
X142104000Y-83575000D01*
X157099994Y-71961185D02*
X157099994Y-72500000D01*
X155800000Y-67800000D02*
X157099994Y-69099994D01*
X157099994Y-69099994D02*
X157099994Y-71961185D01*
D23*
X139065000Y-76504800D02*
X137464800Y-76504800D01*
X137464800Y-76504800D02*
X137160000Y-76200000D01*
D24*
X137160000Y-73660000D02*
X137160000Y-76200000D01*
D22*
X143998000Y-89498004D02*
X145118997Y-90619001D01*
X143998000Y-85344000D02*
X143998000Y-89498004D01*
X145118997Y-90619001D02*
X145499996Y-91000000D01*
D23*
X143998000Y-87250000D02*
X143998000Y-86469000D01*
X143998000Y-88662762D02*
X143998000Y-87250000D01*
D22*
X145170000Y-69326000D02*
X145974000Y-69326000D01*
X145974000Y-69326000D02*
X146050201Y-69249799D01*
X146050201Y-69249799D02*
X146050201Y-68249799D01*
X146050000Y-73152000D02*
X146050000Y-71140000D01*
X146050000Y-71140000D02*
X146070000Y-71120000D01*
X145170000Y-68326000D02*
X145974000Y-68326000D01*
X145974000Y-68326000D02*
X146050201Y-68249799D01*
X146050201Y-68249799D02*
X146050201Y-66936839D01*
X146050201Y-66936839D02*
X145661362Y-66548000D01*
X145661362Y-66548000D02*
X144600000Y-66548000D01*
X144600000Y-66548000D02*
X144310201Y-66258201D01*
X144310201Y-66258201D02*
X143584000Y-65532000D01*
X137160000Y-71956000D02*
X143584000Y-65532000D01*
X144165000Y-85344000D02*
X143998000Y-85344000D01*
X146050000Y-71394000D02*
X146070000Y-71374000D01*
X146049994Y-73151994D02*
X146050000Y-73152000D01*
X145595000Y-69326000D02*
X145170000Y-69326000D01*
X141224000Y-92202000D02*
X140188000Y-92202000D01*
X140188000Y-92202000D02*
X139700000Y-92690000D01*
X137160000Y-73914000D02*
X137160000Y-71956000D01*
X137160000Y-76200000D02*
X137160000Y-73914000D01*
D23*
X142240000Y-87550000D02*
X142240000Y-88520762D01*
X142240000Y-88520762D02*
X142619238Y-88900000D01*
X142619238Y-88900000D02*
X143760762Y-88900000D01*
X143760762Y-88900000D02*
X143998000Y-88662762D01*
X143998000Y-86469000D02*
X143998000Y-85344000D01*
D22*
X143412000Y-85344000D02*
X143998000Y-85344000D01*
X148524998Y-77463815D02*
X148524998Y-76925000D01*
X148524998Y-90235002D02*
X148524998Y-77463815D01*
X144780000Y-93980000D02*
X148524998Y-90235002D01*
X149010001Y-77717579D02*
X149600000Y-77127580D01*
X149860000Y-93980000D02*
X149010001Y-93130001D01*
X149010001Y-93130001D02*
X149010001Y-77717579D01*
X149600000Y-76588815D02*
X149600000Y-76050000D01*
X149600000Y-77127580D02*
X149600000Y-76588815D01*
X149775000Y-91355000D02*
X149775000Y-81763815D01*
X149775000Y-81763815D02*
X149775000Y-81225000D01*
X152400000Y-93980000D02*
X149775000Y-91355000D01*
X158400000Y-84536185D02*
X158400000Y-85075000D01*
X158400000Y-79550000D02*
X158400000Y-84536185D01*
X154800000Y-75850000D02*
X154800000Y-75950000D01*
X154800000Y-75950000D02*
X158400000Y-79550000D01*
X154800000Y-75850000D02*
X154800000Y-72297000D01*
X154800000Y-72297000D02*
X154766000Y-72263000D01*
X140280999Y-65119001D02*
X139900000Y-65500000D01*
X145400000Y-60000000D02*
X140280999Y-65119001D01*
X147350000Y-60000000D02*
X145400000Y-60000000D01*
X146350000Y-75875000D02*
X146350000Y-74600000D01*
X146350000Y-74600000D02*
X146050000Y-74300000D01*
X148570000Y-71120000D02*
X148570000Y-68549211D01*
X148570000Y-68549211D02*
X148793211Y-68326000D01*
X148793211Y-68326000D02*
X149470000Y-68326000D01*
X147400000Y-67300000D02*
X147400000Y-70075000D01*
X147400000Y-70075000D02*
X148445000Y-71120000D01*
X148445000Y-71120000D02*
X148570000Y-71120000D01*
X146050000Y-74300000D02*
X147706000Y-72644000D01*
X147706000Y-72644000D02*
X149098000Y-72644000D01*
X149098000Y-72644000D02*
X149098000Y-71648000D01*
X149098000Y-71648000D02*
X148570000Y-71120000D01*
X148082000Y-70886000D02*
X148570000Y-71374000D01*
X154866000Y-70104000D02*
X154766000Y-70104000D01*
X154766000Y-70104000D02*
X154666000Y-70104000D01*
X154666000Y-70104000D02*
X152888000Y-68326000D01*
X152888000Y-68326000D02*
X150274000Y-68326000D01*
X150274000Y-68326000D02*
X149470000Y-68326000D01*
X154766000Y-72263000D02*
X154766000Y-70104000D01*
X154706000Y-72323000D02*
X154766000Y-72263000D01*
D25*
X142240000Y-93980000D02*
X142240000Y-91200000D01*
X142240000Y-91200000D02*
X141290000Y-90250000D01*
X141290000Y-90250000D02*
X139760000Y-90250000D01*
X139760000Y-90250000D02*
X139700000Y-90190000D01*
D22*
X151450000Y-77650000D02*
X151450000Y-80525000D01*
X151450000Y-80525000D02*
X157285000Y-86360000D01*
X157285000Y-86360000D02*
X161290000Y-86360000D01*
X151830999Y-77269001D02*
X151450000Y-77650000D01*
X153289000Y-75811000D02*
X151830999Y-77269001D01*
X153289000Y-71227000D02*
X153289000Y-75811000D01*
X152166000Y-70104000D02*
X153289000Y-71227000D01*
X152066000Y-70104000D02*
X152166000Y-70104000D01*
X149470000Y-68826000D02*
X150614000Y-68826000D01*
X150614000Y-68826000D02*
X150622000Y-68834000D01*
X150622000Y-68834000D02*
X150696000Y-68834000D01*
X150696000Y-68834000D02*
X151966000Y-70104000D01*
X151966000Y-70104000D02*
X152066000Y-70104000D01*
X150150000Y-77650000D02*
X150150000Y-78188815D01*
X150150000Y-78188815D02*
X150800000Y-78838815D01*
X150800000Y-78838815D02*
X150800000Y-80975000D01*
X158725000Y-88900000D02*
X161290000Y-88900000D01*
X150800000Y-80975000D02*
X158725000Y-88900000D01*
X150530999Y-77269001D02*
X150150000Y-77650000D01*
X152066000Y-75734000D02*
X150530999Y-77269001D01*
X152066000Y-72263000D02*
X152066000Y-75734000D01*
X149470000Y-69326000D02*
X149470000Y-69767000D01*
X149470000Y-69767000D02*
X151966000Y-72263000D01*
X151966000Y-72263000D02*
X152066000Y-72263000D01*
X146350000Y-78575000D02*
X146350000Y-79175000D01*
X146350000Y-79175000D02*
X147350000Y-80175000D01*
X142000004Y-77986185D02*
X142000004Y-78525000D01*
X141999998Y-77986179D02*
X142000004Y-77986185D01*
X141999998Y-71192002D02*
X141999998Y-77986179D01*
X144366000Y-68826000D02*
X141999998Y-71192002D01*
X145170000Y-68826000D02*
X144366000Y-68826000D01*
X145970000Y-65278000D02*
X145970000Y-66182000D01*
X146507411Y-66747457D02*
X146507411Y-69439181D01*
X144516791Y-69783209D02*
X142961201Y-71338799D01*
X139130000Y-83820000D02*
X138264000Y-83820000D01*
X138264000Y-83820000D02*
X137160000Y-83820000D01*
X145970000Y-66182000D02*
X146500000Y-66712000D01*
X146500000Y-66712000D02*
X146500000Y-66740046D01*
X146500000Y-66740046D02*
X146507411Y-66747457D01*
X146507411Y-69439181D02*
X146163383Y-69783209D01*
X142961201Y-71338799D02*
X142961201Y-78713799D01*
X140347762Y-82625000D02*
X140325000Y-82625000D01*
X146163383Y-69783209D02*
X144516791Y-69783209D01*
X142961201Y-78713799D02*
X141525000Y-80150000D01*
X141525000Y-80150000D02*
X141525000Y-81447762D01*
X141525000Y-81447762D02*
X140347762Y-82625000D01*
X140325000Y-82625000D02*
X139130000Y-83820000D01*
D24*
X139319000Y-84860000D02*
X138200000Y-84860000D01*
X138200000Y-84860000D02*
X137160000Y-83820000D01*
D22*
X148670000Y-65278000D02*
X148670000Y-66526000D01*
X148670000Y-66526000D02*
X149470000Y-67326000D01*
X148670000Y-63246000D02*
X148670000Y-65278000D01*
X155400006Y-58000000D02*
X155400006Y-53800006D01*
X155400006Y-53800006D02*
X154940000Y-53340000D01*
X140614400Y-78458020D02*
X141528798Y-77543622D01*
X141528798Y-77543622D02*
X141528798Y-70074609D01*
X143777407Y-67826000D02*
X144366000Y-67826000D01*
X141528798Y-70074609D02*
X143777407Y-67826000D01*
X140614400Y-80518000D02*
X140614400Y-78458020D01*
X144366000Y-67826000D02*
X145170000Y-67826000D01*
X151558000Y-65278000D02*
X151558000Y-66542000D01*
X151558000Y-66542000D02*
X150274000Y-67826000D01*
X150274000Y-67826000D02*
X149470000Y-67826000D01*
X151558000Y-63246000D02*
X151558000Y-65278000D01*
X140360400Y-76504800D02*
X140360400Y-75250800D01*
X140360400Y-75250800D02*
X140925000Y-74686200D01*
X140925000Y-74686200D02*
X140925000Y-70010407D01*
X140925000Y-70010407D02*
X143609407Y-67326000D01*
X143609407Y-67326000D02*
X144366000Y-67326000D01*
X144366000Y-67326000D02*
X145170000Y-67326000D01*
X152450004Y-85088815D02*
X152450004Y-84550000D01*
X152450004Y-91490004D02*
X152450004Y-85088815D01*
X154940000Y-93980000D02*
X152450004Y-91490004D01*
X144375000Y-75850000D02*
X144375000Y-78725000D01*
X144375000Y-78725000D02*
X143900000Y-79200000D01*
X153900000Y-58000000D02*
X153900000Y-54840000D01*
X153900000Y-54840000D02*
X152400000Y-53340000D01*
X154800000Y-78550000D02*
X152850000Y-78550000D01*
X152850000Y-78550000D02*
X152800000Y-78600000D01*
X137160000Y-81280000D02*
X138557000Y-81280000D01*
X138557000Y-81280000D02*
X139319000Y-80518000D01*
X138100000Y-69200000D02*
X138125000Y-69175000D01*
X138125000Y-69175000D02*
X138125000Y-68375000D01*
X138125000Y-68375000D02*
X145425000Y-61075000D01*
X145425000Y-61075000D02*
X152025000Y-61075000D01*
X154150000Y-63200000D02*
X154250000Y-63200000D01*
X152025000Y-61075000D02*
X154150000Y-63200000D01*
D25*
X141290000Y-85552000D02*
X141290000Y-86487000D01*
X141290000Y-86487000D02*
X141290000Y-87550000D01*
D22*
X143190000Y-87550000D02*
X143190000Y-86516000D01*
X143190000Y-86516000D02*
X143113799Y-86439799D01*
X143113799Y-86439799D02*
X141337201Y-86439799D01*
X141337201Y-86439799D02*
X141290000Y-86487000D01*
D25*
X141498000Y-85344000D02*
X141290000Y-85552000D01*
X139319000Y-87860000D02*
X140980000Y-87860000D01*
X140980000Y-87860000D02*
X141290000Y-87550000D01*
D24*
X139319000Y-87860000D02*
X138200000Y-87860000D01*
X138200000Y-87860000D02*
X137160000Y-88900000D01*
D22*
G36*
X138598750Y-92823000D02*
X139573000Y-92823000D01*
X139573000Y-92803000D01*
X139827000Y-92803000D01*
X139827000Y-92823000D01*
X139847000Y-92823000D01*
X139847000Y-93077000D01*
X139827000Y-93077000D01*
X139827000Y-94176250D01*
X139985750Y-94335000D01*
X140451310Y-94335000D01*
X140684699Y-94238327D01*
X140742560Y-94180466D01*
X140742560Y-94540000D01*
X136600000Y-94540000D01*
X136600000Y-93235750D01*
X138440000Y-93235750D01*
X138440000Y-93826309D01*
X138536673Y-94059698D01*
X138715301Y-94238327D01*
X138948690Y-94335000D01*
X139414250Y-94335000D01*
X139573000Y-94176250D01*
X139573000Y-93077000D01*
X138598750Y-93077000D01*
X138440000Y-93235750D01*
X136600000Y-93235750D01*
X136600000Y-92937440D01*
X138010000Y-92937440D01*
X138245317Y-92893162D01*
X138461441Y-92754090D01*
X138489205Y-92713455D01*
X138598750Y-92823000D01*
X138598750Y-92823000D01*
G37*
X138598750Y-92823000D02*
X139573000Y-92823000D01*
X139573000Y-92803000D01*
X139827000Y-92803000D01*
X139827000Y-92823000D01*
X139847000Y-92823000D01*
X139847000Y-93077000D01*
X139827000Y-93077000D01*
X139827000Y-94176250D01*
X139985750Y-94335000D01*
X140451310Y-94335000D01*
X140684699Y-94238327D01*
X140742560Y-94180466D01*
X140742560Y-94540000D01*
X136600000Y-94540000D01*
X136600000Y-93235750D01*
X138440000Y-93235750D01*
X138440000Y-93826309D01*
X138536673Y-94059698D01*
X138715301Y-94238327D01*
X138948690Y-94335000D01*
X139414250Y-94335000D01*
X139573000Y-94176250D01*
X139573000Y-93077000D01*
X138598750Y-93077000D01*
X138440000Y-93235750D01*
X136600000Y-93235750D01*
X136600000Y-92937440D01*
X138010000Y-92937440D01*
X138245317Y-92893162D01*
X138461441Y-92754090D01*
X138489205Y-92713455D01*
X138598750Y-92823000D01*
G36*
X158186184Y-89438815D02*
X158433395Y-89603996D01*
X158725000Y-89662000D01*
X160018382Y-89662000D01*
X160210853Y-89950054D01*
X160551553Y-90177702D01*
X160408642Y-90244817D01*
X160018355Y-90673076D01*
X159848524Y-91083110D01*
X159969845Y-91313000D01*
X161163000Y-91313000D01*
X161163000Y-91293000D01*
X161417000Y-91293000D01*
X161417000Y-91313000D01*
X161437000Y-91313000D01*
X161437000Y-91567000D01*
X161417000Y-91567000D01*
X161417000Y-91587000D01*
X161163000Y-91587000D01*
X161163000Y-91567000D01*
X159969845Y-91567000D01*
X159848524Y-91796890D01*
X160018355Y-92206924D01*
X160294501Y-92509937D01*
X160204683Y-92526838D01*
X159988559Y-92665910D01*
X159843569Y-92878110D01*
X159792560Y-93130000D01*
X159792560Y-94540000D01*
X156319396Y-94540000D01*
X156425000Y-94009093D01*
X156425000Y-93950907D01*
X156311961Y-93382622D01*
X155990054Y-92900853D01*
X155508285Y-92578946D01*
X154940000Y-92465907D01*
X154575951Y-92538321D01*
X153212004Y-91174374D01*
X153212004Y-85224918D01*
X153310825Y-85126269D01*
X153465828Y-84752982D01*
X153465858Y-84718488D01*
X158186184Y-89438815D01*
X158186184Y-89438815D01*
G37*
X158186184Y-89438815D02*
X158433395Y-89603996D01*
X158725000Y-89662000D01*
X160018382Y-89662000D01*
X160210853Y-89950054D01*
X160551553Y-90177702D01*
X160408642Y-90244817D01*
X160018355Y-90673076D01*
X159848524Y-91083110D01*
X159969845Y-91313000D01*
X161163000Y-91313000D01*
X161163000Y-91293000D01*
X161417000Y-91293000D01*
X161417000Y-91313000D01*
X161437000Y-91313000D01*
X161437000Y-91567000D01*
X161417000Y-91567000D01*
X161417000Y-91587000D01*
X161163000Y-91587000D01*
X161163000Y-91567000D01*
X159969845Y-91567000D01*
X159848524Y-91796890D01*
X160018355Y-92206924D01*
X160294501Y-92509937D01*
X160204683Y-92526838D01*
X159988559Y-92665910D01*
X159843569Y-92878110D01*
X159792560Y-93130000D01*
X159792560Y-94540000D01*
X156319396Y-94540000D01*
X156425000Y-94009093D01*
X156425000Y-93950907D01*
X156311961Y-93382622D01*
X155990054Y-92900853D01*
X155508285Y-92578946D01*
X154940000Y-92465907D01*
X154575951Y-92538321D01*
X153212004Y-91174374D01*
X153212004Y-85224918D01*
X153310825Y-85126269D01*
X153465828Y-84752982D01*
X153465858Y-84718488D01*
X158186184Y-89438815D01*
G36*
X147447000Y-93853000D02*
X147467000Y-93853000D01*
X147467000Y-94107000D01*
X147447000Y-94107000D01*
X147447000Y-94127000D01*
X147193000Y-94127000D01*
X147193000Y-94107000D01*
X147173000Y-94107000D01*
X147173000Y-93853000D01*
X147193000Y-93853000D01*
X147193000Y-93833000D01*
X147447000Y-93833000D01*
X147447000Y-93853000D01*
X147447000Y-93853000D01*
G37*
X147447000Y-93853000D02*
X147467000Y-93853000D01*
X147467000Y-94107000D01*
X147447000Y-94107000D01*
X147447000Y-94127000D01*
X147193000Y-94127000D01*
X147193000Y-94107000D01*
X147173000Y-94107000D01*
X147173000Y-93853000D01*
X147193000Y-93853000D01*
X147193000Y-93833000D01*
X147447000Y-93833000D01*
X147447000Y-93853000D01*
G36*
X145052560Y-79325000D02*
X145096838Y-79560317D01*
X145235910Y-79776441D01*
X145448110Y-79921431D01*
X145700000Y-79972440D01*
X146069810Y-79972440D01*
X146333946Y-80236576D01*
X146333824Y-80376208D01*
X146488175Y-80749766D01*
X146773731Y-81035821D01*
X147147018Y-81190824D01*
X147551208Y-81191176D01*
X147762998Y-81103666D01*
X147762998Y-89919372D01*
X145144049Y-92538321D01*
X144780000Y-92465907D01*
X144211715Y-92578946D01*
X143729946Y-92900853D01*
X143702150Y-92942452D01*
X143693162Y-92894683D01*
X143554090Y-92678559D01*
X143341890Y-92533569D01*
X143225000Y-92509898D01*
X143225000Y-91677440D01*
X143475000Y-91677440D01*
X143710317Y-91633162D01*
X143926441Y-91494090D01*
X144071431Y-91281890D01*
X144122440Y-91030000D01*
X144122440Y-89470000D01*
X144078162Y-89234683D01*
X143939090Y-89018559D01*
X143763768Y-88898767D01*
X143926441Y-88794090D01*
X144071431Y-88581890D01*
X144122440Y-88330000D01*
X144122440Y-86770000D01*
X144091205Y-86604000D01*
X144125002Y-86604000D01*
X144125002Y-86445252D01*
X144283750Y-86604000D01*
X144874309Y-86604000D01*
X145107698Y-86507327D01*
X145286327Y-86328699D01*
X145383000Y-86095310D01*
X145383000Y-85629750D01*
X145224250Y-85471000D01*
X144125000Y-85471000D01*
X144125000Y-85491000D01*
X143871000Y-85491000D01*
X143871000Y-85471000D01*
X143851000Y-85471000D01*
X143851000Y-85217000D01*
X143871000Y-85217000D01*
X143871000Y-84242750D01*
X144125000Y-84242750D01*
X144125000Y-85217000D01*
X145224250Y-85217000D01*
X145383000Y-85058250D01*
X145383000Y-84592690D01*
X145286327Y-84359301D01*
X145107698Y-84180673D01*
X144874309Y-84084000D01*
X144283750Y-84084000D01*
X144125000Y-84242750D01*
X143871000Y-84242750D01*
X143712250Y-84084000D01*
X143121691Y-84084000D01*
X142888302Y-84180673D01*
X142747064Y-84321910D01*
X142712090Y-84267559D01*
X142499890Y-84122569D01*
X142248000Y-84071560D01*
X140748000Y-84071560D01*
X140512683Y-84115838D01*
X140321993Y-84238543D01*
X140264090Y-84148559D01*
X140051890Y-84003569D01*
X140036195Y-84000391D01*
X140030827Y-83996804D01*
X140817982Y-83209649D01*
X140886577Y-83163815D01*
X142063815Y-81986577D01*
X142065540Y-81983996D01*
X142228996Y-81739367D01*
X142287000Y-81447762D01*
X142287000Y-80465630D01*
X143020541Y-79732089D01*
X143038175Y-79774766D01*
X143323731Y-80060821D01*
X143697018Y-80215824D01*
X144101208Y-80216176D01*
X144474766Y-80061825D01*
X144760821Y-79776269D01*
X144915824Y-79402982D01*
X144915948Y-79260624D01*
X145052560Y-79056169D01*
X145052560Y-79325000D01*
X145052560Y-79325000D01*
G37*
X145052560Y-79325000D02*
X145096838Y-79560317D01*
X145235910Y-79776441D01*
X145448110Y-79921431D01*
X145700000Y-79972440D01*
X146069810Y-79972440D01*
X146333946Y-80236576D01*
X146333824Y-80376208D01*
X146488175Y-80749766D01*
X146773731Y-81035821D01*
X147147018Y-81190824D01*
X147551208Y-81191176D01*
X147762998Y-81103666D01*
X147762998Y-89919372D01*
X145144049Y-92538321D01*
X144780000Y-92465907D01*
X144211715Y-92578946D01*
X143729946Y-92900853D01*
X143702150Y-92942452D01*
X143693162Y-92894683D01*
X143554090Y-92678559D01*
X143341890Y-92533569D01*
X143225000Y-92509898D01*
X143225000Y-91677440D01*
X143475000Y-91677440D01*
X143710317Y-91633162D01*
X143926441Y-91494090D01*
X144071431Y-91281890D01*
X144122440Y-91030000D01*
X144122440Y-89470000D01*
X144078162Y-89234683D01*
X143939090Y-89018559D01*
X143763768Y-88898767D01*
X143926441Y-88794090D01*
X144071431Y-88581890D01*
X144122440Y-88330000D01*
X144122440Y-86770000D01*
X144091205Y-86604000D01*
X144125002Y-86604000D01*
X144125002Y-86445252D01*
X144283750Y-86604000D01*
X144874309Y-86604000D01*
X145107698Y-86507327D01*
X145286327Y-86328699D01*
X145383000Y-86095310D01*
X145383000Y-85629750D01*
X145224250Y-85471000D01*
X144125000Y-85471000D01*
X144125000Y-85491000D01*
X143871000Y-85491000D01*
X143871000Y-85471000D01*
X143851000Y-85471000D01*
X143851000Y-85217000D01*
X143871000Y-85217000D01*
X143871000Y-84242750D01*
X144125000Y-84242750D01*
X144125000Y-85217000D01*
X145224250Y-85217000D01*
X145383000Y-85058250D01*
X145383000Y-84592690D01*
X145286327Y-84359301D01*
X145107698Y-84180673D01*
X144874309Y-84084000D01*
X144283750Y-84084000D01*
X144125000Y-84242750D01*
X143871000Y-84242750D01*
X143712250Y-84084000D01*
X143121691Y-84084000D01*
X142888302Y-84180673D01*
X142747064Y-84321910D01*
X142712090Y-84267559D01*
X142499890Y-84122569D01*
X142248000Y-84071560D01*
X140748000Y-84071560D01*
X140512683Y-84115838D01*
X140321993Y-84238543D01*
X140264090Y-84148559D01*
X140051890Y-84003569D01*
X140036195Y-84000391D01*
X140030827Y-83996804D01*
X140817982Y-83209649D01*
X140886577Y-83163815D01*
X142063815Y-81986577D01*
X142065540Y-81983996D01*
X142228996Y-81739367D01*
X142287000Y-81447762D01*
X142287000Y-80465630D01*
X143020541Y-79732089D01*
X143038175Y-79774766D01*
X143323731Y-80060821D01*
X143697018Y-80215824D01*
X144101208Y-80216176D01*
X144474766Y-80061825D01*
X144760821Y-79776269D01*
X144915824Y-79402982D01*
X144915948Y-79260624D01*
X145052560Y-79056169D01*
X145052560Y-79325000D01*
G36*
X140925000Y-91677440D02*
X141255000Y-91677440D01*
X141255000Y-92507962D01*
X141154683Y-92526838D01*
X140960000Y-92652113D01*
X140960000Y-92073691D01*
X140863327Y-91840302D01*
X140722090Y-91699064D01*
X140776441Y-91664090D01*
X140786485Y-91649390D01*
X140925000Y-91677440D01*
X140925000Y-91677440D01*
G37*
X140925000Y-91677440D02*
X141255000Y-91677440D01*
X141255000Y-92507962D01*
X141154683Y-92526838D01*
X140960000Y-92652113D01*
X140960000Y-92073691D01*
X140863327Y-91840302D01*
X140722090Y-91699064D01*
X140776441Y-91664090D01*
X140786485Y-91649390D01*
X140925000Y-91677440D01*
G36*
X145835000Y-53054250D02*
X145993750Y-53213000D01*
X147193000Y-53213000D01*
X147193000Y-53193000D01*
X147447000Y-53193000D01*
X147447000Y-53213000D01*
X148646250Y-53213000D01*
X148805000Y-53054250D01*
X148805000Y-52780000D01*
X150902560Y-52780000D01*
X150902560Y-54190000D01*
X150946838Y-54425317D01*
X151085910Y-54641441D01*
X151298110Y-54786431D01*
X151550000Y-54837440D01*
X152819809Y-54837440D01*
X153138000Y-55155631D01*
X153138000Y-57325082D01*
X153039179Y-57423731D01*
X152884176Y-57797018D01*
X152883824Y-58201208D01*
X153038175Y-58574766D01*
X153323731Y-58860821D01*
X153697018Y-59015824D01*
X154101208Y-59016176D01*
X154474766Y-58861825D01*
X154650058Y-58686839D01*
X154823737Y-58860821D01*
X155197024Y-59015824D01*
X155601214Y-59016176D01*
X155974772Y-58861825D01*
X156260827Y-58576269D01*
X156415830Y-58202982D01*
X156416182Y-57798792D01*
X156261831Y-57425234D01*
X156162006Y-57325235D01*
X156162006Y-56165750D01*
X159805000Y-56165750D01*
X159805000Y-56856310D01*
X159901673Y-57089699D01*
X160080302Y-57268327D01*
X160313691Y-57365000D01*
X161004250Y-57365000D01*
X161163000Y-57206250D01*
X161163000Y-56007000D01*
X159963750Y-56007000D01*
X159805000Y-56165750D01*
X156162006Y-56165750D01*
X156162006Y-54705205D01*
X156241441Y-54654090D01*
X156386431Y-54441890D01*
X156437440Y-54190000D01*
X156437440Y-52780000D01*
X159792560Y-52780000D01*
X159792560Y-54190000D01*
X159836838Y-54425317D01*
X159958143Y-54613831D01*
X159901673Y-54670301D01*
X159805000Y-54903690D01*
X159805000Y-55594250D01*
X159963750Y-55753000D01*
X161163000Y-55753000D01*
X161163000Y-55733000D01*
X161417000Y-55733000D01*
X161417000Y-55753000D01*
X161437000Y-55753000D01*
X161437000Y-56007000D01*
X161417000Y-56007000D01*
X161417000Y-57206250D01*
X161575750Y-57365000D01*
X161850000Y-57365000D01*
X161850000Y-72162560D01*
X160440000Y-72162560D01*
X160204683Y-72206838D01*
X159988559Y-72345910D01*
X159843569Y-72558110D01*
X159792560Y-72810000D01*
X159792560Y-74510000D01*
X159836838Y-74745317D01*
X159957015Y-74932077D01*
X159843569Y-75098110D01*
X159792560Y-75350000D01*
X159792560Y-77050000D01*
X159836838Y-77285317D01*
X159957015Y-77472077D01*
X159843569Y-77638110D01*
X159792560Y-77890000D01*
X159792560Y-79590000D01*
X159836838Y-79825317D01*
X159957015Y-80012077D01*
X159843569Y-80178110D01*
X159792560Y-80430000D01*
X159792560Y-82130000D01*
X159836838Y-82365317D01*
X159958144Y-82553831D01*
X159901673Y-82610302D01*
X159805000Y-82843691D01*
X159805000Y-83534250D01*
X159963750Y-83693000D01*
X161163000Y-83693000D01*
X161163000Y-83673000D01*
X161417000Y-83673000D01*
X161417000Y-83693000D01*
X161437000Y-83693000D01*
X161437000Y-83947000D01*
X161417000Y-83947000D01*
X161417000Y-83967000D01*
X161163000Y-83967000D01*
X161163000Y-83947000D01*
X159963750Y-83947000D01*
X159805000Y-84105750D01*
X159805000Y-84796309D01*
X159901673Y-85029698D01*
X160080301Y-85208327D01*
X160254777Y-85280597D01*
X160210853Y-85309946D01*
X160018382Y-85598000D01*
X159282940Y-85598000D01*
X159415824Y-85277982D01*
X159416176Y-84873792D01*
X159261825Y-84500234D01*
X159162000Y-84400235D01*
X159162000Y-79550000D01*
X159103996Y-79258395D01*
X158938815Y-79011185D01*
X156097440Y-76169810D01*
X156097440Y-75100000D01*
X156053162Y-74864683D01*
X155914090Y-74648559D01*
X155701890Y-74503569D01*
X155562000Y-74475241D01*
X155562000Y-73551784D01*
X155751317Y-73516162D01*
X155967441Y-73377090D01*
X156112431Y-73164890D01*
X156163440Y-72913000D01*
X156163440Y-71613000D01*
X156119162Y-71377683D01*
X155992689Y-71181138D01*
X156112431Y-71005890D01*
X156163440Y-70754000D01*
X156163440Y-69454000D01*
X156119162Y-69218683D01*
X155980090Y-69002559D01*
X155767890Y-68857569D01*
X155516000Y-68806560D01*
X154446191Y-68806560D01*
X153426815Y-67787185D01*
X153351573Y-67736910D01*
X153179605Y-67622004D01*
X152888000Y-67564000D01*
X151613631Y-67564000D01*
X152096815Y-67080816D01*
X152261996Y-66833605D01*
X152265179Y-66817604D01*
X152320000Y-66542000D01*
X152320000Y-66493677D01*
X152535317Y-66453162D01*
X152751441Y-66314090D01*
X152896431Y-66101890D01*
X152903191Y-66068510D01*
X152961673Y-66209699D01*
X153140302Y-66388327D01*
X153373691Y-66485000D01*
X153964250Y-66485000D01*
X154123000Y-66326250D01*
X154123000Y-65327000D01*
X154377000Y-65327000D01*
X154377000Y-66326250D01*
X154535750Y-66485000D01*
X155126309Y-66485000D01*
X155359698Y-66388327D01*
X155538327Y-66209699D01*
X155635000Y-65976310D01*
X155635000Y-65485750D01*
X155476250Y-65327000D01*
X154377000Y-65327000D01*
X154123000Y-65327000D01*
X154103000Y-65327000D01*
X154103000Y-65073000D01*
X154123000Y-65073000D01*
X154123000Y-65053000D01*
X154377000Y-65053000D01*
X154377000Y-65073000D01*
X155476250Y-65073000D01*
X155635000Y-64914250D01*
X155635000Y-64423690D01*
X155538327Y-64190301D01*
X155536958Y-64188932D01*
X155596431Y-64101890D01*
X155647440Y-63850000D01*
X155647440Y-62550000D01*
X155603162Y-62314683D01*
X155464090Y-62098559D01*
X155251890Y-61953569D01*
X155000000Y-61902560D01*
X153930190Y-61902560D01*
X152563815Y-60536185D01*
X152316605Y-60371004D01*
X152025000Y-60313000D01*
X148320140Y-60313000D01*
X148365824Y-60202982D01*
X148366176Y-59798792D01*
X148211825Y-59425234D01*
X147926269Y-59139179D01*
X147552982Y-58984176D01*
X147148792Y-58983824D01*
X146775234Y-59138175D01*
X146675235Y-59238000D01*
X145400000Y-59238000D01*
X145108395Y-59296004D01*
X145009377Y-59362166D01*
X144861185Y-59461184D01*
X139838424Y-64483946D01*
X139698792Y-64483824D01*
X139325234Y-64638175D01*
X139039179Y-64923731D01*
X138884176Y-65297018D01*
X138883824Y-65701208D01*
X139038175Y-66074766D01*
X139192754Y-66229616D01*
X137586185Y-67836185D01*
X137421004Y-68083395D01*
X137363000Y-68375000D01*
X137363000Y-68500126D01*
X137239179Y-68623731D01*
X137084176Y-68997018D01*
X137083824Y-69401208D01*
X137238175Y-69774766D01*
X137523731Y-70060821D01*
X137897018Y-70215824D01*
X138301208Y-70216176D01*
X138674766Y-70061825D01*
X138960821Y-69776269D01*
X139115824Y-69402982D01*
X139116176Y-68998792D01*
X138961825Y-68625234D01*
X138957115Y-68620515D01*
X144601190Y-62976440D01*
X144743750Y-63119000D01*
X145843000Y-63119000D01*
X145843000Y-62119750D01*
X145684250Y-61961000D01*
X145616630Y-61961000D01*
X145740630Y-61837000D01*
X151709370Y-61837000D01*
X151774930Y-61902560D01*
X150800000Y-61902560D01*
X150564683Y-61946838D01*
X150348559Y-62085910D01*
X150203569Y-62298110D01*
X150152560Y-62550000D01*
X150152560Y-63850000D01*
X150196838Y-64085317D01*
X150270620Y-64199978D01*
X150203569Y-64298110D01*
X150152560Y-64550000D01*
X150152560Y-65850000D01*
X150196838Y-66085317D01*
X150335910Y-66301441D01*
X150548110Y-66446431D01*
X150571252Y-66451117D01*
X150358573Y-66663797D01*
X150271890Y-66604569D01*
X150020000Y-66553560D01*
X149775190Y-66553560D01*
X149714627Y-66492997D01*
X149871441Y-66392090D01*
X150016431Y-66179890D01*
X150067440Y-65928000D01*
X150067440Y-64628000D01*
X150023162Y-64392683D01*
X149938775Y-64261543D01*
X150016431Y-64147890D01*
X150067440Y-63896000D01*
X150067440Y-62596000D01*
X150023162Y-62360683D01*
X149884090Y-62144559D01*
X149671890Y-61999569D01*
X149420000Y-61948560D01*
X147920000Y-61948560D01*
X147684683Y-61992838D01*
X147468559Y-62131910D01*
X147323569Y-62344110D01*
X147316809Y-62377490D01*
X147258327Y-62236301D01*
X147079698Y-62057673D01*
X146846309Y-61961000D01*
X146255750Y-61961000D01*
X146097000Y-62119750D01*
X146097000Y-63119000D01*
X146117000Y-63119000D01*
X146117000Y-63373000D01*
X146097000Y-63373000D01*
X146097000Y-63393000D01*
X145843000Y-63393000D01*
X145843000Y-63373000D01*
X144743750Y-63373000D01*
X144585000Y-63531750D01*
X144585000Y-64022310D01*
X144681673Y-64255699D01*
X144696032Y-64270057D01*
X144623569Y-64376110D01*
X144572560Y-64628000D01*
X144572560Y-65928000D01*
X144616838Y-66163317D01*
X144755910Y-66379441D01*
X144968110Y-66524431D01*
X145111953Y-66553560D01*
X144620000Y-66553560D01*
X144564516Y-66564000D01*
X143609407Y-66564000D01*
X143317802Y-66622004D01*
X143218784Y-66688166D01*
X143070592Y-66787184D01*
X140386185Y-69471592D01*
X140221004Y-69718802D01*
X140163000Y-70010407D01*
X140163000Y-74370570D01*
X139821585Y-74711985D01*
X139781324Y-74772239D01*
X139723477Y-74783124D01*
X139691310Y-74769800D01*
X139350750Y-74769800D01*
X139192000Y-74928550D01*
X139192000Y-76377800D01*
X139212000Y-76377800D01*
X139212000Y-76631800D01*
X139192000Y-76631800D01*
X139192000Y-78081050D01*
X139350750Y-78239800D01*
X139691310Y-78239800D01*
X139726661Y-78225157D01*
X139860400Y-78252240D01*
X139893332Y-78252240D01*
X139852400Y-78458020D01*
X139852400Y-78740065D01*
X139707278Y-78767372D01*
X139565000Y-78738560D01*
X138565000Y-78738560D01*
X138329683Y-78782838D01*
X138113559Y-78921910D01*
X137968569Y-79134110D01*
X137917560Y-79386000D01*
X137917560Y-80015069D01*
X137757378Y-79908039D01*
X137189093Y-79795000D01*
X137130907Y-79795000D01*
X136600000Y-79900604D01*
X136600000Y-77546101D01*
X136803108Y-77641486D01*
X137033000Y-77520819D01*
X137033000Y-76327000D01*
X137013000Y-76327000D01*
X137013000Y-76073000D01*
X137033000Y-76073000D01*
X137033000Y-73787000D01*
X137287000Y-73787000D01*
X137287000Y-76073000D01*
X137307000Y-76073000D01*
X137307000Y-76327000D01*
X137287000Y-76327000D01*
X137287000Y-77520819D01*
X137516892Y-77641486D01*
X137930000Y-77447480D01*
X137930000Y-77731109D01*
X138026673Y-77964498D01*
X138205301Y-78143127D01*
X138438690Y-78239800D01*
X138779250Y-78239800D01*
X138938000Y-78081050D01*
X138938000Y-76631800D01*
X138918000Y-76631800D01*
X138918000Y-76377800D01*
X138938000Y-76377800D01*
X138938000Y-74928550D01*
X138779250Y-74769800D01*
X138438690Y-74769800D01*
X138205301Y-74866473D01*
X138053564Y-75018211D01*
X138041358Y-75004817D01*
X137882046Y-74930000D01*
X138041358Y-74855183D01*
X138431645Y-74426924D01*
X138601476Y-74016890D01*
X138480155Y-73787000D01*
X137287000Y-73787000D01*
X137033000Y-73787000D01*
X137013000Y-73787000D01*
X137013000Y-73533000D01*
X137033000Y-73533000D01*
X137033000Y-72339181D01*
X137287000Y-72339181D01*
X137287000Y-73533000D01*
X138480155Y-73533000D01*
X138601476Y-73303110D01*
X138431645Y-72893076D01*
X138041358Y-72464817D01*
X137516892Y-72218514D01*
X137287000Y-72339181D01*
X137033000Y-72339181D01*
X136803108Y-72218514D01*
X136600000Y-72313899D01*
X136600000Y-53625750D01*
X145835000Y-53625750D01*
X145835000Y-54316310D01*
X145931673Y-54549699D01*
X146110302Y-54728327D01*
X146343691Y-54825000D01*
X147034250Y-54825000D01*
X147193000Y-54666250D01*
X147193000Y-53467000D01*
X147447000Y-53467000D01*
X147447000Y-54666250D01*
X147605750Y-54825000D01*
X148296309Y-54825000D01*
X148529698Y-54728327D01*
X148708327Y-54549699D01*
X148805000Y-54316310D01*
X148805000Y-53625750D01*
X148646250Y-53467000D01*
X147447000Y-53467000D01*
X147193000Y-53467000D01*
X145993750Y-53467000D01*
X145835000Y-53625750D01*
X136600000Y-53625750D01*
X136600000Y-52780000D01*
X145835000Y-52780000D01*
X145835000Y-53054250D01*
X145835000Y-53054250D01*
G37*
X145835000Y-53054250D02*
X145993750Y-53213000D01*
X147193000Y-53213000D01*
X147193000Y-53193000D01*
X147447000Y-53193000D01*
X147447000Y-53213000D01*
X148646250Y-53213000D01*
X148805000Y-53054250D01*
X148805000Y-52780000D01*
X150902560Y-52780000D01*
X150902560Y-54190000D01*
X150946838Y-54425317D01*
X151085910Y-54641441D01*
X151298110Y-54786431D01*
X151550000Y-54837440D01*
X152819809Y-54837440D01*
X153138000Y-55155631D01*
X153138000Y-57325082D01*
X153039179Y-57423731D01*
X152884176Y-57797018D01*
X152883824Y-58201208D01*
X153038175Y-58574766D01*
X153323731Y-58860821D01*
X153697018Y-59015824D01*
X154101208Y-59016176D01*
X154474766Y-58861825D01*
X154650058Y-58686839D01*
X154823737Y-58860821D01*
X155197024Y-59015824D01*
X155601214Y-59016176D01*
X155974772Y-58861825D01*
X156260827Y-58576269D01*
X156415830Y-58202982D01*
X156416182Y-57798792D01*
X156261831Y-57425234D01*
X156162006Y-57325235D01*
X156162006Y-56165750D01*
X159805000Y-56165750D01*
X159805000Y-56856310D01*
X159901673Y-57089699D01*
X160080302Y-57268327D01*
X160313691Y-57365000D01*
X161004250Y-57365000D01*
X161163000Y-57206250D01*
X161163000Y-56007000D01*
X159963750Y-56007000D01*
X159805000Y-56165750D01*
X156162006Y-56165750D01*
X156162006Y-54705205D01*
X156241441Y-54654090D01*
X156386431Y-54441890D01*
X156437440Y-54190000D01*
X156437440Y-52780000D01*
X159792560Y-52780000D01*
X159792560Y-54190000D01*
X159836838Y-54425317D01*
X159958143Y-54613831D01*
X159901673Y-54670301D01*
X159805000Y-54903690D01*
X159805000Y-55594250D01*
X159963750Y-55753000D01*
X161163000Y-55753000D01*
X161163000Y-55733000D01*
X161417000Y-55733000D01*
X161417000Y-55753000D01*
X161437000Y-55753000D01*
X161437000Y-56007000D01*
X161417000Y-56007000D01*
X161417000Y-57206250D01*
X161575750Y-57365000D01*
X161850000Y-57365000D01*
X161850000Y-72162560D01*
X160440000Y-72162560D01*
X160204683Y-72206838D01*
X159988559Y-72345910D01*
X159843569Y-72558110D01*
X159792560Y-72810000D01*
X159792560Y-74510000D01*
X159836838Y-74745317D01*
X159957015Y-74932077D01*
X159843569Y-75098110D01*
X159792560Y-75350000D01*
X159792560Y-77050000D01*
X159836838Y-77285317D01*
X159957015Y-77472077D01*
X159843569Y-77638110D01*
X159792560Y-77890000D01*
X159792560Y-79590000D01*
X159836838Y-79825317D01*
X159957015Y-80012077D01*
X159843569Y-80178110D01*
X159792560Y-80430000D01*
X159792560Y-82130000D01*
X159836838Y-82365317D01*
X159958144Y-82553831D01*
X159901673Y-82610302D01*
X159805000Y-82843691D01*
X159805000Y-83534250D01*
X159963750Y-83693000D01*
X161163000Y-83693000D01*
X161163000Y-83673000D01*
X161417000Y-83673000D01*
X161417000Y-83693000D01*
X161437000Y-83693000D01*
X161437000Y-83947000D01*
X161417000Y-83947000D01*
X161417000Y-83967000D01*
X161163000Y-83967000D01*
X161163000Y-83947000D01*
X159963750Y-83947000D01*
X159805000Y-84105750D01*
X159805000Y-84796309D01*
X159901673Y-85029698D01*
X160080301Y-85208327D01*
X160254777Y-85280597D01*
X160210853Y-85309946D01*
X160018382Y-85598000D01*
X159282940Y-85598000D01*
X159415824Y-85277982D01*
X159416176Y-84873792D01*
X159261825Y-84500234D01*
X159162000Y-84400235D01*
X159162000Y-79550000D01*
X159103996Y-79258395D01*
X158938815Y-79011185D01*
X156097440Y-76169810D01*
X156097440Y-75100000D01*
X156053162Y-74864683D01*
X155914090Y-74648559D01*
X155701890Y-74503569D01*
X155562000Y-74475241D01*
X155562000Y-73551784D01*
X155751317Y-73516162D01*
X155967441Y-73377090D01*
X156112431Y-73164890D01*
X156163440Y-72913000D01*
X156163440Y-71613000D01*
X156119162Y-71377683D01*
X155992689Y-71181138D01*
X156112431Y-71005890D01*
X156163440Y-70754000D01*
X156163440Y-69454000D01*
X156119162Y-69218683D01*
X155980090Y-69002559D01*
X155767890Y-68857569D01*
X155516000Y-68806560D01*
X154446191Y-68806560D01*
X153426815Y-67787185D01*
X153351573Y-67736910D01*
X153179605Y-67622004D01*
X152888000Y-67564000D01*
X151613631Y-67564000D01*
X152096815Y-67080816D01*
X152261996Y-66833605D01*
X152265179Y-66817604D01*
X152320000Y-66542000D01*
X152320000Y-66493677D01*
X152535317Y-66453162D01*
X152751441Y-66314090D01*
X152896431Y-66101890D01*
X152903191Y-66068510D01*
X152961673Y-66209699D01*
X153140302Y-66388327D01*
X153373691Y-66485000D01*
X153964250Y-66485000D01*
X154123000Y-66326250D01*
X154123000Y-65327000D01*
X154377000Y-65327000D01*
X154377000Y-66326250D01*
X154535750Y-66485000D01*
X155126309Y-66485000D01*
X155359698Y-66388327D01*
X155538327Y-66209699D01*
X155635000Y-65976310D01*
X155635000Y-65485750D01*
X155476250Y-65327000D01*
X154377000Y-65327000D01*
X154123000Y-65327000D01*
X154103000Y-65327000D01*
X154103000Y-65073000D01*
X154123000Y-65073000D01*
X154123000Y-65053000D01*
X154377000Y-65053000D01*
X154377000Y-65073000D01*
X155476250Y-65073000D01*
X155635000Y-64914250D01*
X155635000Y-64423690D01*
X155538327Y-64190301D01*
X155536958Y-64188932D01*
X155596431Y-64101890D01*
X155647440Y-63850000D01*
X155647440Y-62550000D01*
X155603162Y-62314683D01*
X155464090Y-62098559D01*
X155251890Y-61953569D01*
X155000000Y-61902560D01*
X153930190Y-61902560D01*
X152563815Y-60536185D01*
X152316605Y-60371004D01*
X152025000Y-60313000D01*
X148320140Y-60313000D01*
X148365824Y-60202982D01*
X148366176Y-59798792D01*
X148211825Y-59425234D01*
X147926269Y-59139179D01*
X147552982Y-58984176D01*
X147148792Y-58983824D01*
X146775234Y-59138175D01*
X146675235Y-59238000D01*
X145400000Y-59238000D01*
X145108395Y-59296004D01*
X145009377Y-59362166D01*
X144861185Y-59461184D01*
X139838424Y-64483946D01*
X139698792Y-64483824D01*
X139325234Y-64638175D01*
X139039179Y-64923731D01*
X138884176Y-65297018D01*
X138883824Y-65701208D01*
X139038175Y-66074766D01*
X139192754Y-66229616D01*
X137586185Y-67836185D01*
X137421004Y-68083395D01*
X137363000Y-68375000D01*
X137363000Y-68500126D01*
X137239179Y-68623731D01*
X137084176Y-68997018D01*
X137083824Y-69401208D01*
X137238175Y-69774766D01*
X137523731Y-70060821D01*
X137897018Y-70215824D01*
X138301208Y-70216176D01*
X138674766Y-70061825D01*
X138960821Y-69776269D01*
X139115824Y-69402982D01*
X139116176Y-68998792D01*
X138961825Y-68625234D01*
X138957115Y-68620515D01*
X144601190Y-62976440D01*
X144743750Y-63119000D01*
X145843000Y-63119000D01*
X145843000Y-62119750D01*
X145684250Y-61961000D01*
X145616630Y-61961000D01*
X145740630Y-61837000D01*
X151709370Y-61837000D01*
X151774930Y-61902560D01*
X150800000Y-61902560D01*
X150564683Y-61946838D01*
X150348559Y-62085910D01*
X150203569Y-62298110D01*
X150152560Y-62550000D01*
X150152560Y-63850000D01*
X150196838Y-64085317D01*
X150270620Y-64199978D01*
X150203569Y-64298110D01*
X150152560Y-64550000D01*
X150152560Y-65850000D01*
X150196838Y-66085317D01*
X150335910Y-66301441D01*
X150548110Y-66446431D01*
X150571252Y-66451117D01*
X150358573Y-66663797D01*
X150271890Y-66604569D01*
X150020000Y-66553560D01*
X149775190Y-66553560D01*
X149714627Y-66492997D01*
X149871441Y-66392090D01*
X150016431Y-66179890D01*
X150067440Y-65928000D01*
X150067440Y-64628000D01*
X150023162Y-64392683D01*
X149938775Y-64261543D01*
X150016431Y-64147890D01*
X150067440Y-63896000D01*
X150067440Y-62596000D01*
X150023162Y-62360683D01*
X149884090Y-62144559D01*
X149671890Y-61999569D01*
X149420000Y-61948560D01*
X147920000Y-61948560D01*
X147684683Y-61992838D01*
X147468559Y-62131910D01*
X147323569Y-62344110D01*
X147316809Y-62377490D01*
X147258327Y-62236301D01*
X147079698Y-62057673D01*
X146846309Y-61961000D01*
X146255750Y-61961000D01*
X146097000Y-62119750D01*
X146097000Y-63119000D01*
X146117000Y-63119000D01*
X146117000Y-63373000D01*
X146097000Y-63373000D01*
X146097000Y-63393000D01*
X145843000Y-63393000D01*
X145843000Y-63373000D01*
X144743750Y-63373000D01*
X144585000Y-63531750D01*
X144585000Y-64022310D01*
X144681673Y-64255699D01*
X144696032Y-64270057D01*
X144623569Y-64376110D01*
X144572560Y-64628000D01*
X144572560Y-65928000D01*
X144616838Y-66163317D01*
X144755910Y-66379441D01*
X144968110Y-66524431D01*
X145111953Y-66553560D01*
X144620000Y-66553560D01*
X144564516Y-66564000D01*
X143609407Y-66564000D01*
X143317802Y-66622004D01*
X143218784Y-66688166D01*
X143070592Y-66787184D01*
X140386185Y-69471592D01*
X140221004Y-69718802D01*
X140163000Y-70010407D01*
X140163000Y-74370570D01*
X139821585Y-74711985D01*
X139781324Y-74772239D01*
X139723477Y-74783124D01*
X139691310Y-74769800D01*
X139350750Y-74769800D01*
X139192000Y-74928550D01*
X139192000Y-76377800D01*
X139212000Y-76377800D01*
X139212000Y-76631800D01*
X139192000Y-76631800D01*
X139192000Y-78081050D01*
X139350750Y-78239800D01*
X139691310Y-78239800D01*
X139726661Y-78225157D01*
X139860400Y-78252240D01*
X139893332Y-78252240D01*
X139852400Y-78458020D01*
X139852400Y-78740065D01*
X139707278Y-78767372D01*
X139565000Y-78738560D01*
X138565000Y-78738560D01*
X138329683Y-78782838D01*
X138113559Y-78921910D01*
X137968569Y-79134110D01*
X137917560Y-79386000D01*
X137917560Y-80015069D01*
X137757378Y-79908039D01*
X137189093Y-79795000D01*
X137130907Y-79795000D01*
X136600000Y-79900604D01*
X136600000Y-77546101D01*
X136803108Y-77641486D01*
X137033000Y-77520819D01*
X137033000Y-76327000D01*
X137013000Y-76327000D01*
X137013000Y-76073000D01*
X137033000Y-76073000D01*
X137033000Y-73787000D01*
X137287000Y-73787000D01*
X137287000Y-76073000D01*
X137307000Y-76073000D01*
X137307000Y-76327000D01*
X137287000Y-76327000D01*
X137287000Y-77520819D01*
X137516892Y-77641486D01*
X137930000Y-77447480D01*
X137930000Y-77731109D01*
X138026673Y-77964498D01*
X138205301Y-78143127D01*
X138438690Y-78239800D01*
X138779250Y-78239800D01*
X138938000Y-78081050D01*
X138938000Y-76631800D01*
X138918000Y-76631800D01*
X138918000Y-76377800D01*
X138938000Y-76377800D01*
X138938000Y-74928550D01*
X138779250Y-74769800D01*
X138438690Y-74769800D01*
X138205301Y-74866473D01*
X138053564Y-75018211D01*
X138041358Y-75004817D01*
X137882046Y-74930000D01*
X138041358Y-74855183D01*
X138431645Y-74426924D01*
X138601476Y-74016890D01*
X138480155Y-73787000D01*
X137287000Y-73787000D01*
X137033000Y-73787000D01*
X137013000Y-73787000D01*
X137013000Y-73533000D01*
X137033000Y-73533000D01*
X137033000Y-72339181D01*
X137287000Y-72339181D01*
X137287000Y-73533000D01*
X138480155Y-73533000D01*
X138601476Y-73303110D01*
X138431645Y-72893076D01*
X138041358Y-72464817D01*
X137516892Y-72218514D01*
X137287000Y-72339181D01*
X137033000Y-72339181D01*
X136803108Y-72218514D01*
X136600000Y-72313899D01*
X136600000Y-53625750D01*
X145835000Y-53625750D01*
X145835000Y-54316310D01*
X145931673Y-54549699D01*
X146110302Y-54728327D01*
X146343691Y-54825000D01*
X147034250Y-54825000D01*
X147193000Y-54666250D01*
X147193000Y-53467000D01*
X147447000Y-53467000D01*
X147447000Y-54666250D01*
X147605750Y-54825000D01*
X148296309Y-54825000D01*
X148529698Y-54728327D01*
X148708327Y-54549699D01*
X148805000Y-54316310D01*
X148805000Y-53625750D01*
X148646250Y-53467000D01*
X147447000Y-53467000D01*
X147193000Y-53467000D01*
X145993750Y-53467000D01*
X145835000Y-53625750D01*
X136600000Y-53625750D01*
X136600000Y-52780000D01*
X145835000Y-52780000D01*
X145835000Y-53054250D01*
G36*
X144685000Y-70834250D02*
X144843750Y-70993000D01*
X145943000Y-70993000D01*
X145943000Y-70973000D01*
X146197000Y-70973000D01*
X146197000Y-70993000D01*
X146217000Y-70993000D01*
X146217000Y-71247000D01*
X146197000Y-71247000D01*
X146197000Y-72221250D01*
X146355750Y-72380000D01*
X146892369Y-72380000D01*
X145988424Y-73283946D01*
X145848792Y-73283824D01*
X145607694Y-73383444D01*
X145501250Y-73277000D01*
X144502000Y-73277000D01*
X144502000Y-73297000D01*
X144248000Y-73297000D01*
X144248000Y-73277000D01*
X144228000Y-73277000D01*
X144228000Y-73023000D01*
X144248000Y-73023000D01*
X144248000Y-71923750D01*
X144502000Y-71923750D01*
X144502000Y-73023000D01*
X145501250Y-73023000D01*
X145660000Y-72864250D01*
X145660000Y-72380000D01*
X145784250Y-72380000D01*
X145943000Y-72221250D01*
X145943000Y-71247000D01*
X144843750Y-71247000D01*
X144685000Y-71405750D01*
X144685000Y-71765000D01*
X144660750Y-71765000D01*
X144502000Y-71923750D01*
X144248000Y-71923750D01*
X144089250Y-71765000D01*
X143723201Y-71765000D01*
X143723201Y-71654429D01*
X144685000Y-70692631D01*
X144685000Y-70834250D01*
X144685000Y-70834250D01*
G37*
X144685000Y-70834250D02*
X144843750Y-70993000D01*
X145943000Y-70993000D01*
X145943000Y-70973000D01*
X146197000Y-70973000D01*
X146197000Y-70993000D01*
X146217000Y-70993000D01*
X146217000Y-71247000D01*
X146197000Y-71247000D01*
X146197000Y-72221250D01*
X146355750Y-72380000D01*
X146892369Y-72380000D01*
X145988424Y-73283946D01*
X145848792Y-73283824D01*
X145607694Y-73383444D01*
X145501250Y-73277000D01*
X144502000Y-73277000D01*
X144502000Y-73297000D01*
X144248000Y-73297000D01*
X144248000Y-73277000D01*
X144228000Y-73277000D01*
X144228000Y-73023000D01*
X144248000Y-73023000D01*
X144248000Y-71923750D01*
X144502000Y-71923750D01*
X144502000Y-73023000D01*
X145501250Y-73023000D01*
X145660000Y-72864250D01*
X145660000Y-72380000D01*
X145784250Y-72380000D01*
X145943000Y-72221250D01*
X145943000Y-71247000D01*
X144843750Y-71247000D01*
X144685000Y-71405750D01*
X144685000Y-71765000D01*
X144660750Y-71765000D01*
X144502000Y-71923750D01*
X144248000Y-71923750D01*
X144089250Y-71765000D01*
X143723201Y-71765000D01*
X143723201Y-71654429D01*
X144685000Y-70692631D01*
X144685000Y-70834250D01*
M02*
