G04 #@! TF.FileFunction,Copper,L1,Top,Signal*
%FSLAX46Y46*%
G04 Gerber Fmt 4.6, Leading zero omitted, Abs format (unit mm)*
G04 Created by KiCad (PCBNEW 4.0.6) date Monday, 07 August 2017 'PMt' 13:26:33*
%MOMM*%
%LPD*%
G01*
G04 APERTURE LIST*
%ADD10C,0.101600*%
%ADD11R,0.250000X1.300000*%
%ADD12R,1.300000X0.250000*%
%ADD13R,1.700000X1.700000*%
%ADD14O,1.700000X1.700000*%
%ADD15R,2.000000X1.000000*%
%ADD16R,1.500000X1.250000*%
%ADD17R,1.250000X1.500000*%
%ADD18R,1.300000X1.500000*%
%ADD19R,1.198880X1.198880*%
%ADD20R,2.200000X1.050000*%
%ADD21C,1.500000*%
%ADD22C,0.762000*%
%ADD23C,0.254000*%
%ADD24C,0.500000*%
%ADD25C,0.700000*%
%ADD26C,1.000000*%
G04 APERTURE END LIST*
D10*
D11*
X147110000Y-83090000D03*
X147610000Y-83090000D03*
X148110000Y-83090000D03*
X148610000Y-83090000D03*
X149110000Y-83090000D03*
X149610000Y-83090000D03*
X150110000Y-83090000D03*
X150610000Y-83090000D03*
X151110000Y-83090000D03*
X151610000Y-83090000D03*
X152110000Y-83090000D03*
X152610000Y-83090000D03*
D12*
X154210000Y-81490000D03*
X154210000Y-80990000D03*
X154210000Y-80490000D03*
X154210000Y-79990000D03*
X154210000Y-79490000D03*
X154210000Y-78990000D03*
X154210000Y-78490000D03*
X154210000Y-77990000D03*
X154210000Y-77490000D03*
X154210000Y-76990000D03*
X154210000Y-76490000D03*
X154210000Y-75990000D03*
D11*
X152610000Y-74390000D03*
X152110000Y-74390000D03*
X151610000Y-74390000D03*
X151110000Y-74390000D03*
X150610000Y-74390000D03*
X150110000Y-74390000D03*
X149610000Y-74390000D03*
X149110000Y-74390000D03*
X148610000Y-74390000D03*
X148110000Y-74390000D03*
X147610000Y-74390000D03*
X147110000Y-74390000D03*
D12*
X145510000Y-75990000D03*
X145510000Y-76490000D03*
X145510000Y-76990000D03*
X145510000Y-77490000D03*
X145510000Y-77990000D03*
X145510000Y-78490000D03*
X145510000Y-78990000D03*
X145510000Y-79490000D03*
X145510000Y-79990000D03*
X145510000Y-80490000D03*
X145510000Y-80990000D03*
X145510000Y-81490000D03*
D13*
X142240000Y-93980000D03*
D14*
X144780000Y-93980000D03*
X147320000Y-93980000D03*
X149860000Y-93980000D03*
X152400000Y-93980000D03*
X154940000Y-93980000D03*
D15*
X158115000Y-69850000D03*
X158115000Y-67850000D03*
X158115000Y-65850000D03*
X158115000Y-63850000D03*
X158115000Y-61850000D03*
X158115000Y-59850000D03*
X158115000Y-57850000D03*
X158115000Y-55850000D03*
X142115000Y-55850000D03*
X142115000Y-57850000D03*
X142115000Y-59850000D03*
X142115000Y-61850000D03*
X142115000Y-63850000D03*
X142115000Y-65850000D03*
X142115000Y-67850000D03*
X142115000Y-69850000D03*
D16*
X154550000Y-74200000D03*
X157050000Y-74200000D03*
X145014000Y-83058000D03*
X142514000Y-83058000D03*
D17*
X151100000Y-85325000D03*
X151100000Y-87825000D03*
D18*
X153725000Y-85175000D03*
X153725000Y-87875000D03*
D19*
X153649020Y-89750000D03*
X151550980Y-89750000D03*
D17*
X138176000Y-63734000D03*
X138176000Y-61234000D03*
X139827000Y-63734000D03*
X139827000Y-61234000D03*
D13*
X137160000Y-83820000D03*
D14*
X137160000Y-81280000D03*
D20*
X137795000Y-57355000D03*
X137795000Y-54405000D03*
D15*
X139827000Y-55880000D03*
D13*
X154940000Y-53340000D03*
X161290000Y-55880000D03*
X161290000Y-73660000D03*
X161290000Y-76200000D03*
X161290000Y-78740000D03*
X147320000Y-53340000D03*
D21*
X156275000Y-82950000D03*
X156300000Y-85050000D03*
D13*
X137160000Y-91440000D03*
D14*
X137160000Y-73660000D03*
D13*
X137160000Y-88900000D03*
D14*
X137160000Y-76200000D03*
D13*
X152400000Y-53340000D03*
D16*
X140400000Y-89900000D03*
X142900000Y-89900000D03*
D13*
X161290000Y-81280000D03*
X161290000Y-53340000D03*
X161290000Y-93980000D03*
D14*
X161290000Y-91440000D03*
X161290000Y-88900000D03*
X161290000Y-86360000D03*
D13*
X161290000Y-83820000D03*
D22*
X159150000Y-81475000D03*
X140300000Y-67600000D03*
X140825000Y-83575000D03*
X157099994Y-72500000D03*
X145499996Y-91000000D03*
X155800000Y-67800000D03*
X146050000Y-73152000D03*
X141224000Y-92202000D03*
X148524998Y-76925000D03*
X149600000Y-76050000D03*
X149775000Y-81225000D03*
X158400000Y-85075000D03*
X139900000Y-65500000D03*
X147400000Y-67300000D03*
X147350000Y-60000000D03*
X146050000Y-74300000D03*
X151450000Y-77650000D03*
X150150000Y-77650000D03*
X147350000Y-80175000D03*
X142000004Y-78525000D03*
X155400006Y-58000000D03*
X152450004Y-84550000D03*
X143900000Y-79200000D03*
X153900000Y-58000000D03*
X152800000Y-78600000D03*
X138100000Y-69200000D03*
D23*
X161290000Y-83820000D02*
X159930000Y-83820000D01*
X159930000Y-83820000D02*
X159700000Y-84050000D01*
X159700000Y-84050000D02*
X159700000Y-91425000D01*
X159700000Y-91425000D02*
X161275000Y-91425000D01*
X161275000Y-91425000D02*
X161290000Y-91440000D01*
X159150000Y-82784000D02*
X159150000Y-82013815D01*
X160186000Y-83820000D02*
X159150000Y-82784000D01*
X159150000Y-82013815D02*
X159150000Y-81475000D01*
X161290000Y-83820000D02*
X160186000Y-83820000D01*
X151100000Y-87825000D02*
X148674996Y-87825000D01*
X148674996Y-87825000D02*
X145499996Y-91000000D01*
X151550980Y-89750000D02*
X151550980Y-88275980D01*
X151550980Y-88275980D02*
X151100000Y-87825000D01*
X140480999Y-68319814D02*
X140300000Y-68138815D01*
X142514000Y-82179000D02*
X140480999Y-80145999D01*
X142514000Y-83058000D02*
X142514000Y-82179000D01*
X140480999Y-80145999D02*
X140480999Y-68319814D01*
X140300000Y-68138815D02*
X140300000Y-67600000D01*
X142514000Y-83058000D02*
X142514000Y-81711000D01*
X142514000Y-81711000D02*
X143235000Y-80990000D01*
X143235000Y-80990000D02*
X145510000Y-80990000D01*
X147320000Y-93980000D02*
X147320000Y-92545000D01*
X147320000Y-92545000D02*
X146977000Y-92202000D01*
X146977000Y-92202000D02*
X145542000Y-92202000D01*
X142115000Y-57850000D02*
X144125000Y-57850000D01*
X145000000Y-54075000D02*
X145735000Y-53340000D01*
X144125000Y-57850000D02*
X145000000Y-56975000D01*
X145000000Y-56975000D02*
X145000000Y-54075000D01*
X145735000Y-53340000D02*
X147320000Y-53340000D01*
X141205999Y-83194001D02*
X140825000Y-83575000D01*
X141342000Y-83058000D02*
X141205999Y-83194001D01*
X142514000Y-83058000D02*
X141342000Y-83058000D01*
X158115000Y-69850000D02*
X156650000Y-69850000D01*
X156650000Y-69850000D02*
X155800000Y-69000000D01*
X155800000Y-69000000D02*
X155800000Y-67800000D01*
X154210000Y-76490000D02*
X156010000Y-76490000D01*
X156010000Y-76490000D02*
X157099994Y-75400006D01*
X157099994Y-75400006D02*
X157099994Y-73038815D01*
X157099994Y-73038815D02*
X157099994Y-72500000D01*
X148850000Y-80200000D02*
X148060000Y-80990000D01*
X148060000Y-80990000D02*
X145510000Y-80990000D01*
X150225000Y-80200000D02*
X148850000Y-80200000D01*
X150610000Y-80585000D02*
X150225000Y-80200000D01*
X150610000Y-83090000D02*
X150610000Y-80585000D01*
X137160000Y-76200000D02*
X137150000Y-76190000D01*
X137150000Y-61244000D02*
X137140000Y-61234000D01*
X137150000Y-76190000D02*
X137150000Y-61244000D01*
X137140000Y-61234000D02*
X137668000Y-61234000D01*
X137668000Y-61234000D02*
X139446000Y-61234000D01*
X145542000Y-92202000D02*
X145499996Y-92159996D01*
X145499996Y-92159996D02*
X145499996Y-91538815D01*
X145499996Y-91538815D02*
X145499996Y-91000000D01*
X137795000Y-57355000D02*
X137795000Y-60853000D01*
X137795000Y-60853000D02*
X138176000Y-61234000D01*
X142115000Y-57850000D02*
X140861000Y-57850000D01*
X140861000Y-57850000D02*
X139827000Y-58884000D01*
X139827000Y-58884000D02*
X139827000Y-60230000D01*
X139827000Y-60230000D02*
X139827000Y-61234000D01*
X147276000Y-73152000D02*
X146588815Y-73152000D01*
X147610000Y-73486000D02*
X147276000Y-73152000D01*
X147610000Y-74390000D02*
X147610000Y-73486000D01*
X146588815Y-73152000D02*
X146050000Y-73152000D01*
X145542000Y-92202000D02*
X141224000Y-92202000D01*
X137795000Y-57355000D02*
X137795000Y-54405000D01*
X137668000Y-57482000D02*
X137795000Y-57355000D01*
X141826000Y-57850000D02*
X142115000Y-57850000D01*
X161290000Y-55880000D02*
X158145000Y-55880000D01*
X158145000Y-55880000D02*
X158115000Y-55850000D01*
X147589998Y-75990000D02*
X148143999Y-76544001D01*
X145510000Y-75990000D02*
X147589998Y-75990000D01*
X148143999Y-76544001D02*
X148524998Y-76925000D01*
X148110000Y-74390000D02*
X148110000Y-75294000D01*
X148110000Y-75294000D02*
X148866000Y-76050000D01*
X148866000Y-76050000D02*
X149061185Y-76050000D01*
X149061185Y-76050000D02*
X149600000Y-76050000D01*
X150110000Y-81560000D02*
X149775000Y-81225000D01*
X150110000Y-83090000D02*
X150110000Y-81560000D01*
X153725000Y-87875000D02*
X153725000Y-89674020D01*
X153725000Y-89674020D02*
X153649020Y-89750000D01*
X158019001Y-85455999D02*
X158400000Y-85075000D01*
X157480000Y-85995000D02*
X158019001Y-85455999D01*
X157480000Y-87630000D02*
X157480000Y-85995000D01*
X154210000Y-75990000D02*
X154210000Y-74540000D01*
X154210000Y-74540000D02*
X154550000Y-74200000D01*
X151110000Y-83090000D02*
X151110000Y-79042578D01*
X151110000Y-79042578D02*
X152161201Y-77991377D01*
X152161201Y-77991377D02*
X152161201Y-76313799D01*
X152161201Y-76313799D02*
X154053000Y-74422000D01*
X154053000Y-74422000D02*
X154577000Y-74422000D01*
D24*
X157480000Y-87630000D02*
X157480000Y-91520000D01*
X157480000Y-91520000D02*
X159940000Y-93980000D01*
X159940000Y-93980000D02*
X161290000Y-93980000D01*
X151100000Y-85325000D02*
X151100000Y-85450000D01*
X151100000Y-85450000D02*
X152100000Y-86450000D01*
X152100000Y-86450000D02*
X156300000Y-86450000D01*
X156300000Y-86450000D02*
X157480000Y-87630000D01*
D25*
X151100000Y-85325000D02*
X149775000Y-85325000D01*
X149775000Y-85325000D02*
X149109000Y-84659000D01*
X149109000Y-84659000D02*
X144738000Y-84659000D01*
D23*
X151100000Y-85325000D02*
X151100000Y-83100000D01*
X151100000Y-83100000D02*
X151110000Y-83090000D01*
X139827000Y-65427000D02*
X139900000Y-65500000D01*
X139827000Y-63734000D02*
X139827000Y-65427000D01*
D25*
X142240000Y-93980000D02*
X140690000Y-93980000D01*
X140690000Y-93980000D02*
X139700000Y-92990000D01*
X139700000Y-92990000D02*
X139700000Y-90700000D01*
X139700000Y-90700000D02*
X140600000Y-89800000D01*
X140600000Y-89800000D02*
X140600000Y-85400000D01*
X140600000Y-85400000D02*
X139800000Y-84600000D01*
X139800000Y-84600000D02*
X139800000Y-69000000D01*
X139800000Y-69000000D02*
X138200000Y-67400000D01*
X138200000Y-67400000D02*
X138200000Y-63758000D01*
X138200000Y-63758000D02*
X138176000Y-63734000D01*
X144738000Y-84659000D02*
X142741000Y-84659000D01*
X142741000Y-84659000D02*
X140600000Y-86800000D01*
D23*
X161290000Y-53340000D02*
X158530638Y-53340000D01*
X158530638Y-53340000D02*
X156870638Y-55000000D01*
X156870638Y-55000000D02*
X152350000Y-55000000D01*
X152350000Y-55000000D02*
X147350000Y-60000000D01*
D25*
X145014000Y-83058000D02*
X145014000Y-84383000D01*
X145014000Y-84383000D02*
X144738000Y-84659000D01*
D23*
X147350000Y-67250000D02*
X147400000Y-67300000D01*
X147350000Y-60000000D02*
X147350000Y-67250000D01*
X142115000Y-63850000D02*
X142615000Y-63850000D01*
X147110000Y-74390000D02*
X146140000Y-74390000D01*
X146140000Y-74390000D02*
X146050000Y-74300000D01*
X139827000Y-63734000D02*
X138176000Y-63734000D01*
D25*
X138176000Y-63734000D02*
X141999000Y-63734000D01*
X141999000Y-63734000D02*
X142115000Y-63850000D01*
X144780000Y-83167000D02*
X144889000Y-83058000D01*
X142240000Y-93671000D02*
X142240000Y-93980000D01*
D23*
X147110000Y-83090000D02*
X145046000Y-83090000D01*
X145046000Y-83090000D02*
X145014000Y-83058000D01*
X145014000Y-83058000D02*
X145161000Y-83058000D01*
X145161000Y-83058000D02*
X145542000Y-82677000D01*
X145542000Y-82677000D02*
X145542000Y-81522000D01*
X145542000Y-81522000D02*
X145510000Y-81490000D01*
D25*
X141615000Y-63850000D02*
X142115000Y-63850000D01*
X144889000Y-83058000D02*
X145014000Y-83058000D01*
D23*
X150110000Y-78990000D02*
X151069001Y-78030999D01*
X145510000Y-78990000D02*
X150110000Y-78990000D01*
X151069001Y-78030999D02*
X151450000Y-77650000D01*
X149310000Y-78490000D02*
X149769001Y-78030999D01*
X145510000Y-78490000D02*
X149310000Y-78490000D01*
X149769001Y-78030999D02*
X150150000Y-77650000D01*
X147350000Y-80175000D02*
X147035000Y-80490000D01*
X147035000Y-80490000D02*
X145510000Y-80490000D01*
X145510000Y-80490000D02*
X142490000Y-80490000D01*
X142490000Y-80490000D02*
X142000000Y-80000000D01*
X142000000Y-80000000D02*
X142000000Y-78525004D01*
X142000000Y-78525004D02*
X142000004Y-78525000D01*
D25*
X142115000Y-55850000D02*
X139857000Y-55850000D01*
X139857000Y-55850000D02*
X139827000Y-55880000D01*
D23*
X155114000Y-76990000D02*
X154210000Y-76990000D01*
X158615000Y-59850000D02*
X161000000Y-62235000D01*
X158115000Y-59850000D02*
X158615000Y-59850000D01*
X161000000Y-62235000D02*
X161000000Y-70850000D01*
X161000000Y-70850000D02*
X158496000Y-73354000D01*
X158496000Y-73354000D02*
X158496000Y-75819000D01*
X158496000Y-75819000D02*
X157325000Y-76990000D01*
X157325000Y-76990000D02*
X155114000Y-76990000D01*
X144347456Y-77490000D02*
X143615381Y-76757925D01*
X143615380Y-75222074D02*
X144307212Y-74530242D01*
X143615381Y-76757925D02*
X143615380Y-75222074D01*
X145510000Y-77490000D02*
X144347456Y-77490000D01*
X144307212Y-74530242D02*
X144307212Y-67542212D01*
X144307212Y-67542212D02*
X142615000Y-65850000D01*
X142615000Y-65850000D02*
X142115000Y-65850000D01*
X142115000Y-65850000D02*
X143066000Y-65850000D01*
X155400006Y-58538815D02*
X155400006Y-58000000D01*
X155400006Y-64346586D02*
X155400006Y-58538815D01*
X150110000Y-74390000D02*
X150110000Y-69636592D01*
X150110000Y-69636592D02*
X155400006Y-64346586D01*
X153100000Y-83546000D02*
X153100000Y-80696000D01*
X153100000Y-80696000D02*
X153306000Y-80490000D01*
X153306000Y-80490000D02*
X154210000Y-80490000D01*
X153725000Y-85175000D02*
X153725000Y-84171000D01*
X153725000Y-84171000D02*
X153100000Y-83546000D01*
X159453408Y-71600000D02*
X154875000Y-71600000D01*
X160457211Y-63692211D02*
X160457211Y-70596197D01*
X158615000Y-61850000D02*
X160457211Y-63692211D01*
X160457211Y-70596197D02*
X159453408Y-71600000D01*
X154875000Y-71600000D02*
X152610000Y-73865000D01*
X152610000Y-73865000D02*
X152610000Y-74390000D01*
X158115000Y-61850000D02*
X158615000Y-61850000D01*
X158115000Y-63850000D02*
X158615000Y-63850000D01*
X158615000Y-63850000D02*
X160000000Y-65235000D01*
X160000000Y-65235000D02*
X160000000Y-70400000D01*
X160000000Y-70400000D02*
X159400000Y-71000000D01*
X152110000Y-73303407D02*
X152110000Y-73486000D01*
X159400000Y-71000000D02*
X154413407Y-71000000D01*
X154413407Y-71000000D02*
X152110000Y-73303407D01*
X152110000Y-73486000D02*
X152110000Y-74390000D01*
X158115000Y-67850000D02*
X157615000Y-67850000D01*
X157615000Y-67850000D02*
X156365000Y-66600000D01*
X156365000Y-66600000D02*
X155400000Y-66600000D01*
X155400000Y-66600000D02*
X151610000Y-70390000D01*
X151610000Y-70390000D02*
X151610000Y-73486000D01*
X151610000Y-73486000D02*
X151610000Y-74390000D01*
X158115000Y-65850000D02*
X155350000Y-65850000D01*
X155350000Y-65850000D02*
X151110000Y-70090000D01*
X151110000Y-70090000D02*
X151110000Y-73486000D01*
X151110000Y-73486000D02*
X151110000Y-74390000D01*
X155114000Y-78490000D02*
X154210000Y-78490000D01*
X159757211Y-76742789D02*
X158010000Y-78490000D01*
X158010000Y-78490000D02*
X155114000Y-78490000D01*
X160186000Y-73660000D02*
X159757211Y-74088789D01*
X161290000Y-73660000D02*
X160186000Y-73660000D01*
X159757211Y-74088789D02*
X159757211Y-76742789D01*
X161290000Y-76200000D02*
X161200000Y-76200000D01*
X161200000Y-76200000D02*
X158410000Y-78990000D01*
X158410000Y-78990000D02*
X155114000Y-78990000D01*
X155114000Y-78990000D02*
X154210000Y-78990000D01*
X161290000Y-78740000D02*
X160186000Y-78740000D01*
X160186000Y-78740000D02*
X159436000Y-79490000D01*
X159436000Y-79490000D02*
X155114000Y-79490000D01*
X155114000Y-79490000D02*
X154210000Y-79490000D01*
X152610000Y-84390004D02*
X152450004Y-84550000D01*
X152610000Y-83090000D02*
X152610000Y-84390004D01*
X156275000Y-82950000D02*
X156275000Y-81889340D01*
X156275000Y-81889340D02*
X155375660Y-80990000D01*
X155375660Y-80990000D02*
X155114000Y-80990000D01*
X155114000Y-80990000D02*
X154210000Y-80990000D01*
X154210000Y-81490000D02*
X154210000Y-82960000D01*
X154210000Y-82960000D02*
X156300000Y-85050000D01*
X143900000Y-79200000D02*
X144190000Y-79490000D01*
X144190000Y-79490000D02*
X145510000Y-79490000D01*
X154210000Y-77490000D02*
X157860000Y-77490000D01*
X159200000Y-73296592D02*
X161550000Y-70946592D01*
X157860000Y-77490000D02*
X159200000Y-76150000D01*
X159200000Y-76150000D02*
X159200000Y-73296592D01*
X161550000Y-60300000D02*
X159100000Y-57850000D01*
X161550000Y-70946592D02*
X161550000Y-60300000D01*
X159100000Y-57850000D02*
X158115000Y-57850000D01*
X144529799Y-76379161D02*
X144640640Y-76490000D01*
X144529799Y-75600839D02*
X144529799Y-76379161D01*
X145221633Y-74909007D02*
X144529799Y-75600839D01*
X145221633Y-62456633D02*
X145221633Y-74909007D01*
X142615000Y-59850000D02*
X145221633Y-62456633D01*
X142115000Y-59850000D02*
X142615000Y-59850000D01*
X144640640Y-76490000D02*
X145510000Y-76490000D01*
X144764423Y-63999423D02*
X144764423Y-74719624D01*
X144764423Y-74719624D02*
X144072590Y-75411456D01*
X142615000Y-61850000D02*
X144764423Y-63999423D01*
X142115000Y-61850000D02*
X142615000Y-61850000D01*
X144072590Y-75411456D02*
X144072590Y-76568542D01*
X144072590Y-76568542D02*
X144494048Y-76990000D01*
X144494048Y-76990000D02*
X144606000Y-76990000D01*
X144606000Y-76990000D02*
X145510000Y-76990000D01*
X143850002Y-70209364D02*
X143850002Y-74340861D01*
X143158170Y-75032693D02*
X143158171Y-76947308D01*
X144200859Y-77990000D02*
X144606000Y-77990000D01*
X144606000Y-77990000D02*
X145510000Y-77990000D01*
X143850000Y-70209362D02*
X143850002Y-70209364D01*
X142615000Y-67850000D02*
X143850000Y-69085000D01*
X142115000Y-67850000D02*
X142615000Y-67850000D01*
X143850000Y-69085000D02*
X143850000Y-70209362D01*
X143850002Y-74340861D02*
X143158170Y-75032693D01*
X143158171Y-76947308D02*
X144200859Y-77990000D01*
X142115000Y-69850000D02*
X142115000Y-76715000D01*
X142115000Y-76715000D02*
X142750000Y-77350000D01*
X142750000Y-77350000D02*
X142750000Y-79275000D01*
X142750000Y-79275000D02*
X143465000Y-79990000D01*
X143465000Y-79990000D02*
X145510000Y-79990000D01*
X149610000Y-74390000D02*
X149610000Y-69090000D01*
X149610000Y-69090000D02*
X153900000Y-64800000D01*
X153900000Y-64800000D02*
X153900000Y-58000000D01*
X152800000Y-78600000D02*
X152800000Y-79484000D01*
X152800000Y-79484000D02*
X153306000Y-79990000D01*
X153306000Y-79990000D02*
X154210000Y-79990000D01*
X161290000Y-81280000D02*
X160186000Y-81280000D01*
X160186000Y-81280000D02*
X158896000Y-79990000D01*
X158896000Y-79990000D02*
X155114000Y-79990000D01*
X155114000Y-79990000D02*
X154210000Y-79990000D01*
X138700000Y-86256000D02*
X138700000Y-69800000D01*
X138700000Y-69800000D02*
X138100000Y-69200000D01*
X137160000Y-88900000D02*
X137160000Y-87796000D01*
X137160000Y-87796000D02*
X138700000Y-86256000D01*
D26*
X137160000Y-91440000D02*
X137160000Y-88900000D01*
D23*
G36*
X149078500Y-86021500D02*
X149398057Y-86235021D01*
X149775000Y-86310000D01*
X149871778Y-86310000D01*
X149871838Y-86310317D01*
X150010910Y-86526441D01*
X150079006Y-86572969D01*
X149936673Y-86715302D01*
X149840000Y-86948691D01*
X149840000Y-87539250D01*
X149998750Y-87698000D01*
X150973000Y-87698000D01*
X150973000Y-87678000D01*
X151227000Y-87678000D01*
X151227000Y-87698000D01*
X152201250Y-87698000D01*
X152360000Y-87539250D01*
X152360000Y-87335000D01*
X152427560Y-87335000D01*
X152427560Y-88578036D01*
X152360000Y-88550052D01*
X152360000Y-88110750D01*
X152201250Y-87952000D01*
X151227000Y-87952000D01*
X151227000Y-87972000D01*
X150973000Y-87972000D01*
X150973000Y-87952000D01*
X149998750Y-87952000D01*
X149840000Y-88110750D01*
X149840000Y-88701309D01*
X149936673Y-88934698D01*
X150115301Y-89113327D01*
X150316540Y-89196683D01*
X150316540Y-89464250D01*
X150475290Y-89623000D01*
X151423980Y-89623000D01*
X151423980Y-89603000D01*
X151677980Y-89603000D01*
X151677980Y-89623000D01*
X151697980Y-89623000D01*
X151697980Y-89877000D01*
X151677980Y-89877000D01*
X151677980Y-90825690D01*
X151836730Y-90984440D01*
X152276729Y-90984440D01*
X152510118Y-90887767D01*
X152592331Y-90805555D01*
X152797690Y-90945871D01*
X153049580Y-90996880D01*
X154248460Y-90996880D01*
X154483777Y-90952602D01*
X154699901Y-90813530D01*
X154844891Y-90601330D01*
X154895900Y-90349440D01*
X154895900Y-89150560D01*
X154871833Y-89022656D01*
X154971431Y-88876890D01*
X155022440Y-88625000D01*
X155022440Y-87335000D01*
X155933420Y-87335000D01*
X156595000Y-87996579D01*
X156595000Y-91519995D01*
X156594999Y-91520000D01*
X156650077Y-91796890D01*
X156662367Y-91858675D01*
X156760138Y-92005000D01*
X156854210Y-92145790D01*
X159248421Y-94540000D01*
X156319396Y-94540000D01*
X156425000Y-94009093D01*
X156425000Y-93950907D01*
X156311961Y-93382622D01*
X155990054Y-92900853D01*
X155508285Y-92578946D01*
X154940000Y-92465907D01*
X154371715Y-92578946D01*
X153889946Y-92900853D01*
X153670000Y-93230026D01*
X153450054Y-92900853D01*
X152968285Y-92578946D01*
X152400000Y-92465907D01*
X151831715Y-92578946D01*
X151349946Y-92900853D01*
X151130000Y-93230026D01*
X150910054Y-92900853D01*
X150428285Y-92578946D01*
X149860000Y-92465907D01*
X149291715Y-92578946D01*
X148809946Y-92900853D01*
X148582298Y-93241553D01*
X148515183Y-93098642D01*
X148086924Y-92708355D01*
X147676890Y-92538524D01*
X147447000Y-92659845D01*
X147447000Y-93853000D01*
X147467000Y-93853000D01*
X147467000Y-94107000D01*
X147447000Y-94107000D01*
X147447000Y-94127000D01*
X147193000Y-94127000D01*
X147193000Y-94107000D01*
X147173000Y-94107000D01*
X147173000Y-93853000D01*
X147193000Y-93853000D01*
X147193000Y-92659845D01*
X146963110Y-92538524D01*
X146553076Y-92708355D01*
X146124817Y-93098642D01*
X146057702Y-93241553D01*
X145830054Y-92900853D01*
X145348285Y-92578946D01*
X144780000Y-92465907D01*
X144211715Y-92578946D01*
X143729946Y-92900853D01*
X143702150Y-92942452D01*
X143693162Y-92894683D01*
X143554090Y-92678559D01*
X143341890Y-92533569D01*
X143090000Y-92482560D01*
X141390000Y-92482560D01*
X141154683Y-92526838D01*
X140938559Y-92665910D01*
X140869695Y-92766695D01*
X140685000Y-92582000D01*
X140685000Y-91172440D01*
X141150000Y-91172440D01*
X141385317Y-91128162D01*
X141601441Y-90989090D01*
X141647969Y-90920994D01*
X141790302Y-91063327D01*
X142023691Y-91160000D01*
X142614250Y-91160000D01*
X142773000Y-91001250D01*
X142773000Y-90027000D01*
X143027000Y-90027000D01*
X143027000Y-91001250D01*
X143185750Y-91160000D01*
X143776309Y-91160000D01*
X144009698Y-91063327D01*
X144188327Y-90884699D01*
X144285000Y-90651310D01*
X144285000Y-90185750D01*
X144135000Y-90035750D01*
X150316540Y-90035750D01*
X150316540Y-90475750D01*
X150413213Y-90709139D01*
X150591842Y-90887767D01*
X150825231Y-90984440D01*
X151265230Y-90984440D01*
X151423980Y-90825690D01*
X151423980Y-89877000D01*
X150475290Y-89877000D01*
X150316540Y-90035750D01*
X144135000Y-90035750D01*
X144126250Y-90027000D01*
X143027000Y-90027000D01*
X142773000Y-90027000D01*
X142753000Y-90027000D01*
X142753000Y-89773000D01*
X142773000Y-89773000D01*
X142773000Y-88798750D01*
X143027000Y-88798750D01*
X143027000Y-89773000D01*
X144126250Y-89773000D01*
X144285000Y-89614250D01*
X144285000Y-89148690D01*
X144188327Y-88915301D01*
X144009698Y-88736673D01*
X143776309Y-88640000D01*
X143185750Y-88640000D01*
X143027000Y-88798750D01*
X142773000Y-88798750D01*
X142614250Y-88640000D01*
X142023691Y-88640000D01*
X141790302Y-88736673D01*
X141649064Y-88877910D01*
X141614090Y-88823559D01*
X141585000Y-88803683D01*
X141585000Y-87208000D01*
X143149000Y-85644000D01*
X148701000Y-85644000D01*
X149078500Y-86021500D01*
X149078500Y-86021500D01*
G37*
X149078500Y-86021500D02*
X149398057Y-86235021D01*
X149775000Y-86310000D01*
X149871778Y-86310000D01*
X149871838Y-86310317D01*
X150010910Y-86526441D01*
X150079006Y-86572969D01*
X149936673Y-86715302D01*
X149840000Y-86948691D01*
X149840000Y-87539250D01*
X149998750Y-87698000D01*
X150973000Y-87698000D01*
X150973000Y-87678000D01*
X151227000Y-87678000D01*
X151227000Y-87698000D01*
X152201250Y-87698000D01*
X152360000Y-87539250D01*
X152360000Y-87335000D01*
X152427560Y-87335000D01*
X152427560Y-88578036D01*
X152360000Y-88550052D01*
X152360000Y-88110750D01*
X152201250Y-87952000D01*
X151227000Y-87952000D01*
X151227000Y-87972000D01*
X150973000Y-87972000D01*
X150973000Y-87952000D01*
X149998750Y-87952000D01*
X149840000Y-88110750D01*
X149840000Y-88701309D01*
X149936673Y-88934698D01*
X150115301Y-89113327D01*
X150316540Y-89196683D01*
X150316540Y-89464250D01*
X150475290Y-89623000D01*
X151423980Y-89623000D01*
X151423980Y-89603000D01*
X151677980Y-89603000D01*
X151677980Y-89623000D01*
X151697980Y-89623000D01*
X151697980Y-89877000D01*
X151677980Y-89877000D01*
X151677980Y-90825690D01*
X151836730Y-90984440D01*
X152276729Y-90984440D01*
X152510118Y-90887767D01*
X152592331Y-90805555D01*
X152797690Y-90945871D01*
X153049580Y-90996880D01*
X154248460Y-90996880D01*
X154483777Y-90952602D01*
X154699901Y-90813530D01*
X154844891Y-90601330D01*
X154895900Y-90349440D01*
X154895900Y-89150560D01*
X154871833Y-89022656D01*
X154971431Y-88876890D01*
X155022440Y-88625000D01*
X155022440Y-87335000D01*
X155933420Y-87335000D01*
X156595000Y-87996579D01*
X156595000Y-91519995D01*
X156594999Y-91520000D01*
X156650077Y-91796890D01*
X156662367Y-91858675D01*
X156760138Y-92005000D01*
X156854210Y-92145790D01*
X159248421Y-94540000D01*
X156319396Y-94540000D01*
X156425000Y-94009093D01*
X156425000Y-93950907D01*
X156311961Y-93382622D01*
X155990054Y-92900853D01*
X155508285Y-92578946D01*
X154940000Y-92465907D01*
X154371715Y-92578946D01*
X153889946Y-92900853D01*
X153670000Y-93230026D01*
X153450054Y-92900853D01*
X152968285Y-92578946D01*
X152400000Y-92465907D01*
X151831715Y-92578946D01*
X151349946Y-92900853D01*
X151130000Y-93230026D01*
X150910054Y-92900853D01*
X150428285Y-92578946D01*
X149860000Y-92465907D01*
X149291715Y-92578946D01*
X148809946Y-92900853D01*
X148582298Y-93241553D01*
X148515183Y-93098642D01*
X148086924Y-92708355D01*
X147676890Y-92538524D01*
X147447000Y-92659845D01*
X147447000Y-93853000D01*
X147467000Y-93853000D01*
X147467000Y-94107000D01*
X147447000Y-94107000D01*
X147447000Y-94127000D01*
X147193000Y-94127000D01*
X147193000Y-94107000D01*
X147173000Y-94107000D01*
X147173000Y-93853000D01*
X147193000Y-93853000D01*
X147193000Y-92659845D01*
X146963110Y-92538524D01*
X146553076Y-92708355D01*
X146124817Y-93098642D01*
X146057702Y-93241553D01*
X145830054Y-92900853D01*
X145348285Y-92578946D01*
X144780000Y-92465907D01*
X144211715Y-92578946D01*
X143729946Y-92900853D01*
X143702150Y-92942452D01*
X143693162Y-92894683D01*
X143554090Y-92678559D01*
X143341890Y-92533569D01*
X143090000Y-92482560D01*
X141390000Y-92482560D01*
X141154683Y-92526838D01*
X140938559Y-92665910D01*
X140869695Y-92766695D01*
X140685000Y-92582000D01*
X140685000Y-91172440D01*
X141150000Y-91172440D01*
X141385317Y-91128162D01*
X141601441Y-90989090D01*
X141647969Y-90920994D01*
X141790302Y-91063327D01*
X142023691Y-91160000D01*
X142614250Y-91160000D01*
X142773000Y-91001250D01*
X142773000Y-90027000D01*
X143027000Y-90027000D01*
X143027000Y-91001250D01*
X143185750Y-91160000D01*
X143776309Y-91160000D01*
X144009698Y-91063327D01*
X144188327Y-90884699D01*
X144285000Y-90651310D01*
X144285000Y-90185750D01*
X144135000Y-90035750D01*
X150316540Y-90035750D01*
X150316540Y-90475750D01*
X150413213Y-90709139D01*
X150591842Y-90887767D01*
X150825231Y-90984440D01*
X151265230Y-90984440D01*
X151423980Y-90825690D01*
X151423980Y-89877000D01*
X150475290Y-89877000D01*
X150316540Y-90035750D01*
X144135000Y-90035750D01*
X144126250Y-90027000D01*
X143027000Y-90027000D01*
X142773000Y-90027000D01*
X142753000Y-90027000D01*
X142753000Y-89773000D01*
X142773000Y-89773000D01*
X142773000Y-88798750D01*
X143027000Y-88798750D01*
X143027000Y-89773000D01*
X144126250Y-89773000D01*
X144285000Y-89614250D01*
X144285000Y-89148690D01*
X144188327Y-88915301D01*
X144009698Y-88736673D01*
X143776309Y-88640000D01*
X143185750Y-88640000D01*
X143027000Y-88798750D01*
X142773000Y-88798750D01*
X142614250Y-88640000D01*
X142023691Y-88640000D01*
X141790302Y-88736673D01*
X141649064Y-88877910D01*
X141614090Y-88823559D01*
X141585000Y-88803683D01*
X141585000Y-87208000D01*
X143149000Y-85644000D01*
X148701000Y-85644000D01*
X149078500Y-86021500D01*
G36*
X159647184Y-81818815D02*
X159792560Y-81915952D01*
X159792560Y-82130000D01*
X159836838Y-82365317D01*
X159958144Y-82553831D01*
X159901673Y-82610302D01*
X159805000Y-82843691D01*
X159805000Y-83534250D01*
X159963750Y-83693000D01*
X161163000Y-83693000D01*
X161163000Y-83673000D01*
X161417000Y-83673000D01*
X161417000Y-83693000D01*
X161437000Y-83693000D01*
X161437000Y-83947000D01*
X161417000Y-83947000D01*
X161417000Y-83967000D01*
X161163000Y-83967000D01*
X161163000Y-83947000D01*
X159963750Y-83947000D01*
X159805000Y-84105750D01*
X159805000Y-84796309D01*
X159901673Y-85029698D01*
X160080301Y-85208327D01*
X160254777Y-85280597D01*
X160210853Y-85309946D01*
X159888946Y-85791715D01*
X159775907Y-86360000D01*
X159888946Y-86928285D01*
X160210853Y-87410054D01*
X160540026Y-87630000D01*
X160210853Y-87849946D01*
X159888946Y-88331715D01*
X159775907Y-88900000D01*
X159888946Y-89468285D01*
X160210853Y-89950054D01*
X160551553Y-90177702D01*
X160408642Y-90244817D01*
X160018355Y-90673076D01*
X159848524Y-91083110D01*
X159969845Y-91313000D01*
X161163000Y-91313000D01*
X161163000Y-91293000D01*
X161417000Y-91293000D01*
X161417000Y-91313000D01*
X161437000Y-91313000D01*
X161437000Y-91567000D01*
X161417000Y-91567000D01*
X161417000Y-91587000D01*
X161163000Y-91587000D01*
X161163000Y-91567000D01*
X159969845Y-91567000D01*
X159848524Y-91796890D01*
X160018355Y-92206924D01*
X160294501Y-92509937D01*
X160204683Y-92526838D01*
X159988559Y-92665910D01*
X159943474Y-92731894D01*
X158365000Y-91153420D01*
X158365000Y-87630005D01*
X158365001Y-87630000D01*
X158306321Y-87335001D01*
X158297633Y-87291325D01*
X158242000Y-87208064D01*
X158242000Y-86310630D01*
X158461576Y-86091054D01*
X158601208Y-86091176D01*
X158974766Y-85936825D01*
X159260821Y-85651269D01*
X159415824Y-85277982D01*
X159416176Y-84873792D01*
X159261825Y-84500234D01*
X158976269Y-84214179D01*
X158602982Y-84059176D01*
X158198792Y-84058824D01*
X157825234Y-84213175D01*
X157561561Y-84476388D01*
X157474831Y-84266485D01*
X157196209Y-83987377D01*
X157448461Y-83735564D01*
X157659759Y-83226702D01*
X157660240Y-82675715D01*
X157449831Y-82166485D01*
X157060564Y-81776539D01*
X157010421Y-81755718D01*
X156978996Y-81597735D01*
X156813815Y-81350525D01*
X156215290Y-80752000D01*
X158580370Y-80752000D01*
X159647184Y-81818815D01*
X159647184Y-81818815D01*
G37*
X159647184Y-81818815D02*
X159792560Y-81915952D01*
X159792560Y-82130000D01*
X159836838Y-82365317D01*
X159958144Y-82553831D01*
X159901673Y-82610302D01*
X159805000Y-82843691D01*
X159805000Y-83534250D01*
X159963750Y-83693000D01*
X161163000Y-83693000D01*
X161163000Y-83673000D01*
X161417000Y-83673000D01*
X161417000Y-83693000D01*
X161437000Y-83693000D01*
X161437000Y-83947000D01*
X161417000Y-83947000D01*
X161417000Y-83967000D01*
X161163000Y-83967000D01*
X161163000Y-83947000D01*
X159963750Y-83947000D01*
X159805000Y-84105750D01*
X159805000Y-84796309D01*
X159901673Y-85029698D01*
X160080301Y-85208327D01*
X160254777Y-85280597D01*
X160210853Y-85309946D01*
X159888946Y-85791715D01*
X159775907Y-86360000D01*
X159888946Y-86928285D01*
X160210853Y-87410054D01*
X160540026Y-87630000D01*
X160210853Y-87849946D01*
X159888946Y-88331715D01*
X159775907Y-88900000D01*
X159888946Y-89468285D01*
X160210853Y-89950054D01*
X160551553Y-90177702D01*
X160408642Y-90244817D01*
X160018355Y-90673076D01*
X159848524Y-91083110D01*
X159969845Y-91313000D01*
X161163000Y-91313000D01*
X161163000Y-91293000D01*
X161417000Y-91293000D01*
X161417000Y-91313000D01*
X161437000Y-91313000D01*
X161437000Y-91567000D01*
X161417000Y-91567000D01*
X161417000Y-91587000D01*
X161163000Y-91587000D01*
X161163000Y-91567000D01*
X159969845Y-91567000D01*
X159848524Y-91796890D01*
X160018355Y-92206924D01*
X160294501Y-92509937D01*
X160204683Y-92526838D01*
X159988559Y-92665910D01*
X159943474Y-92731894D01*
X158365000Y-91153420D01*
X158365000Y-87630005D01*
X158365001Y-87630000D01*
X158306321Y-87335001D01*
X158297633Y-87291325D01*
X158242000Y-87208064D01*
X158242000Y-86310630D01*
X158461576Y-86091054D01*
X158601208Y-86091176D01*
X158974766Y-85936825D01*
X159260821Y-85651269D01*
X159415824Y-85277982D01*
X159416176Y-84873792D01*
X159261825Y-84500234D01*
X158976269Y-84214179D01*
X158602982Y-84059176D01*
X158198792Y-84058824D01*
X157825234Y-84213175D01*
X157561561Y-84476388D01*
X157474831Y-84266485D01*
X157196209Y-83987377D01*
X157448461Y-83735564D01*
X157659759Y-83226702D01*
X157660240Y-82675715D01*
X157449831Y-82166485D01*
X157060564Y-81776539D01*
X157010421Y-81755718D01*
X156978996Y-81597735D01*
X156813815Y-81350525D01*
X156215290Y-80752000D01*
X158580370Y-80752000D01*
X159647184Y-81818815D01*
G36*
X140863110Y-70946431D02*
X141115000Y-70997440D01*
X141353000Y-70997440D01*
X141353000Y-76715000D01*
X141411004Y-77006605D01*
X141539155Y-77198396D01*
X141576185Y-77253815D01*
X141831222Y-77508852D01*
X141798796Y-77508824D01*
X141425238Y-77663175D01*
X141139183Y-77948731D01*
X140984180Y-78322018D01*
X140983828Y-78726208D01*
X141138179Y-79099766D01*
X141238000Y-79199761D01*
X141238000Y-80000000D01*
X141296004Y-80291605D01*
X141410528Y-80463001D01*
X141461185Y-80538815D01*
X141951185Y-81028816D01*
X142098638Y-81127340D01*
X142198395Y-81193996D01*
X142490000Y-81252000D01*
X144229428Y-81252000D01*
X144233468Y-81261753D01*
X144212560Y-81365000D01*
X144212560Y-81615000D01*
X144245315Y-81789076D01*
X144028683Y-81829838D01*
X143812559Y-81968910D01*
X143766031Y-82037006D01*
X143623698Y-81894673D01*
X143390309Y-81798000D01*
X142799750Y-81798000D01*
X142641000Y-81956750D01*
X142641000Y-82931000D01*
X142661000Y-82931000D01*
X142661000Y-83185000D01*
X142641000Y-83185000D01*
X142641000Y-83205000D01*
X142387000Y-83205000D01*
X142387000Y-83185000D01*
X141287750Y-83185000D01*
X141129000Y-83343750D01*
X141129000Y-83809310D01*
X141225673Y-84042699D01*
X141404302Y-84221327D01*
X141637691Y-84318000D01*
X141689000Y-84318000D01*
X141299304Y-84707696D01*
X141296500Y-84703500D01*
X140785000Y-84192000D01*
X140785000Y-82306690D01*
X141129000Y-82306690D01*
X141129000Y-82772250D01*
X141287750Y-82931000D01*
X142387000Y-82931000D01*
X142387000Y-81956750D01*
X142228250Y-81798000D01*
X141637691Y-81798000D01*
X141404302Y-81894673D01*
X141225673Y-82073301D01*
X141129000Y-82306690D01*
X140785000Y-82306690D01*
X140785000Y-70893061D01*
X140863110Y-70946431D01*
X140863110Y-70946431D01*
G37*
X140863110Y-70946431D02*
X141115000Y-70997440D01*
X141353000Y-70997440D01*
X141353000Y-76715000D01*
X141411004Y-77006605D01*
X141539155Y-77198396D01*
X141576185Y-77253815D01*
X141831222Y-77508852D01*
X141798796Y-77508824D01*
X141425238Y-77663175D01*
X141139183Y-77948731D01*
X140984180Y-78322018D01*
X140983828Y-78726208D01*
X141138179Y-79099766D01*
X141238000Y-79199761D01*
X141238000Y-80000000D01*
X141296004Y-80291605D01*
X141410528Y-80463001D01*
X141461185Y-80538815D01*
X141951185Y-81028816D01*
X142098638Y-81127340D01*
X142198395Y-81193996D01*
X142490000Y-81252000D01*
X144229428Y-81252000D01*
X144233468Y-81261753D01*
X144212560Y-81365000D01*
X144212560Y-81615000D01*
X144245315Y-81789076D01*
X144028683Y-81829838D01*
X143812559Y-81968910D01*
X143766031Y-82037006D01*
X143623698Y-81894673D01*
X143390309Y-81798000D01*
X142799750Y-81798000D01*
X142641000Y-81956750D01*
X142641000Y-82931000D01*
X142661000Y-82931000D01*
X142661000Y-83185000D01*
X142641000Y-83185000D01*
X142641000Y-83205000D01*
X142387000Y-83205000D01*
X142387000Y-83185000D01*
X141287750Y-83185000D01*
X141129000Y-83343750D01*
X141129000Y-83809310D01*
X141225673Y-84042699D01*
X141404302Y-84221327D01*
X141637691Y-84318000D01*
X141689000Y-84318000D01*
X141299304Y-84707696D01*
X141296500Y-84703500D01*
X140785000Y-84192000D01*
X140785000Y-82306690D01*
X141129000Y-82306690D01*
X141129000Y-82772250D01*
X141287750Y-82931000D01*
X142387000Y-82931000D01*
X142387000Y-81956750D01*
X142228250Y-81798000D01*
X141637691Y-81798000D01*
X141404302Y-81894673D01*
X141225673Y-82073301D01*
X141129000Y-82306690D01*
X140785000Y-82306690D01*
X140785000Y-70893061D01*
X140863110Y-70946431D01*
G36*
X150348000Y-80362822D02*
X149977982Y-80209176D01*
X149573792Y-80208824D01*
X149200234Y-80363175D01*
X148914179Y-80648731D01*
X148759176Y-81022018D01*
X148758824Y-81426208D01*
X148913175Y-81799766D01*
X148918477Y-81805077D01*
X148855411Y-81816944D01*
X148735000Y-81792560D01*
X148485000Y-81792560D01*
X148355411Y-81816944D01*
X148235000Y-81792560D01*
X147985000Y-81792560D01*
X147855411Y-81816944D01*
X147735000Y-81792560D01*
X147485000Y-81792560D01*
X147355411Y-81816944D01*
X147235000Y-81792560D01*
X146985000Y-81792560D01*
X146763025Y-81834328D01*
X146807440Y-81615000D01*
X146807440Y-81365000D01*
X146787550Y-81259295D01*
X146790572Y-81252000D01*
X147035000Y-81252000D01*
X147326605Y-81193996D01*
X147331112Y-81190984D01*
X147551208Y-81191176D01*
X147924766Y-81036825D01*
X148210821Y-80751269D01*
X148365824Y-80377982D01*
X148366176Y-79973792D01*
X148274533Y-79752000D01*
X150110000Y-79752000D01*
X150348000Y-79704659D01*
X150348000Y-80362822D01*
X150348000Y-80362822D01*
G37*
X150348000Y-80362822D02*
X149977982Y-80209176D01*
X149573792Y-80208824D01*
X149200234Y-80363175D01*
X148914179Y-80648731D01*
X148759176Y-81022018D01*
X148758824Y-81426208D01*
X148913175Y-81799766D01*
X148918477Y-81805077D01*
X148855411Y-81816944D01*
X148735000Y-81792560D01*
X148485000Y-81792560D01*
X148355411Y-81816944D01*
X148235000Y-81792560D01*
X147985000Y-81792560D01*
X147855411Y-81816944D01*
X147735000Y-81792560D01*
X147485000Y-81792560D01*
X147355411Y-81816944D01*
X147235000Y-81792560D01*
X146985000Y-81792560D01*
X146763025Y-81834328D01*
X146807440Y-81615000D01*
X146807440Y-81365000D01*
X146787550Y-81259295D01*
X146790572Y-81252000D01*
X147035000Y-81252000D01*
X147326605Y-81193996D01*
X147331112Y-81190984D01*
X147551208Y-81191176D01*
X147924766Y-81036825D01*
X148210821Y-80751269D01*
X148365824Y-80377982D01*
X148366176Y-79973792D01*
X148274533Y-79752000D01*
X150110000Y-79752000D01*
X150348000Y-79704659D01*
X150348000Y-80362822D01*
G36*
X145835000Y-53054250D02*
X145993750Y-53213000D01*
X147193000Y-53213000D01*
X147193000Y-53193000D01*
X147447000Y-53193000D01*
X147447000Y-53213000D01*
X148646250Y-53213000D01*
X148805000Y-53054250D01*
X148805000Y-52780000D01*
X150902560Y-52780000D01*
X150902560Y-54190000D01*
X150946838Y-54425317D01*
X151085910Y-54641441D01*
X151298110Y-54786431D01*
X151454307Y-54818062D01*
X147288424Y-58983946D01*
X147148792Y-58983824D01*
X146775234Y-59138175D01*
X146489179Y-59423731D01*
X146334176Y-59797018D01*
X146333824Y-60201208D01*
X146488175Y-60574766D01*
X146588000Y-60674765D01*
X146588000Y-66674995D01*
X146539179Y-66723731D01*
X146384176Y-67097018D01*
X146383824Y-67501208D01*
X146538175Y-67874766D01*
X146823731Y-68160821D01*
X147197018Y-68315824D01*
X147601208Y-68316176D01*
X147974766Y-68161825D01*
X148260821Y-67876269D01*
X148415824Y-67502982D01*
X148416176Y-67098792D01*
X148261825Y-66725234D01*
X148112000Y-66575147D01*
X148112000Y-60674918D01*
X148210821Y-60576269D01*
X148365824Y-60202982D01*
X148365947Y-60061683D01*
X152665631Y-55762000D01*
X156870638Y-55762000D01*
X157066704Y-55723000D01*
X157988000Y-55723000D01*
X157988000Y-55703000D01*
X158242000Y-55703000D01*
X158242000Y-55723000D01*
X159591250Y-55723000D01*
X159750000Y-55564250D01*
X159750000Y-55223690D01*
X159653327Y-54990301D01*
X159474698Y-54811673D01*
X159241309Y-54715000D01*
X158400750Y-54715000D01*
X158242002Y-54873748D01*
X158242002Y-54715000D01*
X158233268Y-54715000D01*
X158846269Y-54102000D01*
X159792560Y-54102000D01*
X159792560Y-54190000D01*
X159836838Y-54425317D01*
X159958143Y-54613831D01*
X159901673Y-54670301D01*
X159805000Y-54903690D01*
X159805000Y-55594250D01*
X159963750Y-55753000D01*
X161163000Y-55753000D01*
X161163000Y-55733000D01*
X161417000Y-55733000D01*
X161417000Y-55753000D01*
X161437000Y-55753000D01*
X161437000Y-56007000D01*
X161417000Y-56007000D01*
X161417000Y-57206250D01*
X161575750Y-57365000D01*
X161850000Y-57365000D01*
X161850000Y-59522369D01*
X159762440Y-57434810D01*
X159762440Y-57350000D01*
X159718162Y-57114683D01*
X159579090Y-56898559D01*
X159510994Y-56852031D01*
X159653327Y-56709699D01*
X159750000Y-56476310D01*
X159750000Y-56165750D01*
X159805000Y-56165750D01*
X159805000Y-56856310D01*
X159901673Y-57089699D01*
X160080302Y-57268327D01*
X160313691Y-57365000D01*
X161004250Y-57365000D01*
X161163000Y-57206250D01*
X161163000Y-56007000D01*
X159963750Y-56007000D01*
X159805000Y-56165750D01*
X159750000Y-56165750D01*
X159750000Y-56135750D01*
X159591250Y-55977000D01*
X158242000Y-55977000D01*
X158242000Y-55997000D01*
X157988000Y-55997000D01*
X157988000Y-55977000D01*
X156638750Y-55977000D01*
X156480000Y-56135750D01*
X156480000Y-56476310D01*
X156576673Y-56709699D01*
X156717911Y-56850936D01*
X156663559Y-56885910D01*
X156518569Y-57098110D01*
X156467560Y-57350000D01*
X156467560Y-58350000D01*
X156511838Y-58585317D01*
X156650910Y-58801441D01*
X156720711Y-58849134D01*
X156663559Y-58885910D01*
X156518569Y-59098110D01*
X156467560Y-59350000D01*
X156467560Y-60350000D01*
X156511838Y-60585317D01*
X156650910Y-60801441D01*
X156720711Y-60849134D01*
X156663559Y-60885910D01*
X156518569Y-61098110D01*
X156467560Y-61350000D01*
X156467560Y-62350000D01*
X156511838Y-62585317D01*
X156650910Y-62801441D01*
X156720711Y-62849134D01*
X156663559Y-62885910D01*
X156518569Y-63098110D01*
X156467560Y-63350000D01*
X156467560Y-64350000D01*
X156511838Y-64585317D01*
X156650910Y-64801441D01*
X156720711Y-64849134D01*
X156663559Y-64885910D01*
X156525477Y-65088000D01*
X155736223Y-65088000D01*
X155938821Y-64885402D01*
X156104002Y-64638191D01*
X156120749Y-64553996D01*
X156162006Y-64346586D01*
X156162006Y-58674918D01*
X156260827Y-58576269D01*
X156415830Y-58202982D01*
X156416182Y-57798792D01*
X156261831Y-57425234D01*
X155976275Y-57139179D01*
X155602988Y-56984176D01*
X155198798Y-56983824D01*
X154825240Y-57138175D01*
X154649948Y-57313161D01*
X154476269Y-57139179D01*
X154102982Y-56984176D01*
X153698792Y-56983824D01*
X153325234Y-57138175D01*
X153039179Y-57423731D01*
X152884176Y-57797018D01*
X152883824Y-58201208D01*
X153038175Y-58574766D01*
X153138000Y-58674765D01*
X153138000Y-64484370D01*
X149071185Y-68551185D01*
X148906004Y-68798395D01*
X148848000Y-69090000D01*
X148848000Y-73115443D01*
X148735000Y-73092560D01*
X148485000Y-73092560D01*
X148355411Y-73116944D01*
X148235000Y-73092560D01*
X147985000Y-73092560D01*
X147879295Y-73112450D01*
X147861310Y-73105000D01*
X147831250Y-73105000D01*
X147810938Y-73125312D01*
X147749683Y-73136838D01*
X147609273Y-73227190D01*
X147486890Y-73143569D01*
X147412192Y-73128442D01*
X147388750Y-73105000D01*
X147358690Y-73105000D01*
X147338247Y-73113468D01*
X147235000Y-73092560D01*
X146985000Y-73092560D01*
X146749683Y-73136838D01*
X146533559Y-73275910D01*
X146467148Y-73373106D01*
X146252982Y-73284176D01*
X145983633Y-73283941D01*
X145983633Y-62456633D01*
X145925629Y-62165028D01*
X145859467Y-62066010D01*
X145760449Y-61917818D01*
X143762440Y-59919810D01*
X143762440Y-59350000D01*
X143718162Y-59114683D01*
X143579090Y-58898559D01*
X143510994Y-58852031D01*
X143653327Y-58709699D01*
X143750000Y-58476310D01*
X143750000Y-58135750D01*
X143591250Y-57977000D01*
X142242000Y-57977000D01*
X142242000Y-57997000D01*
X141988000Y-57997000D01*
X141988000Y-57977000D01*
X140638750Y-57977000D01*
X140480000Y-58135750D01*
X140480000Y-58476310D01*
X140576673Y-58709699D01*
X140717911Y-58850936D01*
X140663559Y-58885910D01*
X140518569Y-59098110D01*
X140467560Y-59350000D01*
X140467560Y-59849000D01*
X140112750Y-59849000D01*
X139954000Y-60007750D01*
X139954000Y-61107000D01*
X139974000Y-61107000D01*
X139974000Y-61361000D01*
X139954000Y-61361000D01*
X139954000Y-61381000D01*
X139700000Y-61381000D01*
X139700000Y-61361000D01*
X138303000Y-61361000D01*
X138303000Y-61381000D01*
X138049000Y-61381000D01*
X138049000Y-61361000D01*
X137074750Y-61361000D01*
X136916000Y-61519750D01*
X136916000Y-62110309D01*
X137012673Y-62343698D01*
X137153910Y-62484936D01*
X137099559Y-62519910D01*
X136954569Y-62732110D01*
X136903560Y-62984000D01*
X136903560Y-64484000D01*
X136947838Y-64719317D01*
X137086910Y-64935441D01*
X137215000Y-65022961D01*
X137215000Y-67400000D01*
X137289979Y-67776943D01*
X137503500Y-68096500D01*
X137680868Y-68273868D01*
X137525234Y-68338175D01*
X137239179Y-68623731D01*
X137084176Y-68997018D01*
X137083824Y-69401208D01*
X137238175Y-69774766D01*
X137523731Y-70060821D01*
X137897018Y-70215824D01*
X137938000Y-70215860D01*
X137938000Y-72416277D01*
X137516892Y-72218514D01*
X137287000Y-72339181D01*
X137287000Y-73533000D01*
X137307000Y-73533000D01*
X137307000Y-73787000D01*
X137287000Y-73787000D01*
X137287000Y-76073000D01*
X137307000Y-76073000D01*
X137307000Y-76327000D01*
X137287000Y-76327000D01*
X137287000Y-77520819D01*
X137516892Y-77641486D01*
X137938000Y-77443723D01*
X137938000Y-80028726D01*
X137757378Y-79908039D01*
X137189093Y-79795000D01*
X137130907Y-79795000D01*
X136600000Y-79900604D01*
X136600000Y-77546101D01*
X136803108Y-77641486D01*
X137033000Y-77520819D01*
X137033000Y-76327000D01*
X137013000Y-76327000D01*
X137013000Y-76073000D01*
X137033000Y-76073000D01*
X137033000Y-73787000D01*
X137013000Y-73787000D01*
X137013000Y-73533000D01*
X137033000Y-73533000D01*
X137033000Y-72339181D01*
X136803108Y-72218514D01*
X136600000Y-72313899D01*
X136600000Y-60357691D01*
X136916000Y-60357691D01*
X136916000Y-60948250D01*
X137074750Y-61107000D01*
X138049000Y-61107000D01*
X138049000Y-60007750D01*
X138303000Y-60007750D01*
X138303000Y-61107000D01*
X139700000Y-61107000D01*
X139700000Y-60007750D01*
X139541250Y-59849000D01*
X139075690Y-59849000D01*
X139001500Y-59879731D01*
X138927310Y-59849000D01*
X138461750Y-59849000D01*
X138303000Y-60007750D01*
X138049000Y-60007750D01*
X137890250Y-59849000D01*
X137424690Y-59849000D01*
X137191301Y-59945673D01*
X137012673Y-60124302D01*
X136916000Y-60357691D01*
X136600000Y-60357691D01*
X136600000Y-58515000D01*
X137509250Y-58515000D01*
X137668000Y-58356250D01*
X137668000Y-57482000D01*
X137922000Y-57482000D01*
X137922000Y-58356250D01*
X138080750Y-58515000D01*
X139021310Y-58515000D01*
X139254699Y-58418327D01*
X139433327Y-58239698D01*
X139530000Y-58006309D01*
X139530000Y-57640750D01*
X139371250Y-57482000D01*
X137922000Y-57482000D01*
X137668000Y-57482000D01*
X137648000Y-57482000D01*
X137648000Y-57228000D01*
X137668000Y-57228000D01*
X137668000Y-56353750D01*
X137509250Y-56195000D01*
X136600000Y-56195000D01*
X136600000Y-55565000D01*
X137509250Y-55565000D01*
X137668000Y-55406250D01*
X137668000Y-54532000D01*
X137922000Y-54532000D01*
X137922000Y-55406250D01*
X138080750Y-55565000D01*
X138179560Y-55565000D01*
X138179560Y-56195000D01*
X138080750Y-56195000D01*
X137922000Y-56353750D01*
X137922000Y-57228000D01*
X139371250Y-57228000D01*
X139530000Y-57069250D01*
X139530000Y-57027440D01*
X140561290Y-57027440D01*
X140480000Y-57223690D01*
X140480000Y-57564250D01*
X140638750Y-57723000D01*
X141988000Y-57723000D01*
X141988000Y-57703000D01*
X142242000Y-57703000D01*
X142242000Y-57723000D01*
X143591250Y-57723000D01*
X143750000Y-57564250D01*
X143750000Y-57223690D01*
X143653327Y-56990301D01*
X143512089Y-56849064D01*
X143566441Y-56814090D01*
X143711431Y-56601890D01*
X143762440Y-56350000D01*
X143762440Y-55350000D01*
X143718162Y-55114683D01*
X143579090Y-54898559D01*
X143366890Y-54753569D01*
X143115000Y-54702560D01*
X141115000Y-54702560D01*
X140888922Y-54745100D01*
X140827000Y-54732560D01*
X139530000Y-54732560D01*
X139530000Y-54690750D01*
X139371250Y-54532000D01*
X137922000Y-54532000D01*
X137668000Y-54532000D01*
X137648000Y-54532000D01*
X137648000Y-54278000D01*
X137668000Y-54278000D01*
X137668000Y-53403750D01*
X137922000Y-53403750D01*
X137922000Y-54278000D01*
X139371250Y-54278000D01*
X139530000Y-54119250D01*
X139530000Y-53753691D01*
X139477006Y-53625750D01*
X145835000Y-53625750D01*
X145835000Y-54316310D01*
X145931673Y-54549699D01*
X146110302Y-54728327D01*
X146343691Y-54825000D01*
X147034250Y-54825000D01*
X147193000Y-54666250D01*
X147193000Y-53467000D01*
X147447000Y-53467000D01*
X147447000Y-54666250D01*
X147605750Y-54825000D01*
X148296309Y-54825000D01*
X148529698Y-54728327D01*
X148708327Y-54549699D01*
X148805000Y-54316310D01*
X148805000Y-53625750D01*
X148646250Y-53467000D01*
X147447000Y-53467000D01*
X147193000Y-53467000D01*
X145993750Y-53467000D01*
X145835000Y-53625750D01*
X139477006Y-53625750D01*
X139433327Y-53520302D01*
X139254699Y-53341673D01*
X139021310Y-53245000D01*
X138080750Y-53245000D01*
X137922000Y-53403750D01*
X137668000Y-53403750D01*
X137509250Y-53245000D01*
X136600000Y-53245000D01*
X136600000Y-52780000D01*
X145835000Y-52780000D01*
X145835000Y-53054250D01*
X145835000Y-53054250D01*
G37*
X145835000Y-53054250D02*
X145993750Y-53213000D01*
X147193000Y-53213000D01*
X147193000Y-53193000D01*
X147447000Y-53193000D01*
X147447000Y-53213000D01*
X148646250Y-53213000D01*
X148805000Y-53054250D01*
X148805000Y-52780000D01*
X150902560Y-52780000D01*
X150902560Y-54190000D01*
X150946838Y-54425317D01*
X151085910Y-54641441D01*
X151298110Y-54786431D01*
X151454307Y-54818062D01*
X147288424Y-58983946D01*
X147148792Y-58983824D01*
X146775234Y-59138175D01*
X146489179Y-59423731D01*
X146334176Y-59797018D01*
X146333824Y-60201208D01*
X146488175Y-60574766D01*
X146588000Y-60674765D01*
X146588000Y-66674995D01*
X146539179Y-66723731D01*
X146384176Y-67097018D01*
X146383824Y-67501208D01*
X146538175Y-67874766D01*
X146823731Y-68160821D01*
X147197018Y-68315824D01*
X147601208Y-68316176D01*
X147974766Y-68161825D01*
X148260821Y-67876269D01*
X148415824Y-67502982D01*
X148416176Y-67098792D01*
X148261825Y-66725234D01*
X148112000Y-66575147D01*
X148112000Y-60674918D01*
X148210821Y-60576269D01*
X148365824Y-60202982D01*
X148365947Y-60061683D01*
X152665631Y-55762000D01*
X156870638Y-55762000D01*
X157066704Y-55723000D01*
X157988000Y-55723000D01*
X157988000Y-55703000D01*
X158242000Y-55703000D01*
X158242000Y-55723000D01*
X159591250Y-55723000D01*
X159750000Y-55564250D01*
X159750000Y-55223690D01*
X159653327Y-54990301D01*
X159474698Y-54811673D01*
X159241309Y-54715000D01*
X158400750Y-54715000D01*
X158242002Y-54873748D01*
X158242002Y-54715000D01*
X158233268Y-54715000D01*
X158846269Y-54102000D01*
X159792560Y-54102000D01*
X159792560Y-54190000D01*
X159836838Y-54425317D01*
X159958143Y-54613831D01*
X159901673Y-54670301D01*
X159805000Y-54903690D01*
X159805000Y-55594250D01*
X159963750Y-55753000D01*
X161163000Y-55753000D01*
X161163000Y-55733000D01*
X161417000Y-55733000D01*
X161417000Y-55753000D01*
X161437000Y-55753000D01*
X161437000Y-56007000D01*
X161417000Y-56007000D01*
X161417000Y-57206250D01*
X161575750Y-57365000D01*
X161850000Y-57365000D01*
X161850000Y-59522369D01*
X159762440Y-57434810D01*
X159762440Y-57350000D01*
X159718162Y-57114683D01*
X159579090Y-56898559D01*
X159510994Y-56852031D01*
X159653327Y-56709699D01*
X159750000Y-56476310D01*
X159750000Y-56165750D01*
X159805000Y-56165750D01*
X159805000Y-56856310D01*
X159901673Y-57089699D01*
X160080302Y-57268327D01*
X160313691Y-57365000D01*
X161004250Y-57365000D01*
X161163000Y-57206250D01*
X161163000Y-56007000D01*
X159963750Y-56007000D01*
X159805000Y-56165750D01*
X159750000Y-56165750D01*
X159750000Y-56135750D01*
X159591250Y-55977000D01*
X158242000Y-55977000D01*
X158242000Y-55997000D01*
X157988000Y-55997000D01*
X157988000Y-55977000D01*
X156638750Y-55977000D01*
X156480000Y-56135750D01*
X156480000Y-56476310D01*
X156576673Y-56709699D01*
X156717911Y-56850936D01*
X156663559Y-56885910D01*
X156518569Y-57098110D01*
X156467560Y-57350000D01*
X156467560Y-58350000D01*
X156511838Y-58585317D01*
X156650910Y-58801441D01*
X156720711Y-58849134D01*
X156663559Y-58885910D01*
X156518569Y-59098110D01*
X156467560Y-59350000D01*
X156467560Y-60350000D01*
X156511838Y-60585317D01*
X156650910Y-60801441D01*
X156720711Y-60849134D01*
X156663559Y-60885910D01*
X156518569Y-61098110D01*
X156467560Y-61350000D01*
X156467560Y-62350000D01*
X156511838Y-62585317D01*
X156650910Y-62801441D01*
X156720711Y-62849134D01*
X156663559Y-62885910D01*
X156518569Y-63098110D01*
X156467560Y-63350000D01*
X156467560Y-64350000D01*
X156511838Y-64585317D01*
X156650910Y-64801441D01*
X156720711Y-64849134D01*
X156663559Y-64885910D01*
X156525477Y-65088000D01*
X155736223Y-65088000D01*
X155938821Y-64885402D01*
X156104002Y-64638191D01*
X156120749Y-64553996D01*
X156162006Y-64346586D01*
X156162006Y-58674918D01*
X156260827Y-58576269D01*
X156415830Y-58202982D01*
X156416182Y-57798792D01*
X156261831Y-57425234D01*
X155976275Y-57139179D01*
X155602988Y-56984176D01*
X155198798Y-56983824D01*
X154825240Y-57138175D01*
X154649948Y-57313161D01*
X154476269Y-57139179D01*
X154102982Y-56984176D01*
X153698792Y-56983824D01*
X153325234Y-57138175D01*
X153039179Y-57423731D01*
X152884176Y-57797018D01*
X152883824Y-58201208D01*
X153038175Y-58574766D01*
X153138000Y-58674765D01*
X153138000Y-64484370D01*
X149071185Y-68551185D01*
X148906004Y-68798395D01*
X148848000Y-69090000D01*
X148848000Y-73115443D01*
X148735000Y-73092560D01*
X148485000Y-73092560D01*
X148355411Y-73116944D01*
X148235000Y-73092560D01*
X147985000Y-73092560D01*
X147879295Y-73112450D01*
X147861310Y-73105000D01*
X147831250Y-73105000D01*
X147810938Y-73125312D01*
X147749683Y-73136838D01*
X147609273Y-73227190D01*
X147486890Y-73143569D01*
X147412192Y-73128442D01*
X147388750Y-73105000D01*
X147358690Y-73105000D01*
X147338247Y-73113468D01*
X147235000Y-73092560D01*
X146985000Y-73092560D01*
X146749683Y-73136838D01*
X146533559Y-73275910D01*
X146467148Y-73373106D01*
X146252982Y-73284176D01*
X145983633Y-73283941D01*
X145983633Y-62456633D01*
X145925629Y-62165028D01*
X145859467Y-62066010D01*
X145760449Y-61917818D01*
X143762440Y-59919810D01*
X143762440Y-59350000D01*
X143718162Y-59114683D01*
X143579090Y-58898559D01*
X143510994Y-58852031D01*
X143653327Y-58709699D01*
X143750000Y-58476310D01*
X143750000Y-58135750D01*
X143591250Y-57977000D01*
X142242000Y-57977000D01*
X142242000Y-57997000D01*
X141988000Y-57997000D01*
X141988000Y-57977000D01*
X140638750Y-57977000D01*
X140480000Y-58135750D01*
X140480000Y-58476310D01*
X140576673Y-58709699D01*
X140717911Y-58850936D01*
X140663559Y-58885910D01*
X140518569Y-59098110D01*
X140467560Y-59350000D01*
X140467560Y-59849000D01*
X140112750Y-59849000D01*
X139954000Y-60007750D01*
X139954000Y-61107000D01*
X139974000Y-61107000D01*
X139974000Y-61361000D01*
X139954000Y-61361000D01*
X139954000Y-61381000D01*
X139700000Y-61381000D01*
X139700000Y-61361000D01*
X138303000Y-61361000D01*
X138303000Y-61381000D01*
X138049000Y-61381000D01*
X138049000Y-61361000D01*
X137074750Y-61361000D01*
X136916000Y-61519750D01*
X136916000Y-62110309D01*
X137012673Y-62343698D01*
X137153910Y-62484936D01*
X137099559Y-62519910D01*
X136954569Y-62732110D01*
X136903560Y-62984000D01*
X136903560Y-64484000D01*
X136947838Y-64719317D01*
X137086910Y-64935441D01*
X137215000Y-65022961D01*
X137215000Y-67400000D01*
X137289979Y-67776943D01*
X137503500Y-68096500D01*
X137680868Y-68273868D01*
X137525234Y-68338175D01*
X137239179Y-68623731D01*
X137084176Y-68997018D01*
X137083824Y-69401208D01*
X137238175Y-69774766D01*
X137523731Y-70060821D01*
X137897018Y-70215824D01*
X137938000Y-70215860D01*
X137938000Y-72416277D01*
X137516892Y-72218514D01*
X137287000Y-72339181D01*
X137287000Y-73533000D01*
X137307000Y-73533000D01*
X137307000Y-73787000D01*
X137287000Y-73787000D01*
X137287000Y-76073000D01*
X137307000Y-76073000D01*
X137307000Y-76327000D01*
X137287000Y-76327000D01*
X137287000Y-77520819D01*
X137516892Y-77641486D01*
X137938000Y-77443723D01*
X137938000Y-80028726D01*
X137757378Y-79908039D01*
X137189093Y-79795000D01*
X137130907Y-79795000D01*
X136600000Y-79900604D01*
X136600000Y-77546101D01*
X136803108Y-77641486D01*
X137033000Y-77520819D01*
X137033000Y-76327000D01*
X137013000Y-76327000D01*
X137013000Y-76073000D01*
X137033000Y-76073000D01*
X137033000Y-73787000D01*
X137013000Y-73787000D01*
X137013000Y-73533000D01*
X137033000Y-73533000D01*
X137033000Y-72339181D01*
X136803108Y-72218514D01*
X136600000Y-72313899D01*
X136600000Y-60357691D01*
X136916000Y-60357691D01*
X136916000Y-60948250D01*
X137074750Y-61107000D01*
X138049000Y-61107000D01*
X138049000Y-60007750D01*
X138303000Y-60007750D01*
X138303000Y-61107000D01*
X139700000Y-61107000D01*
X139700000Y-60007750D01*
X139541250Y-59849000D01*
X139075690Y-59849000D01*
X139001500Y-59879731D01*
X138927310Y-59849000D01*
X138461750Y-59849000D01*
X138303000Y-60007750D01*
X138049000Y-60007750D01*
X137890250Y-59849000D01*
X137424690Y-59849000D01*
X137191301Y-59945673D01*
X137012673Y-60124302D01*
X136916000Y-60357691D01*
X136600000Y-60357691D01*
X136600000Y-58515000D01*
X137509250Y-58515000D01*
X137668000Y-58356250D01*
X137668000Y-57482000D01*
X137922000Y-57482000D01*
X137922000Y-58356250D01*
X138080750Y-58515000D01*
X139021310Y-58515000D01*
X139254699Y-58418327D01*
X139433327Y-58239698D01*
X139530000Y-58006309D01*
X139530000Y-57640750D01*
X139371250Y-57482000D01*
X137922000Y-57482000D01*
X137668000Y-57482000D01*
X137648000Y-57482000D01*
X137648000Y-57228000D01*
X137668000Y-57228000D01*
X137668000Y-56353750D01*
X137509250Y-56195000D01*
X136600000Y-56195000D01*
X136600000Y-55565000D01*
X137509250Y-55565000D01*
X137668000Y-55406250D01*
X137668000Y-54532000D01*
X137922000Y-54532000D01*
X137922000Y-55406250D01*
X138080750Y-55565000D01*
X138179560Y-55565000D01*
X138179560Y-56195000D01*
X138080750Y-56195000D01*
X137922000Y-56353750D01*
X137922000Y-57228000D01*
X139371250Y-57228000D01*
X139530000Y-57069250D01*
X139530000Y-57027440D01*
X140561290Y-57027440D01*
X140480000Y-57223690D01*
X140480000Y-57564250D01*
X140638750Y-57723000D01*
X141988000Y-57723000D01*
X141988000Y-57703000D01*
X142242000Y-57703000D01*
X142242000Y-57723000D01*
X143591250Y-57723000D01*
X143750000Y-57564250D01*
X143750000Y-57223690D01*
X143653327Y-56990301D01*
X143512089Y-56849064D01*
X143566441Y-56814090D01*
X143711431Y-56601890D01*
X143762440Y-56350000D01*
X143762440Y-55350000D01*
X143718162Y-55114683D01*
X143579090Y-54898559D01*
X143366890Y-54753569D01*
X143115000Y-54702560D01*
X141115000Y-54702560D01*
X140888922Y-54745100D01*
X140827000Y-54732560D01*
X139530000Y-54732560D01*
X139530000Y-54690750D01*
X139371250Y-54532000D01*
X137922000Y-54532000D01*
X137668000Y-54532000D01*
X137648000Y-54532000D01*
X137648000Y-54278000D01*
X137668000Y-54278000D01*
X137668000Y-53403750D01*
X137922000Y-53403750D01*
X137922000Y-54278000D01*
X139371250Y-54278000D01*
X139530000Y-54119250D01*
X139530000Y-53753691D01*
X139477006Y-53625750D01*
X145835000Y-53625750D01*
X145835000Y-54316310D01*
X145931673Y-54549699D01*
X146110302Y-54728327D01*
X146343691Y-54825000D01*
X147034250Y-54825000D01*
X147193000Y-54666250D01*
X147193000Y-53467000D01*
X147447000Y-53467000D01*
X147447000Y-54666250D01*
X147605750Y-54825000D01*
X148296309Y-54825000D01*
X148529698Y-54728327D01*
X148708327Y-54549699D01*
X148805000Y-54316310D01*
X148805000Y-53625750D01*
X148646250Y-53467000D01*
X147447000Y-53467000D01*
X147193000Y-53467000D01*
X145993750Y-53467000D01*
X145835000Y-53625750D01*
X139477006Y-53625750D01*
X139433327Y-53520302D01*
X139254699Y-53341673D01*
X139021310Y-53245000D01*
X138080750Y-53245000D01*
X137922000Y-53403750D01*
X137668000Y-53403750D01*
X137509250Y-53245000D01*
X136600000Y-53245000D01*
X136600000Y-52780000D01*
X145835000Y-52780000D01*
X145835000Y-53054250D01*
G36*
X157957185Y-72815185D02*
X157873786Y-72940000D01*
X157335750Y-72940000D01*
X157177000Y-73098750D01*
X157177000Y-74073000D01*
X157197000Y-74073000D01*
X157197000Y-74327000D01*
X157177000Y-74327000D01*
X157177000Y-75301250D01*
X157335750Y-75460000D01*
X157734000Y-75460000D01*
X157734000Y-75503370D01*
X157009370Y-76228000D01*
X155490572Y-76228000D01*
X155486532Y-76218247D01*
X155507440Y-76115000D01*
X155507440Y-75865000D01*
X155463162Y-75629683D01*
X155355285Y-75462037D01*
X155535317Y-75428162D01*
X155751441Y-75289090D01*
X155797969Y-75220994D01*
X155940302Y-75363327D01*
X156173691Y-75460000D01*
X156764250Y-75460000D01*
X156923000Y-75301250D01*
X156923000Y-74327000D01*
X156903000Y-74327000D01*
X156903000Y-74073000D01*
X156923000Y-74073000D01*
X156923000Y-73098750D01*
X156764250Y-72940000D01*
X156173691Y-72940000D01*
X155940302Y-73036673D01*
X155799064Y-73177910D01*
X155764090Y-73123559D01*
X155551890Y-72978569D01*
X155300000Y-72927560D01*
X154625071Y-72927560D01*
X155190631Y-72362000D01*
X158410370Y-72362000D01*
X157957185Y-72815185D01*
X157957185Y-72815185D01*
G37*
X157957185Y-72815185D02*
X157873786Y-72940000D01*
X157335750Y-72940000D01*
X157177000Y-73098750D01*
X157177000Y-74073000D01*
X157197000Y-74073000D01*
X157197000Y-74327000D01*
X157177000Y-74327000D01*
X157177000Y-75301250D01*
X157335750Y-75460000D01*
X157734000Y-75460000D01*
X157734000Y-75503370D01*
X157009370Y-76228000D01*
X155490572Y-76228000D01*
X155486532Y-76218247D01*
X155507440Y-76115000D01*
X155507440Y-75865000D01*
X155463162Y-75629683D01*
X155355285Y-75462037D01*
X155535317Y-75428162D01*
X155751441Y-75289090D01*
X155797969Y-75220994D01*
X155940302Y-75363327D01*
X156173691Y-75460000D01*
X156764250Y-75460000D01*
X156923000Y-75301250D01*
X156923000Y-74327000D01*
X156903000Y-74327000D01*
X156903000Y-74073000D01*
X156923000Y-74073000D01*
X156923000Y-73098750D01*
X156764250Y-72940000D01*
X156173691Y-72940000D01*
X155940302Y-73036673D01*
X155799064Y-73177910D01*
X155764090Y-73123559D01*
X155551890Y-72978569D01*
X155300000Y-72927560D01*
X154625071Y-72927560D01*
X155190631Y-72362000D01*
X158410370Y-72362000D01*
X157957185Y-72815185D01*
G36*
X156467560Y-67780190D02*
X156467560Y-68350000D01*
X156511838Y-68585317D01*
X156650910Y-68801441D01*
X156719006Y-68847969D01*
X156576673Y-68990301D01*
X156480000Y-69223690D01*
X156480000Y-69564250D01*
X156638750Y-69723000D01*
X157988000Y-69723000D01*
X157988000Y-69703000D01*
X158242000Y-69703000D01*
X158242000Y-69723000D01*
X158262000Y-69723000D01*
X158262000Y-69977000D01*
X158242000Y-69977000D01*
X158242000Y-69997000D01*
X157988000Y-69997000D01*
X157988000Y-69977000D01*
X156638750Y-69977000D01*
X156480000Y-70135750D01*
X156480000Y-70238000D01*
X154413407Y-70238000D01*
X154121802Y-70296004D01*
X153874591Y-70461185D01*
X152372000Y-71963777D01*
X152372000Y-70705630D01*
X155715631Y-67362000D01*
X156049370Y-67362000D01*
X156467560Y-67780190D01*
X156467560Y-67780190D01*
G37*
X156467560Y-67780190D02*
X156467560Y-68350000D01*
X156511838Y-68585317D01*
X156650910Y-68801441D01*
X156719006Y-68847969D01*
X156576673Y-68990301D01*
X156480000Y-69223690D01*
X156480000Y-69564250D01*
X156638750Y-69723000D01*
X157988000Y-69723000D01*
X157988000Y-69703000D01*
X158242000Y-69703000D01*
X158242000Y-69723000D01*
X158262000Y-69723000D01*
X158262000Y-69977000D01*
X158242000Y-69977000D01*
X158242000Y-69997000D01*
X157988000Y-69997000D01*
X157988000Y-69977000D01*
X156638750Y-69977000D01*
X156480000Y-70135750D01*
X156480000Y-70238000D01*
X154413407Y-70238000D01*
X154121802Y-70296004D01*
X153874591Y-70461185D01*
X152372000Y-71963777D01*
X152372000Y-70705630D01*
X155715631Y-67362000D01*
X156049370Y-67362000D01*
X156467560Y-67780190D01*
G36*
X139323731Y-66360821D02*
X139697018Y-66515824D01*
X140101208Y-66516176D01*
X140470144Y-66363735D01*
X140511838Y-66585317D01*
X140650910Y-66801441D01*
X140720711Y-66849134D01*
X140663559Y-66885910D01*
X140518569Y-67098110D01*
X140467560Y-67350000D01*
X140467560Y-68274560D01*
X139185000Y-66992000D01*
X139185000Y-66221848D01*
X139323731Y-66360821D01*
X139323731Y-66360821D01*
G37*
X139323731Y-66360821D02*
X139697018Y-66515824D01*
X140101208Y-66516176D01*
X140470144Y-66363735D01*
X140511838Y-66585317D01*
X140650910Y-66801441D01*
X140720711Y-66849134D01*
X140663559Y-66885910D01*
X140518569Y-67098110D01*
X140467560Y-67350000D01*
X140467560Y-68274560D01*
X139185000Y-66992000D01*
X139185000Y-66221848D01*
X139323731Y-66360821D01*
M02*
