G04 #@! TF.FileFunction,Legend,Top*
%FSLAX46Y46*%
G04 Gerber Fmt 4.6, Leading zero omitted, Abs format (unit mm)*
G04 Created by KiCad (PCBNEW 4.0.6) date Monday, 07 August 2017 'PMt' 13:26:33*
%MOMM*%
%LPD*%
G01*
G04 APERTURE LIST*
%ADD10C,0.101600*%
%ADD11C,0.150000*%
%ADD12C,0.500000*%
%ADD13C,0.120000*%
%ADD14C,0.100000*%
G04 APERTURE END LIST*
D10*
D11*
X136920238Y-94207143D02*
X137529762Y-94207143D01*
X137225000Y-94511905D02*
X137225000Y-93902381D01*
X157690477Y-91025000D02*
X157614286Y-90986905D01*
X157500001Y-90986905D01*
X157385715Y-91025000D01*
X157309524Y-91101190D01*
X157271429Y-91177381D01*
X157233334Y-91329762D01*
X157233334Y-91444048D01*
X157271429Y-91596429D01*
X157309524Y-91672619D01*
X157385715Y-91748810D01*
X157500001Y-91786905D01*
X157576191Y-91786905D01*
X157690477Y-91748810D01*
X157728572Y-91710714D01*
X157728572Y-91444048D01*
X157576191Y-91444048D01*
X158071429Y-91786905D02*
X158071429Y-90986905D01*
X158528572Y-91786905D01*
X158528572Y-90986905D01*
X158909524Y-91786905D02*
X158909524Y-90986905D01*
X159100000Y-90986905D01*
X159214286Y-91025000D01*
X159290477Y-91101190D01*
X159328572Y-91177381D01*
X159366667Y-91329762D01*
X159366667Y-91444048D01*
X159328572Y-91596429D01*
X159290477Y-91672619D01*
X159214286Y-91748810D01*
X159100000Y-91786905D01*
X158909524Y-91786905D01*
X157347619Y-89248810D02*
X157461905Y-89286905D01*
X157652381Y-89286905D01*
X157728571Y-89248810D01*
X157766667Y-89210714D01*
X157804762Y-89134524D01*
X157804762Y-89058333D01*
X157766667Y-88982143D01*
X157728571Y-88944048D01*
X157652381Y-88905952D01*
X157500000Y-88867857D01*
X157423809Y-88829762D01*
X157385714Y-88791667D01*
X157347619Y-88715476D01*
X157347619Y-88639286D01*
X157385714Y-88563095D01*
X157423809Y-88525000D01*
X157500000Y-88486905D01*
X157690476Y-88486905D01*
X157804762Y-88525000D01*
X158604762Y-89210714D02*
X158566667Y-89248810D01*
X158452381Y-89286905D01*
X158376191Y-89286905D01*
X158261905Y-89248810D01*
X158185714Y-89172619D01*
X158147619Y-89096429D01*
X158109524Y-88944048D01*
X158109524Y-88829762D01*
X158147619Y-88677381D01*
X158185714Y-88601190D01*
X158261905Y-88525000D01*
X158376191Y-88486905D01*
X158452381Y-88486905D01*
X158566667Y-88525000D01*
X158604762Y-88563095D01*
X159328572Y-89286905D02*
X158947619Y-89286905D01*
X158947619Y-88486905D01*
X157328572Y-86673810D02*
X157442858Y-86711905D01*
X157633334Y-86711905D01*
X157709524Y-86673810D01*
X157747620Y-86635714D01*
X157785715Y-86559524D01*
X157785715Y-86483333D01*
X157747620Y-86407143D01*
X157709524Y-86369048D01*
X157633334Y-86330952D01*
X157480953Y-86292857D01*
X157404762Y-86254762D01*
X157366667Y-86216667D01*
X157328572Y-86140476D01*
X157328572Y-86064286D01*
X157366667Y-85988095D01*
X157404762Y-85950000D01*
X157480953Y-85911905D01*
X157671429Y-85911905D01*
X157785715Y-85950000D01*
X158128572Y-86711905D02*
X158128572Y-85911905D01*
X158319048Y-85911905D01*
X158433334Y-85950000D01*
X158509525Y-86026190D01*
X158547620Y-86102381D01*
X158585715Y-86254762D01*
X158585715Y-86369048D01*
X158547620Y-86521429D01*
X158509525Y-86597619D01*
X158433334Y-86673810D01*
X158319048Y-86711905D01*
X158128572Y-86711905D01*
X158890477Y-86483333D02*
X159271429Y-86483333D01*
X158814286Y-86711905D02*
X159080953Y-85911905D01*
X159347620Y-86711905D01*
X158009524Y-53461905D02*
X158504762Y-53461905D01*
X158238095Y-53766667D01*
X158352381Y-53766667D01*
X158428571Y-53804762D01*
X158466667Y-53842857D01*
X158504762Y-53919048D01*
X158504762Y-54109524D01*
X158466667Y-54185714D01*
X158428571Y-54223810D01*
X158352381Y-54261905D01*
X158123809Y-54261905D01*
X158047619Y-54223810D01*
X158009524Y-54185714D01*
X158733333Y-53461905D02*
X159000000Y-54261905D01*
X159266667Y-53461905D01*
X159457143Y-53461905D02*
X159952381Y-53461905D01*
X159685714Y-53766667D01*
X159800000Y-53766667D01*
X159876190Y-53804762D01*
X159914286Y-53842857D01*
X159952381Y-53919048D01*
X159952381Y-54109524D01*
X159914286Y-54185714D01*
X159876190Y-54223810D01*
X159800000Y-54261905D01*
X159571428Y-54261905D01*
X159495238Y-54223810D01*
X159457143Y-54185714D01*
X144190477Y-52900000D02*
X144114286Y-52861905D01*
X144000001Y-52861905D01*
X143885715Y-52900000D01*
X143809524Y-52976190D01*
X143771429Y-53052381D01*
X143733334Y-53204762D01*
X143733334Y-53319048D01*
X143771429Y-53471429D01*
X143809524Y-53547619D01*
X143885715Y-53623810D01*
X144000001Y-53661905D01*
X144076191Y-53661905D01*
X144190477Y-53623810D01*
X144228572Y-53585714D01*
X144228572Y-53319048D01*
X144076191Y-53319048D01*
X144571429Y-53661905D02*
X144571429Y-52861905D01*
X145028572Y-53661905D01*
X145028572Y-52861905D01*
X145409524Y-53661905D02*
X145409524Y-52861905D01*
X145600000Y-52861905D01*
X145714286Y-52900000D01*
X145790477Y-52976190D01*
X145828572Y-53052381D01*
X145866667Y-53204762D01*
X145866667Y-53319048D01*
X145828572Y-53471429D01*
X145790477Y-53547619D01*
X145714286Y-53623810D01*
X145600000Y-53661905D01*
X145409524Y-53661905D01*
X140085714Y-54561905D02*
X139819047Y-54180952D01*
X139628571Y-54561905D02*
X139628571Y-53761905D01*
X139933333Y-53761905D01*
X140009524Y-53800000D01*
X140047619Y-53838095D01*
X140085714Y-53914286D01*
X140085714Y-54028571D01*
X140047619Y-54104762D01*
X140009524Y-54142857D01*
X139933333Y-54180952D01*
X139628571Y-54180952D01*
X140695238Y-54142857D02*
X140428571Y-54142857D01*
X140428571Y-54561905D02*
X140428571Y-53761905D01*
X140809524Y-53761905D01*
X141114285Y-54561905D02*
X141114285Y-53761905D01*
X141380952Y-54333333D01*
X141647619Y-53761905D01*
X141647619Y-54561905D01*
X142066666Y-54561905D02*
X142219047Y-54561905D01*
X142295238Y-54523810D01*
X142333333Y-54485714D01*
X142409524Y-54371429D01*
X142447619Y-54219048D01*
X142447619Y-53914286D01*
X142409524Y-53838095D01*
X142371428Y-53800000D01*
X142295238Y-53761905D01*
X142142857Y-53761905D01*
X142066666Y-53800000D01*
X142028571Y-53838095D01*
X141990476Y-53914286D01*
X141990476Y-54104762D01*
X142028571Y-54180952D01*
X142066666Y-54219048D01*
X142142857Y-54257143D01*
X142295238Y-54257143D01*
X142371428Y-54219048D01*
X142409524Y-54180952D01*
X142447619Y-54104762D01*
X143171429Y-53761905D02*
X142790476Y-53761905D01*
X142752381Y-54142857D01*
X142790476Y-54104762D01*
X142866667Y-54066667D01*
X143057143Y-54066667D01*
X143133333Y-54104762D01*
X143171429Y-54142857D01*
X143209524Y-54219048D01*
X143209524Y-54409524D01*
X143171429Y-54485714D01*
X143133333Y-54523810D01*
X143057143Y-54561905D01*
X142866667Y-54561905D01*
X142790476Y-54523810D01*
X142752381Y-54485714D01*
X156819048Y-81561905D02*
X156361905Y-81561905D01*
X156590476Y-81561905D02*
X156590476Y-80761905D01*
X156514286Y-80876190D01*
X156438095Y-80952381D01*
X156361905Y-80990476D01*
X157085715Y-80761905D02*
X157276191Y-81561905D01*
X157428572Y-80990476D01*
X157580953Y-81561905D01*
X157771429Y-80761905D01*
X158076191Y-81561905D02*
X158076191Y-80761905D01*
X158914286Y-81561905D02*
X158647619Y-81180952D01*
X158457143Y-81561905D02*
X158457143Y-80761905D01*
X158761905Y-80761905D01*
X158838096Y-80800000D01*
X158876191Y-80838095D01*
X158914286Y-80914286D01*
X158914286Y-81028571D01*
X158876191Y-81104762D01*
X158838096Y-81142857D01*
X158761905Y-81180952D01*
X158457143Y-81180952D01*
X159257143Y-81142857D02*
X159523810Y-81142857D01*
X159638096Y-81561905D02*
X159257143Y-81561905D01*
X159257143Y-80761905D01*
X159638096Y-80761905D01*
X148247619Y-78848810D02*
X148361905Y-78886905D01*
X148552381Y-78886905D01*
X148628571Y-78848810D01*
X148666667Y-78810714D01*
X148704762Y-78734524D01*
X148704762Y-78658333D01*
X148666667Y-78582143D01*
X148628571Y-78544048D01*
X148552381Y-78505952D01*
X148400000Y-78467857D01*
X148323809Y-78429762D01*
X148285714Y-78391667D01*
X148247619Y-78315476D01*
X148247619Y-78239286D01*
X148285714Y-78163095D01*
X148323809Y-78125000D01*
X148400000Y-78086905D01*
X148590476Y-78086905D01*
X148704762Y-78125000D01*
X148933333Y-78086905D02*
X149390476Y-78086905D01*
X149161905Y-78886905D02*
X149161905Y-78086905D01*
X149657143Y-78886905D02*
X149657143Y-78086905D01*
X149923810Y-78658333D01*
X150190477Y-78086905D01*
X150190477Y-78886905D01*
X150495239Y-78086905D02*
X150990477Y-78086905D01*
X150723810Y-78391667D01*
X150838096Y-78391667D01*
X150914286Y-78429762D01*
X150952382Y-78467857D01*
X150990477Y-78544048D01*
X150990477Y-78734524D01*
X150952382Y-78810714D01*
X150914286Y-78848810D01*
X150838096Y-78886905D01*
X150609524Y-78886905D01*
X150533334Y-78848810D01*
X150495239Y-78810714D01*
X151295239Y-78163095D02*
X151333334Y-78125000D01*
X151409525Y-78086905D01*
X151600001Y-78086905D01*
X151676191Y-78125000D01*
X151714287Y-78163095D01*
X151752382Y-78239286D01*
X151752382Y-78315476D01*
X151714287Y-78429762D01*
X151257144Y-78886905D01*
X151752382Y-78886905D01*
X148019048Y-80236905D02*
X147638095Y-80236905D01*
X147638095Y-79436905D01*
X148438095Y-79436905D02*
X148514286Y-79436905D01*
X148590476Y-79475000D01*
X148628571Y-79513095D01*
X148666667Y-79589286D01*
X148704762Y-79741667D01*
X148704762Y-79932143D01*
X148666667Y-80084524D01*
X148628571Y-80160714D01*
X148590476Y-80198810D01*
X148514286Y-80236905D01*
X148438095Y-80236905D01*
X148361905Y-80198810D01*
X148323809Y-80160714D01*
X148285714Y-80084524D01*
X148247619Y-79932143D01*
X148247619Y-79741667D01*
X148285714Y-79589286D01*
X148323809Y-79513095D01*
X148361905Y-79475000D01*
X148438095Y-79436905D01*
X149428572Y-79436905D02*
X149047619Y-79436905D01*
X149009524Y-79817857D01*
X149047619Y-79779762D01*
X149123810Y-79741667D01*
X149314286Y-79741667D01*
X149390476Y-79779762D01*
X149428572Y-79817857D01*
X149466667Y-79894048D01*
X149466667Y-80084524D01*
X149428572Y-80160714D01*
X149390476Y-80198810D01*
X149314286Y-80236905D01*
X149123810Y-80236905D01*
X149047619Y-80198810D01*
X149009524Y-80160714D01*
X149733334Y-79436905D02*
X150228572Y-79436905D01*
X149961905Y-79741667D01*
X150076191Y-79741667D01*
X150152381Y-79779762D01*
X150190477Y-79817857D01*
X150228572Y-79894048D01*
X150228572Y-80084524D01*
X150190477Y-80160714D01*
X150152381Y-80198810D01*
X150076191Y-80236905D01*
X149847619Y-80236905D01*
X149771429Y-80198810D01*
X149733334Y-80160714D01*
X151028572Y-80160714D02*
X150990477Y-80198810D01*
X150876191Y-80236905D01*
X150800001Y-80236905D01*
X150685715Y-80198810D01*
X150609524Y-80122619D01*
X150571429Y-80046429D01*
X150533334Y-79894048D01*
X150533334Y-79779762D01*
X150571429Y-79627381D01*
X150609524Y-79551190D01*
X150685715Y-79475000D01*
X150800001Y-79436905D01*
X150876191Y-79436905D01*
X150990477Y-79475000D01*
X151028572Y-79513095D01*
X151485715Y-79779762D02*
X151409524Y-79741667D01*
X151371429Y-79703571D01*
X151333334Y-79627381D01*
X151333334Y-79589286D01*
X151371429Y-79513095D01*
X151409524Y-79475000D01*
X151485715Y-79436905D01*
X151638096Y-79436905D01*
X151714286Y-79475000D01*
X151752382Y-79513095D01*
X151790477Y-79589286D01*
X151790477Y-79627381D01*
X151752382Y-79703571D01*
X151714286Y-79741667D01*
X151638096Y-79779762D01*
X151485715Y-79779762D01*
X151409524Y-79817857D01*
X151371429Y-79855952D01*
X151333334Y-79932143D01*
X151333334Y-80084524D01*
X151371429Y-80160714D01*
X151409524Y-80198810D01*
X151485715Y-80236905D01*
X151638096Y-80236905D01*
X151714286Y-80198810D01*
X151752382Y-80160714D01*
X151790477Y-80084524D01*
X151790477Y-79932143D01*
X151752382Y-79855952D01*
X151714286Y-79817857D01*
X151638096Y-79779762D01*
X152019048Y-79436905D02*
X152476191Y-79436905D01*
X152247620Y-80236905D02*
X152247620Y-79436905D01*
X156240476Y-53061905D02*
X156697619Y-53061905D01*
X156469048Y-53861905D02*
X156469048Y-53061905D01*
X156888096Y-53061905D02*
X157421429Y-53861905D01*
X157421429Y-53061905D02*
X156888096Y-53861905D01*
X150016667Y-53861905D02*
X149750000Y-53480952D01*
X149559524Y-53861905D02*
X149559524Y-53061905D01*
X149864286Y-53061905D01*
X149940477Y-53100000D01*
X149978572Y-53138095D01*
X150016667Y-53214286D01*
X150016667Y-53328571D01*
X149978572Y-53404762D01*
X149940477Y-53442857D01*
X149864286Y-53480952D01*
X149559524Y-53480952D01*
X150283334Y-53061905D02*
X150816667Y-53861905D01*
X150816667Y-53061905D02*
X150283334Y-53861905D01*
X136945238Y-77557143D02*
X137554762Y-77557143D01*
X136659524Y-93192857D02*
X136773810Y-93230952D01*
X136811905Y-93269048D01*
X136850000Y-93345238D01*
X136850000Y-93459524D01*
X136811905Y-93535714D01*
X136773810Y-93573810D01*
X136697619Y-93611905D01*
X136392857Y-93611905D01*
X136392857Y-92811905D01*
X136659524Y-92811905D01*
X136735714Y-92850000D01*
X136773810Y-92888095D01*
X136811905Y-92964286D01*
X136811905Y-93040476D01*
X136773810Y-93116667D01*
X136735714Y-93154762D01*
X136659524Y-93192857D01*
X136392857Y-93192857D01*
X137154762Y-93383333D02*
X137535714Y-93383333D01*
X137078571Y-93611905D02*
X137345238Y-92811905D01*
X137611905Y-93611905D01*
X137764285Y-92811905D02*
X138221428Y-92811905D01*
X137992857Y-93611905D02*
X137992857Y-92811905D01*
X136659524Y-71442857D02*
X136773810Y-71480952D01*
X136811905Y-71519048D01*
X136850000Y-71595238D01*
X136850000Y-71709524D01*
X136811905Y-71785714D01*
X136773810Y-71823810D01*
X136697619Y-71861905D01*
X136392857Y-71861905D01*
X136392857Y-71061905D01*
X136659524Y-71061905D01*
X136735714Y-71100000D01*
X136773810Y-71138095D01*
X136811905Y-71214286D01*
X136811905Y-71290476D01*
X136773810Y-71366667D01*
X136735714Y-71404762D01*
X136659524Y-71442857D01*
X136392857Y-71442857D01*
X137154762Y-71633333D02*
X137535714Y-71633333D01*
X137078571Y-71861905D02*
X137345238Y-71061905D01*
X137611905Y-71861905D01*
X137764285Y-71061905D02*
X138221428Y-71061905D01*
X137992857Y-71861905D02*
X137992857Y-71061905D01*
X157459524Y-93636905D02*
X157954762Y-93636905D01*
X157688095Y-93941667D01*
X157802381Y-93941667D01*
X157878571Y-93979762D01*
X157916667Y-94017857D01*
X157954762Y-94094048D01*
X157954762Y-94284524D01*
X157916667Y-94360714D01*
X157878571Y-94398810D01*
X157802381Y-94436905D01*
X157573809Y-94436905D01*
X157497619Y-94398810D01*
X157459524Y-94360714D01*
X158183333Y-93636905D02*
X158450000Y-94436905D01*
X158716667Y-93636905D01*
X158907143Y-93636905D02*
X159402381Y-93636905D01*
X159135714Y-93941667D01*
X159250000Y-93941667D01*
X159326190Y-93979762D01*
X159364286Y-94017857D01*
X159402381Y-94094048D01*
X159402381Y-94284524D01*
X159364286Y-94360714D01*
X159326190Y-94398810D01*
X159250000Y-94436905D01*
X159021428Y-94436905D01*
X158945238Y-94398810D01*
X158907143Y-94360714D01*
X157965477Y-83275000D02*
X157889286Y-83236905D01*
X157775001Y-83236905D01*
X157660715Y-83275000D01*
X157584524Y-83351190D01*
X157546429Y-83427381D01*
X157508334Y-83579762D01*
X157508334Y-83694048D01*
X157546429Y-83846429D01*
X157584524Y-83922619D01*
X157660715Y-83998810D01*
X157775001Y-84036905D01*
X157851191Y-84036905D01*
X157965477Y-83998810D01*
X158003572Y-83960714D01*
X158003572Y-83694048D01*
X157851191Y-83694048D01*
X158346429Y-84036905D02*
X158346429Y-83236905D01*
X158803572Y-84036905D01*
X158803572Y-83236905D01*
X159184524Y-84036905D02*
X159184524Y-83236905D01*
X159375000Y-83236905D01*
X159489286Y-83275000D01*
X159565477Y-83351190D01*
X159603572Y-83427381D01*
X159641667Y-83579762D01*
X159641667Y-83694048D01*
X159603572Y-83846429D01*
X159565477Y-83922619D01*
X159489286Y-83998810D01*
X159375000Y-84036905D01*
X159184524Y-84036905D01*
X136820238Y-90182143D02*
X137429762Y-90182143D01*
X137125000Y-90486905D02*
X137125000Y-89877381D01*
X136895238Y-74982143D02*
X137504762Y-74982143D01*
D12*
X146939000Y-81708714D02*
X146843761Y-81613476D01*
X146939000Y-81518238D01*
X147034238Y-81613476D01*
X146939000Y-81708714D01*
X146939000Y-81518238D01*
D11*
X139369762Y-81222857D02*
X138760238Y-81222857D01*
X160590477Y-57550000D02*
X160514286Y-57511905D01*
X160400001Y-57511905D01*
X160285715Y-57550000D01*
X160209524Y-57626190D01*
X160171429Y-57702381D01*
X160133334Y-57854762D01*
X160133334Y-57969048D01*
X160171429Y-58121429D01*
X160209524Y-58197619D01*
X160285715Y-58273810D01*
X160400001Y-58311905D01*
X160476191Y-58311905D01*
X160590477Y-58273810D01*
X160628572Y-58235714D01*
X160628572Y-57969048D01*
X160476191Y-57969048D01*
X160971429Y-58311905D02*
X160971429Y-57511905D01*
X161428572Y-58311905D01*
X161428572Y-57511905D01*
X161809524Y-58311905D02*
X161809524Y-57511905D01*
X162000000Y-57511905D01*
X162114286Y-57550000D01*
X162190477Y-57626190D01*
X162228572Y-57702381D01*
X162266667Y-57854762D01*
X162266667Y-57969048D01*
X162228572Y-58121429D01*
X162190477Y-58197619D01*
X162114286Y-58273810D01*
X162000000Y-58311905D01*
X161809524Y-58311905D01*
X136315572Y-79571810D02*
X136429858Y-79609905D01*
X136620334Y-79609905D01*
X136696524Y-79571810D01*
X136734620Y-79533714D01*
X136772715Y-79457524D01*
X136772715Y-79381333D01*
X136734620Y-79305143D01*
X136696524Y-79267048D01*
X136620334Y-79228952D01*
X136467953Y-79190857D01*
X136391762Y-79152762D01*
X136353667Y-79114667D01*
X136315572Y-79038476D01*
X136315572Y-78962286D01*
X136353667Y-78886095D01*
X136391762Y-78848000D01*
X136467953Y-78809905D01*
X136658429Y-78809905D01*
X136772715Y-78848000D01*
X137267953Y-78809905D02*
X137420334Y-78809905D01*
X137496525Y-78848000D01*
X137572715Y-78924190D01*
X137610810Y-79076571D01*
X137610810Y-79343238D01*
X137572715Y-79495619D01*
X137496525Y-79571810D01*
X137420334Y-79609905D01*
X137267953Y-79609905D01*
X137191763Y-79571810D01*
X137115572Y-79495619D01*
X137077477Y-79343238D01*
X137077477Y-79076571D01*
X137115572Y-78924190D01*
X137191763Y-78848000D01*
X137267953Y-78809905D01*
X138334620Y-79609905D02*
X137953667Y-79609905D01*
X137953667Y-78809905D01*
X139369762Y-83762857D02*
X138760238Y-83762857D01*
X139065000Y-83458095D02*
X139065000Y-84067619D01*
X140233333Y-71828571D02*
X140233333Y-72476190D01*
X140195238Y-72552381D01*
X140157143Y-72590476D01*
X140080952Y-72628571D01*
X139966667Y-72628571D01*
X139890476Y-72590476D01*
X140233333Y-72323810D02*
X140157143Y-72361905D01*
X140004762Y-72361905D01*
X139928571Y-72323810D01*
X139890476Y-72285714D01*
X139852381Y-72209524D01*
X139852381Y-71980952D01*
X139890476Y-71904762D01*
X139928571Y-71866667D01*
X140004762Y-71828571D01*
X140157143Y-71828571D01*
X140233333Y-71866667D01*
X140614286Y-72361905D02*
X140614286Y-71828571D01*
X140614286Y-71561905D02*
X140576191Y-71600000D01*
X140614286Y-71638095D01*
X140652381Y-71600000D01*
X140614286Y-71561905D01*
X140614286Y-71638095D01*
X140880952Y-71828571D02*
X141185714Y-71828571D01*
X140995238Y-71561905D02*
X140995238Y-72247619D01*
X141033333Y-72323810D01*
X141109524Y-72361905D01*
X141185714Y-72361905D01*
X141452381Y-72361905D02*
X141452381Y-71561905D01*
X141795238Y-72361905D02*
X141795238Y-71942857D01*
X141757143Y-71866667D01*
X141680953Y-71828571D01*
X141566667Y-71828571D01*
X141490476Y-71866667D01*
X141452381Y-71904762D01*
X142519048Y-71828571D02*
X142519048Y-72361905D01*
X142176191Y-71828571D02*
X142176191Y-72247619D01*
X142214286Y-72323810D01*
X142290477Y-72361905D01*
X142404763Y-72361905D01*
X142480953Y-72323810D01*
X142519048Y-72285714D01*
X142900001Y-72361905D02*
X142900001Y-71561905D01*
X142900001Y-71866667D02*
X142976192Y-71828571D01*
X143128573Y-71828571D01*
X143204763Y-71866667D01*
X143242858Y-71904762D01*
X143280954Y-71980952D01*
X143280954Y-72209524D01*
X143242858Y-72285714D01*
X143204763Y-72323810D01*
X143128573Y-72361905D01*
X142976192Y-72361905D01*
X142900001Y-72323810D01*
X143623811Y-72285714D02*
X143661906Y-72323810D01*
X143623811Y-72361905D01*
X143585716Y-72323810D01*
X143623811Y-72285714D01*
X143623811Y-72361905D01*
X144347620Y-72323810D02*
X144271430Y-72361905D01*
X144119049Y-72361905D01*
X144042858Y-72323810D01*
X144004763Y-72285714D01*
X143966668Y-72209524D01*
X143966668Y-71980952D01*
X144004763Y-71904762D01*
X144042858Y-71866667D01*
X144119049Y-71828571D01*
X144271430Y-71828571D01*
X144347620Y-71866667D01*
X144804763Y-72361905D02*
X144728572Y-72323810D01*
X144690477Y-72285714D01*
X144652382Y-72209524D01*
X144652382Y-71980952D01*
X144690477Y-71904762D01*
X144728572Y-71866667D01*
X144804763Y-71828571D01*
X144919049Y-71828571D01*
X144995239Y-71866667D01*
X145033334Y-71904762D01*
X145071430Y-71980952D01*
X145071430Y-72209524D01*
X145033334Y-72285714D01*
X144995239Y-72323810D01*
X144919049Y-72361905D01*
X144804763Y-72361905D01*
X145414287Y-72361905D02*
X145414287Y-71828571D01*
X145414287Y-71904762D02*
X145452382Y-71866667D01*
X145528573Y-71828571D01*
X145642859Y-71828571D01*
X145719049Y-71866667D01*
X145757144Y-71942857D01*
X145757144Y-72361905D01*
X145757144Y-71942857D02*
X145795240Y-71866667D01*
X145871430Y-71828571D01*
X145985716Y-71828571D01*
X146061906Y-71866667D01*
X146100001Y-71942857D01*
X146100001Y-72361905D01*
X147052383Y-71523810D02*
X146366668Y-72552381D01*
X147204763Y-71828571D02*
X147509525Y-71828571D01*
X147319049Y-71561905D02*
X147319049Y-72247619D01*
X147357144Y-72323810D01*
X147433335Y-72361905D01*
X147509525Y-72361905D01*
X147776192Y-72361905D02*
X147776192Y-71561905D01*
X148119049Y-72361905D02*
X148119049Y-71942857D01*
X148080954Y-71866667D01*
X148004764Y-71828571D01*
X147890478Y-71828571D01*
X147814287Y-71866667D01*
X147776192Y-71904762D01*
X148804764Y-72323810D02*
X148728574Y-72361905D01*
X148576193Y-72361905D01*
X148500002Y-72323810D01*
X148461907Y-72247619D01*
X148461907Y-71942857D01*
X148500002Y-71866667D01*
X148576193Y-71828571D01*
X148728574Y-71828571D01*
X148804764Y-71866667D01*
X148842859Y-71942857D01*
X148842859Y-72019048D01*
X148461907Y-72095238D01*
X149528573Y-72361905D02*
X149528573Y-71942857D01*
X149490478Y-71866667D01*
X149414288Y-71828571D01*
X149261907Y-71828571D01*
X149185716Y-71866667D01*
X149528573Y-72323810D02*
X149452383Y-72361905D01*
X149261907Y-72361905D01*
X149185716Y-72323810D01*
X149147621Y-72247619D01*
X149147621Y-72171429D01*
X149185716Y-72095238D01*
X149261907Y-72057143D01*
X149452383Y-72057143D01*
X149528573Y-72019048D01*
X149909526Y-71828571D02*
X149909526Y-72628571D01*
X149909526Y-71866667D02*
X149985717Y-71828571D01*
X150138098Y-71828571D01*
X150214288Y-71866667D01*
X150252383Y-71904762D01*
X150290479Y-71980952D01*
X150290479Y-72209524D01*
X150252383Y-72285714D01*
X150214288Y-72323810D01*
X150138098Y-72361905D01*
X149985717Y-72361905D01*
X149909526Y-72323810D01*
X150633336Y-72361905D02*
X150633336Y-71828571D01*
X150633336Y-71561905D02*
X150595241Y-71600000D01*
X150633336Y-71638095D01*
X150671431Y-71600000D01*
X150633336Y-71561905D01*
X150633336Y-71638095D01*
X151585717Y-71523810D02*
X150900002Y-72552381D01*
X151814288Y-72323810D02*
X151890478Y-72361905D01*
X152042859Y-72361905D01*
X152119050Y-72323810D01*
X152157145Y-72247619D01*
X152157145Y-72209524D01*
X152119050Y-72133333D01*
X152042859Y-72095238D01*
X151928574Y-72095238D01*
X151852383Y-72057143D01*
X151814288Y-71980952D01*
X151814288Y-71942857D01*
X151852383Y-71866667D01*
X151928574Y-71828571D01*
X152042859Y-71828571D01*
X152119050Y-71866667D01*
X152614288Y-72361905D02*
X152538097Y-72323810D01*
X152500002Y-72285714D01*
X152461907Y-72209524D01*
X152461907Y-71980952D01*
X152500002Y-71904762D01*
X152538097Y-71866667D01*
X152614288Y-71828571D01*
X152728574Y-71828571D01*
X152804764Y-71866667D01*
X152842859Y-71904762D01*
X152880955Y-71980952D01*
X152880955Y-72209524D01*
X152842859Y-72285714D01*
X152804764Y-72323810D01*
X152728574Y-72361905D01*
X152614288Y-72361905D01*
X153338098Y-72361905D02*
X153261907Y-72323810D01*
X153223812Y-72247619D01*
X153223812Y-71561905D01*
X153985717Y-72361905D02*
X153985717Y-71942857D01*
X153947622Y-71866667D01*
X153871432Y-71828571D01*
X153719051Y-71828571D01*
X153642860Y-71866667D01*
X153985717Y-72323810D02*
X153909527Y-72361905D01*
X153719051Y-72361905D01*
X153642860Y-72323810D01*
X153604765Y-72247619D01*
X153604765Y-72171429D01*
X153642860Y-72095238D01*
X153719051Y-72057143D01*
X153909527Y-72057143D01*
X153985717Y-72019048D01*
X154366670Y-72361905D02*
X154366670Y-71828571D01*
X154366670Y-71980952D02*
X154404765Y-71904762D01*
X154442861Y-71866667D01*
X154519051Y-71828571D01*
X154595242Y-71828571D01*
X155471432Y-72361905D02*
X155471432Y-71561905D01*
X155738099Y-72133333D01*
X156004766Y-71561905D01*
X156004766Y-72361905D01*
X156385718Y-72361905D02*
X156385718Y-71561905D01*
X156461909Y-72057143D02*
X156690480Y-72361905D01*
X156690480Y-71828571D02*
X156385718Y-72133333D01*
X157566671Y-71561905D02*
X158061909Y-71561905D01*
X157795242Y-71866667D01*
X157909528Y-71866667D01*
X157985718Y-71904762D01*
X158023814Y-71942857D01*
X158061909Y-72019048D01*
X158061909Y-72209524D01*
X158023814Y-72285714D01*
X157985718Y-72323810D01*
X157909528Y-72361905D01*
X157680956Y-72361905D01*
X157604766Y-72323810D01*
X157566671Y-72285714D01*
X158404766Y-72285714D02*
X158442861Y-72323810D01*
X158404766Y-72361905D01*
X158366671Y-72323810D01*
X158404766Y-72285714D01*
X158404766Y-72361905D01*
X159204766Y-72361905D02*
X158747623Y-72361905D01*
X158976194Y-72361905D02*
X158976194Y-71561905D01*
X158900004Y-71676190D01*
X158823813Y-71752381D01*
X158747623Y-71790476D01*
X141249524Y-91636905D02*
X141744762Y-91636905D01*
X141478095Y-91941667D01*
X141592381Y-91941667D01*
X141668571Y-91979762D01*
X141706667Y-92017857D01*
X141744762Y-92094048D01*
X141744762Y-92284524D01*
X141706667Y-92360714D01*
X141668571Y-92398810D01*
X141592381Y-92436905D01*
X141363809Y-92436905D01*
X141287619Y-92398810D01*
X141249524Y-92360714D01*
X141973333Y-91636905D02*
X142240000Y-92436905D01*
X142506667Y-91636905D01*
X142697143Y-91636905D02*
X143192381Y-91636905D01*
X142925714Y-91941667D01*
X143040000Y-91941667D01*
X143116190Y-91979762D01*
X143154286Y-92017857D01*
X143192381Y-92094048D01*
X143192381Y-92284524D01*
X143154286Y-92360714D01*
X143116190Y-92398810D01*
X143040000Y-92436905D01*
X142811428Y-92436905D01*
X142735238Y-92398810D01*
X142697143Y-92360714D01*
X146710477Y-91675000D02*
X146634286Y-91636905D01*
X146520001Y-91636905D01*
X146405715Y-91675000D01*
X146329524Y-91751190D01*
X146291429Y-91827381D01*
X146253334Y-91979762D01*
X146253334Y-92094048D01*
X146291429Y-92246429D01*
X146329524Y-92322619D01*
X146405715Y-92398810D01*
X146520001Y-92436905D01*
X146596191Y-92436905D01*
X146710477Y-92398810D01*
X146748572Y-92360714D01*
X146748572Y-92094048D01*
X146596191Y-92094048D01*
X147091429Y-92436905D02*
X147091429Y-91636905D01*
X147548572Y-92436905D01*
X147548572Y-91636905D01*
X147929524Y-92436905D02*
X147929524Y-91636905D01*
X148120000Y-91636905D01*
X148234286Y-91675000D01*
X148310477Y-91751190D01*
X148348572Y-91827381D01*
X148386667Y-91979762D01*
X148386667Y-92094048D01*
X148348572Y-92246429D01*
X148310477Y-92322619D01*
X148234286Y-92398810D01*
X148120000Y-92436905D01*
X147929524Y-92436905D01*
X144303810Y-92360714D02*
X144265715Y-92398810D01*
X144151429Y-92436905D01*
X144075239Y-92436905D01*
X143960953Y-92398810D01*
X143884762Y-92322619D01*
X143846667Y-92246429D01*
X143808572Y-92094048D01*
X143808572Y-91979762D01*
X143846667Y-91827381D01*
X143884762Y-91751190D01*
X143960953Y-91675000D01*
X144075239Y-91636905D01*
X144151429Y-91636905D01*
X144265715Y-91675000D01*
X144303810Y-91713095D01*
X145027620Y-92436905D02*
X144646667Y-92436905D01*
X144646667Y-91636905D01*
X145294286Y-92436905D02*
X145294286Y-91636905D01*
X145751429Y-92436905D02*
X145408572Y-91979762D01*
X145751429Y-91636905D02*
X145294286Y-92094048D01*
X149040953Y-92436905D02*
X149040953Y-91636905D01*
X149231429Y-91636905D01*
X149345715Y-91675000D01*
X149421906Y-91751190D01*
X149460001Y-91827381D01*
X149498096Y-91979762D01*
X149498096Y-92094048D01*
X149460001Y-92246429D01*
X149421906Y-92322619D01*
X149345715Y-92398810D01*
X149231429Y-92436905D01*
X149040953Y-92436905D01*
X149840953Y-92436905D02*
X149840953Y-91636905D01*
X150374286Y-91636905D02*
X150526667Y-91636905D01*
X150602858Y-91675000D01*
X150679048Y-91751190D01*
X150717143Y-91903571D01*
X150717143Y-92170238D01*
X150679048Y-92322619D01*
X150602858Y-92398810D01*
X150526667Y-92436905D01*
X150374286Y-92436905D01*
X150298096Y-92398810D01*
X150221905Y-92322619D01*
X150183810Y-92170238D01*
X150183810Y-91903571D01*
X150221905Y-91751190D01*
X150298096Y-91675000D01*
X150374286Y-91636905D01*
X151961905Y-92436905D02*
X151695238Y-92055952D01*
X151504762Y-92436905D02*
X151504762Y-91636905D01*
X151809524Y-91636905D01*
X151885715Y-91675000D01*
X151923810Y-91713095D01*
X151961905Y-91789286D01*
X151961905Y-91903571D01*
X151923810Y-91979762D01*
X151885715Y-92017857D01*
X151809524Y-92055952D01*
X151504762Y-92055952D01*
X152266667Y-92398810D02*
X152380953Y-92436905D01*
X152571429Y-92436905D01*
X152647619Y-92398810D01*
X152685715Y-92360714D01*
X152723810Y-92284524D01*
X152723810Y-92208333D01*
X152685715Y-92132143D01*
X152647619Y-92094048D01*
X152571429Y-92055952D01*
X152419048Y-92017857D01*
X152342857Y-91979762D01*
X152304762Y-91941667D01*
X152266667Y-91865476D01*
X152266667Y-91789286D01*
X152304762Y-91713095D01*
X152342857Y-91675000D01*
X152419048Y-91636905D01*
X152609524Y-91636905D01*
X152723810Y-91675000D01*
X152952381Y-91636905D02*
X153409524Y-91636905D01*
X153180953Y-92436905D02*
X153180953Y-91636905D01*
X154006667Y-92436905D02*
X154006667Y-91636905D01*
X154311429Y-91636905D01*
X154387620Y-91675000D01*
X154425715Y-91713095D01*
X154463810Y-91789286D01*
X154463810Y-91903571D01*
X154425715Y-91979762D01*
X154387620Y-92017857D01*
X154311429Y-92055952D01*
X154006667Y-92055952D01*
X154768572Y-92208333D02*
X155149524Y-92208333D01*
X154692381Y-92436905D02*
X154959048Y-91636905D01*
X155225715Y-92436905D01*
X155454286Y-91713095D02*
X155492381Y-91675000D01*
X155568572Y-91636905D01*
X155759048Y-91636905D01*
X155835238Y-91675000D01*
X155873334Y-91713095D01*
X155911429Y-91789286D01*
X155911429Y-91865476D01*
X155873334Y-91979762D01*
X155416191Y-92436905D01*
X155911429Y-92436905D01*
X146235000Y-82365000D02*
X146685000Y-82365000D01*
X146235000Y-75115000D02*
X146760000Y-75115000D01*
X153485000Y-75115000D02*
X152960000Y-75115000D01*
X153485000Y-82365000D02*
X152960000Y-82365000D01*
X146235000Y-82365000D02*
X146235000Y-81840000D01*
X153485000Y-82365000D02*
X153485000Y-81840000D01*
X153485000Y-75115000D02*
X153485000Y-75640000D01*
X146235000Y-75115000D02*
X146235000Y-75640000D01*
X146685000Y-82365000D02*
X146685000Y-83740000D01*
D13*
X143510000Y-95310000D02*
X156270000Y-95310000D01*
X156270000Y-95310000D02*
X156270000Y-92650000D01*
X142240000Y-95310000D02*
X140910000Y-95310000D01*
X140910000Y-95310000D02*
X140910000Y-93980000D01*
D11*
X158115000Y-70850000D02*
X158115000Y-54850000D01*
X158115000Y-54850000D02*
X142115000Y-54850000D01*
X142115000Y-54850000D02*
X142115000Y-70850000D01*
X142115000Y-70850000D02*
X158115000Y-70850000D01*
X156300000Y-73350000D02*
X155300000Y-73350000D01*
X155300000Y-75050000D02*
X156300000Y-75050000D01*
X143264000Y-83908000D02*
X144264000Y-83908000D01*
X144264000Y-82208000D02*
X143264000Y-82208000D01*
X151950000Y-87075000D02*
X151950000Y-86075000D01*
X150250000Y-86075000D02*
X150250000Y-87075000D01*
X152850000Y-87125000D02*
X152850000Y-85925000D01*
X154600000Y-85925000D02*
X154600000Y-87125000D01*
X151000000Y-90500000D02*
X153700000Y-90500000D01*
X151000000Y-89000000D02*
X153700000Y-89000000D01*
X152500000Y-89900000D02*
X152500000Y-89650000D01*
X152500000Y-89650000D02*
X152350000Y-89800000D01*
X152250000Y-89400000D02*
X152250000Y-90100000D01*
X152600000Y-89750000D02*
X152950000Y-89750000D01*
X152250000Y-89750000D02*
X152600000Y-89400000D01*
X152600000Y-89400000D02*
X152600000Y-90100000D01*
X152600000Y-90100000D02*
X152250000Y-89750000D01*
D13*
X137326000Y-61984000D02*
X137326000Y-62984000D01*
X139026000Y-62984000D02*
X139026000Y-61984000D01*
X138977000Y-61984000D02*
X138977000Y-62984000D01*
X140677000Y-62984000D02*
X140677000Y-61984000D01*
X138550000Y-82550000D02*
X138550000Y-79890000D01*
X138550000Y-79890000D02*
X135770000Y-79890000D01*
X135770000Y-79890000D02*
X135770000Y-82550000D01*
X135770000Y-82550000D02*
X138550000Y-82550000D01*
X138550000Y-83820000D02*
X138550000Y-85210000D01*
X138550000Y-85210000D02*
X137160000Y-85210000D01*
D11*
X137895000Y-55880000D02*
G75*
G03X137895000Y-55880000I-100000J0D01*
G01*
X138795000Y-55880000D02*
G75*
G03X138795000Y-55880000I-1000000J0D01*
G01*
X138795000Y-57180000D02*
X136795000Y-57180000D01*
X139095000Y-54880000D02*
X139095000Y-56880000D01*
X136795000Y-54580000D02*
X138795000Y-54580000D01*
X136495000Y-56880000D02*
X136495000Y-54880000D01*
X138795000Y-57180000D02*
G75*
G03X139095000Y-56880000I0J300000D01*
G01*
X139095000Y-54880000D02*
G75*
G03X138795000Y-54580000I-300000J0D01*
G01*
X136795000Y-54580000D02*
G75*
G03X136495000Y-54880000I0J-300000D01*
G01*
X136495000Y-56880000D02*
G75*
G03X136795000Y-57180000I300000J0D01*
G01*
D13*
X153550000Y-54610000D02*
X153550000Y-54730000D01*
X153550000Y-54730000D02*
X156330000Y-54730000D01*
X156330000Y-54730000D02*
X156330000Y-54610000D01*
X156330000Y-54610000D02*
X153550000Y-54610000D01*
X153550000Y-53340000D02*
X153550000Y-51950000D01*
X153550000Y-51950000D02*
X154940000Y-51950000D01*
X159900000Y-57150000D02*
X159900000Y-57270000D01*
X159900000Y-57270000D02*
X162680000Y-57270000D01*
X162680000Y-57270000D02*
X162680000Y-57150000D01*
X162680000Y-57150000D02*
X159900000Y-57150000D01*
X159900000Y-55880000D02*
X159900000Y-54490000D01*
X159900000Y-54490000D02*
X161290000Y-54490000D01*
X159900000Y-74930000D02*
X159900000Y-75050000D01*
X159900000Y-75050000D02*
X162680000Y-75050000D01*
X162680000Y-75050000D02*
X162680000Y-74930000D01*
X162680000Y-74930000D02*
X159900000Y-74930000D01*
X159900000Y-73660000D02*
X159900000Y-72270000D01*
X159900000Y-72270000D02*
X161290000Y-72270000D01*
X159900000Y-77470000D02*
X159900000Y-77590000D01*
X159900000Y-77590000D02*
X162680000Y-77590000D01*
X162680000Y-77590000D02*
X162680000Y-77470000D01*
X162680000Y-77470000D02*
X159900000Y-77470000D01*
X159900000Y-76200000D02*
X159900000Y-74810000D01*
X159900000Y-74810000D02*
X161290000Y-74810000D01*
X159900000Y-80010000D02*
X159900000Y-80130000D01*
X159900000Y-80130000D02*
X162680000Y-80130000D01*
X162680000Y-80130000D02*
X162680000Y-80010000D01*
X162680000Y-80010000D02*
X159900000Y-80010000D01*
X159900000Y-78740000D02*
X159900000Y-77350000D01*
X159900000Y-77350000D02*
X161290000Y-77350000D01*
X145930000Y-54610000D02*
X145930000Y-54730000D01*
X145930000Y-54730000D02*
X148710000Y-54730000D01*
X148710000Y-54730000D02*
X148710000Y-54610000D01*
X148710000Y-54610000D02*
X145930000Y-54610000D01*
X145930000Y-53340000D02*
X145930000Y-51950000D01*
X145930000Y-51950000D02*
X147320000Y-51950000D01*
X151010000Y-54610000D02*
X151010000Y-54730000D01*
X151010000Y-54730000D02*
X153790000Y-54730000D01*
X153790000Y-54730000D02*
X153790000Y-54610000D01*
X153790000Y-54610000D02*
X151010000Y-54610000D01*
X151010000Y-53340000D02*
X151010000Y-51950000D01*
X151010000Y-51950000D02*
X152400000Y-51950000D01*
X142150000Y-89050000D02*
X141150000Y-89050000D01*
X141150000Y-90750000D02*
X142150000Y-90750000D01*
X159900000Y-82550000D02*
X159900000Y-82670000D01*
X159900000Y-82670000D02*
X162680000Y-82670000D01*
X162680000Y-82670000D02*
X162680000Y-82550000D01*
X162680000Y-82550000D02*
X159900000Y-82550000D01*
X159900000Y-81280000D02*
X159900000Y-79890000D01*
X159900000Y-79890000D02*
X161290000Y-79890000D01*
X159960000Y-54610000D02*
X159960000Y-54670000D01*
X159960000Y-54670000D02*
X162620000Y-54670000D01*
X162620000Y-54670000D02*
X162620000Y-54610000D01*
X162620000Y-54610000D02*
X159960000Y-54610000D01*
X159960000Y-53340000D02*
X159960000Y-52010000D01*
X159960000Y-52010000D02*
X161290000Y-52010000D01*
X162680000Y-92710000D02*
X162680000Y-84970000D01*
X162680000Y-84970000D02*
X159900000Y-84970000D01*
X159900000Y-84970000D02*
X159900000Y-92710000D01*
X159900000Y-92710000D02*
X162680000Y-92710000D01*
X162680000Y-93980000D02*
X162680000Y-95370000D01*
X162680000Y-95370000D02*
X161290000Y-95370000D01*
X162560000Y-85210000D02*
X162680000Y-85210000D01*
X162680000Y-85210000D02*
X162680000Y-82430000D01*
X162680000Y-82430000D02*
X162560000Y-82430000D01*
X162560000Y-82430000D02*
X162560000Y-85210000D01*
X161290000Y-85210000D02*
X159900000Y-85210000D01*
X159900000Y-85210000D02*
X159900000Y-83820000D01*
D11*
X147715476Y-81086905D02*
X147715476Y-81734524D01*
X147753571Y-81810714D01*
X147791667Y-81848810D01*
X147867857Y-81886905D01*
X148020238Y-81886905D01*
X148096429Y-81848810D01*
X148134524Y-81810714D01*
X148172619Y-81734524D01*
X148172619Y-81086905D01*
X148515476Y-81163095D02*
X148553571Y-81125000D01*
X148629762Y-81086905D01*
X148820238Y-81086905D01*
X148896428Y-81125000D01*
X148934524Y-81163095D01*
X148972619Y-81239286D01*
X148972619Y-81315476D01*
X148934524Y-81429762D01*
X148477381Y-81886905D01*
X148972619Y-81886905D01*
X149138095Y-63112381D02*
X149138095Y-63921905D01*
X149185714Y-64017143D01*
X149233333Y-64064762D01*
X149328571Y-64112381D01*
X149519048Y-64112381D01*
X149614286Y-64064762D01*
X149661905Y-64017143D01*
X149709524Y-63921905D01*
X149709524Y-63112381D01*
X150661905Y-63112381D02*
X150185714Y-63112381D01*
X150138095Y-63588571D01*
X150185714Y-63540952D01*
X150280952Y-63493333D01*
X150519048Y-63493333D01*
X150614286Y-63540952D01*
X150661905Y-63588571D01*
X150709524Y-63683810D01*
X150709524Y-63921905D01*
X150661905Y-64017143D01*
X150614286Y-64064762D01*
X150519048Y-64112381D01*
X150280952Y-64112381D01*
X150185714Y-64064762D01*
X150138095Y-64017143D01*
X155666667Y-76035714D02*
X155628572Y-76073810D01*
X155514286Y-76111905D01*
X155438096Y-76111905D01*
X155323810Y-76073810D01*
X155247619Y-75997619D01*
X155209524Y-75921429D01*
X155171429Y-75769048D01*
X155171429Y-75654762D01*
X155209524Y-75502381D01*
X155247619Y-75426190D01*
X155323810Y-75350000D01*
X155438096Y-75311905D01*
X155514286Y-75311905D01*
X155628572Y-75350000D01*
X155666667Y-75388095D01*
X156428572Y-76111905D02*
X155971429Y-76111905D01*
X156200000Y-76111905D02*
X156200000Y-75311905D01*
X156123810Y-75426190D01*
X156047619Y-75502381D01*
X155971429Y-75540476D01*
X143630667Y-84867714D02*
X143592572Y-84905810D01*
X143478286Y-84943905D01*
X143402096Y-84943905D01*
X143287810Y-84905810D01*
X143211619Y-84829619D01*
X143173524Y-84753429D01*
X143135429Y-84601048D01*
X143135429Y-84486762D01*
X143173524Y-84334381D01*
X143211619Y-84258190D01*
X143287810Y-84182000D01*
X143402096Y-84143905D01*
X143478286Y-84143905D01*
X143592572Y-84182000D01*
X143630667Y-84220095D01*
X143935429Y-84220095D02*
X143973524Y-84182000D01*
X144049715Y-84143905D01*
X144240191Y-84143905D01*
X144316381Y-84182000D01*
X144354477Y-84220095D01*
X144392572Y-84296286D01*
X144392572Y-84372476D01*
X144354477Y-84486762D01*
X143897334Y-84943905D01*
X144392572Y-84943905D01*
X149166667Y-86910714D02*
X149128572Y-86948810D01*
X149014286Y-86986905D01*
X148938096Y-86986905D01*
X148823810Y-86948810D01*
X148747619Y-86872619D01*
X148709524Y-86796429D01*
X148671429Y-86644048D01*
X148671429Y-86529762D01*
X148709524Y-86377381D01*
X148747619Y-86301190D01*
X148823810Y-86225000D01*
X148938096Y-86186905D01*
X149014286Y-86186905D01*
X149128572Y-86225000D01*
X149166667Y-86263095D01*
X149433334Y-86186905D02*
X149928572Y-86186905D01*
X149661905Y-86491667D01*
X149776191Y-86491667D01*
X149852381Y-86529762D01*
X149890477Y-86567857D01*
X149928572Y-86644048D01*
X149928572Y-86834524D01*
X149890477Y-86910714D01*
X149852381Y-86948810D01*
X149776191Y-86986905D01*
X149547619Y-86986905D01*
X149471429Y-86948810D01*
X149433334Y-86910714D01*
X155391667Y-86911905D02*
X155125000Y-86530952D01*
X154934524Y-86911905D02*
X154934524Y-86111905D01*
X155239286Y-86111905D01*
X155315477Y-86150000D01*
X155353572Y-86188095D01*
X155391667Y-86264286D01*
X155391667Y-86378571D01*
X155353572Y-86454762D01*
X155315477Y-86492857D01*
X155239286Y-86530952D01*
X154934524Y-86530952D01*
X156153572Y-86911905D02*
X155696429Y-86911905D01*
X155925000Y-86911905D02*
X155925000Y-86111905D01*
X155848810Y-86226190D01*
X155772619Y-86302381D01*
X155696429Y-86340476D01*
X154529524Y-90091905D02*
X154529524Y-89291905D01*
X154720000Y-89291905D01*
X154834286Y-89330000D01*
X154910477Y-89406190D01*
X154948572Y-89482381D01*
X154986667Y-89634762D01*
X154986667Y-89749048D01*
X154948572Y-89901429D01*
X154910477Y-89977619D01*
X154834286Y-90053810D01*
X154720000Y-90091905D01*
X154529524Y-90091905D01*
X155748572Y-90091905D02*
X155291429Y-90091905D01*
X155520000Y-90091905D02*
X155520000Y-89291905D01*
X155443810Y-89406190D01*
X155367619Y-89482381D01*
X155291429Y-89520476D01*
X138042667Y-59848714D02*
X138004572Y-59886810D01*
X137890286Y-59924905D01*
X137814096Y-59924905D01*
X137699810Y-59886810D01*
X137623619Y-59810619D01*
X137585524Y-59734429D01*
X137547429Y-59582048D01*
X137547429Y-59467762D01*
X137585524Y-59315381D01*
X137623619Y-59239190D01*
X137699810Y-59163000D01*
X137814096Y-59124905D01*
X137890286Y-59124905D01*
X138004572Y-59163000D01*
X138042667Y-59201095D01*
X138728381Y-59391571D02*
X138728381Y-59924905D01*
X138537905Y-59086810D02*
X138347429Y-59658238D01*
X138842667Y-59658238D01*
X139693667Y-59848714D02*
X139655572Y-59886810D01*
X139541286Y-59924905D01*
X139465096Y-59924905D01*
X139350810Y-59886810D01*
X139274619Y-59810619D01*
X139236524Y-59734429D01*
X139198429Y-59582048D01*
X139198429Y-59467762D01*
X139236524Y-59315381D01*
X139274619Y-59239190D01*
X139350810Y-59163000D01*
X139465096Y-59124905D01*
X139541286Y-59124905D01*
X139655572Y-59163000D01*
X139693667Y-59201095D01*
X140150810Y-59467762D02*
X140074619Y-59429667D01*
X140036524Y-59391571D01*
X139998429Y-59315381D01*
X139998429Y-59277286D01*
X140036524Y-59201095D01*
X140074619Y-59163000D01*
X140150810Y-59124905D01*
X140303191Y-59124905D01*
X140379381Y-59163000D01*
X140417477Y-59201095D01*
X140455572Y-59277286D01*
X140455572Y-59315381D01*
X140417477Y-59391571D01*
X140379381Y-59429667D01*
X140303191Y-59467762D01*
X140150810Y-59467762D01*
X140074619Y-59505857D01*
X140036524Y-59543952D01*
X139998429Y-59620143D01*
X139998429Y-59772524D01*
X140036524Y-59848714D01*
X140074619Y-59886810D01*
X140150810Y-59924905D01*
X140303191Y-59924905D01*
X140379381Y-59886810D01*
X140417477Y-59848714D01*
X140455572Y-59772524D01*
X140455572Y-59620143D01*
X140417477Y-59543952D01*
X140379381Y-59505857D01*
X140303191Y-59467762D01*
D14*
X137414048Y-55098190D02*
X137414048Y-55502952D01*
X137437857Y-55550571D01*
X137461667Y-55574381D01*
X137509286Y-55598190D01*
X137604524Y-55598190D01*
X137652143Y-55574381D01*
X137675952Y-55550571D01*
X137699762Y-55502952D01*
X137699762Y-55098190D01*
X138152143Y-55264857D02*
X138152143Y-55598190D01*
X138033096Y-55074381D02*
X137914048Y-55431524D01*
X138223572Y-55431524D01*
D11*
X158178572Y-73793333D02*
X158559524Y-73793333D01*
X158102381Y-74021905D02*
X158369048Y-73221905D01*
X158635715Y-74021905D01*
X159054762Y-73221905D02*
X159130953Y-73221905D01*
X159207143Y-73260000D01*
X159245238Y-73298095D01*
X159283334Y-73374286D01*
X159321429Y-73526667D01*
X159321429Y-73717143D01*
X159283334Y-73869524D01*
X159245238Y-73945714D01*
X159207143Y-73983810D01*
X159130953Y-74021905D01*
X159054762Y-74021905D01*
X158978572Y-73983810D01*
X158940476Y-73945714D01*
X158902381Y-73869524D01*
X158864286Y-73717143D01*
X158864286Y-73526667D01*
X158902381Y-73374286D01*
X158940476Y-73298095D01*
X158978572Y-73260000D01*
X159054762Y-73221905D01*
X158178572Y-76333333D02*
X158559524Y-76333333D01*
X158102381Y-76561905D02*
X158369048Y-75761905D01*
X158635715Y-76561905D01*
X159321429Y-76561905D02*
X158864286Y-76561905D01*
X159092857Y-76561905D02*
X159092857Y-75761905D01*
X159016667Y-75876190D01*
X158940476Y-75952381D01*
X158864286Y-75990476D01*
X158178572Y-78873333D02*
X158559524Y-78873333D01*
X158102381Y-79101905D02*
X158369048Y-78301905D01*
X158635715Y-79101905D01*
X158864286Y-78378095D02*
X158902381Y-78340000D01*
X158978572Y-78301905D01*
X159169048Y-78301905D01*
X159245238Y-78340000D01*
X159283334Y-78378095D01*
X159321429Y-78454286D01*
X159321429Y-78530476D01*
X159283334Y-78644762D01*
X158826191Y-79101905D01*
X159321429Y-79101905D01*
X136869048Y-72321429D02*
X137630953Y-72321429D01*
X136744048Y-87421429D02*
X137505953Y-87421429D01*
X137125001Y-87802381D02*
X137125001Y-87040476D01*
X144541667Y-90210714D02*
X144503572Y-90248810D01*
X144389286Y-90286905D01*
X144313096Y-90286905D01*
X144198810Y-90248810D01*
X144122619Y-90172619D01*
X144084524Y-90096429D01*
X144046429Y-89944048D01*
X144046429Y-89829762D01*
X144084524Y-89677381D01*
X144122619Y-89601190D01*
X144198810Y-89525000D01*
X144313096Y-89486905D01*
X144389286Y-89486905D01*
X144503572Y-89525000D01*
X144541667Y-89563095D01*
X144922619Y-90286905D02*
X145075000Y-90286905D01*
X145151191Y-90248810D01*
X145189286Y-90210714D01*
X145265477Y-90096429D01*
X145303572Y-89944048D01*
X145303572Y-89639286D01*
X145265477Y-89563095D01*
X145227381Y-89525000D01*
X145151191Y-89486905D01*
X144998810Y-89486905D01*
X144922619Y-89525000D01*
X144884524Y-89563095D01*
X144846429Y-89639286D01*
X144846429Y-89829762D01*
X144884524Y-89905952D01*
X144922619Y-89944048D01*
X144998810Y-89982143D01*
X145151191Y-89982143D01*
X145227381Y-89944048D01*
X145265477Y-89905952D01*
X145303572Y-89829762D01*
M02*
